<?xml version="1.0" encoding="UTF-8"?><svg id="a" xmlns="http://www.w3.org/2000/svg" viewBox="0 0 74.3 48.8"><path d="m9.6,32c4.9-3,8.9-8.8,16.9-9.9,4.2,0,6.8-.9,8.4.9,1.6,1.7,15.3-6.9,19.9,3.3,1.7,3.6,3.7,1.6,7.7,6.5.6.7,1.3.4,1.1,1.4-1.5,6.1-16.6,8.4-18.1,11.1-1.9,3.3-11.3,4.4-16.4.4-6.7-5.3-20.1-5.3-19.4-13.7h0Z" style="fill:#fdedea;"/><path d="m10,34.6c7.6.2,18.2-14,24.3-5,1.1,5.3-6.1,11.6-10.5,13.1-1.4-.2-12.9-2.7-13.9-8.2h0Z" style="fill:#262524;"/><path d="m62.9,35.6c-4-.6-8.9-6.7-13.1-8.5-19.1-6.1-6,28.6,13.1,8.5h0Z" style="fill:#262524;"/><path d="m12.3,3.3c2.8-.4,11.5,4.5,7.4,7.9-1,1-1.3.9-1.4-.4.4-3.8-3.2-6.5-6-7.5h0Z" style="fill:#312e2e;"/><path d="m58.3,22.9c.6,2.7,4,9.1,5.2,10.6,0,0-6.5-4.5-8.5-6.3-1.5-1.4-3.3-4-5.9-5-14.9-5.6-8.1,14.5-7.9,19.7h-6.8c-.7,0,3.5-17.3-.4-19.3-13.5-6.1-31.2,19.8-22.4,4.8,2.1-3.3,3.2-6.4,3.2-8.9C10.4,16.2,6.8,5.3,9.5,1.3,10.6,0,17.2,1.6,19.2,4.3c2,2.7,2.3,2.1,3,3,.7.9,2-.4,2-.4,3.5-1.7,9.5-1.7,13,.4,4.5-4,12-3.2,17,2.6,1.2,1.5,4-8.8,9.9-7.6,5.9,1.2-6.1,20.2-5.8,20.5h0Z" style="fill:#9a8f8f;"/><path d="m24.7,6.8c.5-1.3,9.9-2.2,12.5.5,2.5-3,10.1-3.4,12.5-1-4,0-9.9,2-10.8,7-2.1,7.2,1.1,28.8,1.6,28.2l-2,1.2c-.8-.1-3.1-.4-3.8-.8,2.4-9.6,2.5-19.7.4-29.2-.5-5.5-6.8-6.6-10.4-5.9h0Z" style="fill:#6b5e5d;"/><path d="m35.1,41.5c.6-.1,1.6.3,2.7.4,1.4.1,2.2-.6,3.1-.1,1.6,2.8-3.2,3.9-5.1,3-1.7-.2-2.3-3-.7-3.2Z" style="fill:#262524;"/><path d="m9.7,1.1c2.3-2.3,13.3,2.2,15,5.7l-4,3.3c-.7-.3-6-9.4-11-9h0Z" style="fill:#6b5e5d;"/><path d="m23.9,7.4c.2,0-8.1-6.3-11.9-6,3.4,1.7,6.3,6.2,8.7,8.7l3.2-2.7Z" style="fill:#383535;"/><path d="m65,2.8c-1.6-2.5-12.8,1.5-15.3,3.5l4.4,4.1c.5-.6,5.9-8.3,10.8-7.7h0Z" style="fill:#6b5e5d;"/><path d="m51.3,7.8c-.8.3,8.1-5,11.1-4.7-3.2,1.8-5.6,5.3-8.1,7.6l-3-2.9h0Z" style="fill:#383535;"/><path d="m28,31.4c-.7,1.3,1.7,2.3,1.9.7.3-1.2-1.4-2-1.9-.7h0Z" style="fill:#fdedea;"/><path d="m43.3,31.4c-.7,1.3,1.7,2.3,1.9.7.3-1.2-1.4-2-1.9-.7h0Z" style="fill:#fdedea;"/></svg>