<?xml version="1.0" encoding="UTF-8"?><svg id="a" xmlns="http://www.w3.org/2000/svg" viewBox="0 0 74.3 48.8"><path d="m35.4,8.9c-1.7-2.7-4.5-5.9-7.1-7.1-2.6-1.3-4.9-1.2-5.6-.8-.7.5,3,8.3,1.9,12.1-1.1,3.8,11.2-3.6,10.9-4.2" style="fill:#f08112;"/><path d="m24.6,12.4c.5-3.8-2.3-10.1-2.2-11.3.1,0,.2,0,.2,0,2.4.9,6.1,4.1,7.9,7.5-1.1.1-2.1.4-2.9,1-1.1.7-2.1,1.7-3,2.8" style="fill:#e47a11;"/><path d="m56.2,22.1c.6-3.1-.1-8.9-1.1-11.6-.9-2.7-2.5-4.3-3.3-4.4-.8-.1-3.4,8.1-6.7,10.2-3.3,2,10.9,6.6,11,5.9" style="fill:#f08112;"/><path d="m52.3,17.6c-1.8-1.6-3.5-2.8-4.9-3.7,2-2.9,3.6-7.2,4.3-7.7,0,0,.2,0,.2,0,.9,2.1,1.3,7.4.5,11.4" style="fill:#e47a11;"/><path d="m43.9,11.8c-4.2-1.7-12.3-5-16.2-2.3-3.9,2.7-6.5,8.8-12.9,11.4s-7.1,2.3-6,3.9c1.1,1.6,3.3,3.4,2.9,3.5-.4.2-2.3.9-2.3,1.3,0,.4,2.9,2.3,2.7,4.7-.2,2.3-2.1,4-2.3,4.6-.1.6,2.3,7.2,12.3,8.7,5.7.8,9,0,11.6-.8,1.9-.6,3.5-1.2,5.4-1.1,4.4.2,10.2.2,10.6,0,.3-.2-.6-2.2-.3-2.4.2-.1,1.6.3,3.1.7,1.8.5,3.7,1,4,.7.6-.6-.9-6.5-.3-6.9.3-.2,2.7.9,5,1.9,2.3,1,4.5,2,4.8,1.9.5-.2-3.5-12.3-9.2-19.2-5.5-6.7-11.7-9.9-12.9-10.4" style="fill:#f08112;"/><path d="m26.5,47.9c-1.3,0-2.8,0-4.4-.3-9.7-1.4-12.3-7.7-12.3-8.6,0,0,0,0,0,0,.1-.6,2.1-2.3,2.3-4.6,0,0,0-.1,0-.2,0-2.2-2.7-4.1-2.7-4.5h0c0-.4,1.9-1.1,2.3-1.3,0,0,0,0,0,0,0-.4-1.9-2-2.9-3.5-.3-.4-.5-.7-.5-.9,0-.7,1.6-1.1,6.4-3,6.4-2.6,9-8.7,12.9-11.4,1.1-.7,2.4-1,4-1,4.1,0,9.2,2.1,12.3,3.3,1.2.5,7.4,3.8,12.9,10.4,5.3,6.5,9.2,17.7,9.2,19.1,0,0,0,.1,0,.1,0,0,0,0,0,0-.4,0-2.5-.9-4.7-1.9-2.2-.9-4.4-1.9-4.9-1.9s0,0,0,0c0,0-.1.3-.1.5,0,1.2.6,4.2.6,5.6,0,.4,0,.6-.1.7,0,0-.2,0-.4,0-.4,0-1.2-.1-2-.3-.5-.1-1.1-.3-1.6-.4-1.4-.4-2.7-.8-3-.8s0,0,0,0c0,0,0,.1,0,.2,0,.5.4,1.5.4,2,0,.1,0,.2,0,.2-.2.1-1.9.2-4.1.2s-4.4,0-6.5-.1c-.1,0-.2,0-.3,0-1.8,0-3.3.6-5.1,1.2-.2,0-.4.1-.6.2-1.7.5-3.7,1-6.5,1" style="fill:#e47a11;"/><path d="m13,41l-3-2.4h0s5.9-2.7,9.4-7.5c3.5-4.8,2.9-6.5,3.4-11.8.6-5.3,3-8.1,4.9-9.7,3.9-2.7,12,.6,16.2,2.3,1.2.5,7.4,3.8,12.9,10.4.8.9,1.5,2,2.2,3.1-7.6-6.3-16.7-3-20.4-.6-3.8,2.3-4.8,4.9-5.4,5.9-.6,1.1-3.3,1.2-7.6,3.4-4.3,2.2-12.7,7-12.7,7h0Z" style="fill:#f08112;"/><path d="m22.1,47.6c-9.3-1.3-12-7.2-12.2-8.5l4.6,2c.6,2.5,6.8,6.8,12.6,6.8-1.4,0-3.1,0-5-.3h0Z" style="fill:#f0e8da;"/><path d="m33.5,34.9c.8,1.2,2.3,1.5,3.4.7,1.2-.8,1.5-2.3.7-3.5-.8-1.2-2.3-1.5-3.4-.7-1.2.7-1.5,2.3-.7,3.4h0Z" style="fill:#454647;"/><path d="m16.9,26.8c.7,1.2,2.3,1.5,3.4.7,1.2-.8,1.5-2.3.7-3.4-.8-1.2-2.3-1.5-3.4-.7-1.2.7-1.5,2.3-.7,3.4h0Z" style="fill:#454647;"/><path d="m12.3,39.1c-1.7-1.3-2.9-.8-2.4.6.7,2,1.2,2.6,2.1,3,.9.4,2.7-.6,2.7-1.1,0-.5-1.5-1.8-2.4-2.5h0Z" style="fill:#454647;"/></svg>