<?xml version="1.0" encoding="iso-8859-1"?>
<!-- Uploaded to: SVG Repo, www.svgrepo.com, Generator: SVG Repo Mixer Tools -->
<svg height="78.81" width="120" version="1.1" id="Layer_1" xmlns="http://www.w3.org/2000/svg" xmlns:xlink="http://www.w3.org/1999/xlink"
	 viewBox="0 0 511.999 511.999" xml:space="preserve">
<!--<svg height="800px" width="800px" version="1.1" id="Layer_1" xmlns="http://www.w3.org/2000/svg" xmlns:xlink="http://www.w3.org/1999/xlink"-->
<!--	 viewBox="0 0 511.999 511.999" xml:space="preserve">-->
<!--<svg xmlns="http://www.w3.org/2000/svg" viewBox="0 0 74.3 48.8" width="74.3" height="48.8">-->
<path style="fill:#9F8976;" d="M375.952,240.007c-3.998-19.992-26.656-54.646-79.968-47.981
	c-10.663,1.333-39.984,7.997-39.984,7.997s-29.321-6.665-39.984-7.997c-8.828-1.104-16.757-0.209-24.016-0.166
	c-27.963,0.166-55.952,36.461-55.952,48.147l-7.997,39.983c0,86.632,23.99,109.29,63.974,151.94h127.949
	c39.984-42.65,63.974-65.307,63.974-151.94L375.952,240.007z"/>
<g>
	<path style="fill:#CFB396;" d="M147.991,290.055c-16.001-24.002-27.599-16.001-55.886-16.001
		c-40.003,0-82.674-73.339-80.007-88.007c1.72-9.46,143.893,48.004,143.893,48.004L147.991,290.055z"/>
	<path style="fill:#CFB396;" d="M365.009,290.055c16.001-24.002,27.599-16.001,55.886-16.001c40.003,0,82.674-73.339,80.007-88.007
		c-1.72-9.46-143.893,48.004-143.893,48.004L365.009,290.055z"/>
	
		<ellipse transform="matrix(0.7633 -0.646 0.646 0.7633 -164.2415 190.8819)" style="fill:#CFB396;" cx="178.387" cy="319.591" rx="28.671" ry="41.052"/>
	
		<ellipse transform="matrix(0.7633 0.646 -0.646 0.7633 285.426 -139.8936)" style="fill:#CFB396;" cx="333.634" cy="319.592" rx="28.671" ry="41.052"/>
</g>
<path style="fill:#FFEBD2;" d="M319.975,439.928c0,24.291-33.059,23.991-63.974,23.991s-63.974,0.3-63.974-23.991
	c0-39.317,33.059-71.305,63.974-71.305S319.975,400.611,319.975,439.928z"/>
<path style="fill:#464655;" d="M295.984,424.176c0,21.387-26.734,38.724-39.984,38.724c-13.25,0-39.983-17.337-39.983-38.724
	s17.901-15.489,39.983-15.489C278.082,408.686,295.984,402.789,295.984,424.176z"/>
<path style="fill:#FFDEB7;" d="M303.981,463.919c0,22.083-21.482,39.984-47.981,39.984s-47.981-17.901-47.981-39.984"/>
<path d="M168.035,287.984c-8.821,0-15.997,7.177-15.997,15.997s7.177,15.997,15.997,15.997s15.998-7.177,15.998-15.997
	S176.856,287.984,168.035,287.984z"/>
<path d="M343.966,287.984c-8.821,0-15.998,7.177-15.998,15.997s7.177,15.997,15.998,15.997c8.822,0,15.997-7.177,15.997-15.997
	S352.786,287.984,343.966,287.984z"/>
<path d="M511.774,182.598c-0.485-2.667-2.154-4.971-4.578-6.325c-4.083-2.278-9.167-5.112-73.847,17.813
	c-26.897,9.534-53.156,19.692-59.068,21.992c-3.565-5.37-8.073-10.565-13.564-15.179c9.203-13.882,36.756-23.364,63.46-32.549
	c21.244-7.307,43.211-14.861,60.074-25.542c7.822-4.954,18.886-18.182,24.632-75.61c3.017-30.144,3.077-57.923,3.078-59.091
	c0.004-4.418-3.574-8.004-7.994-8.008c-0.002,0-0.005,0-0.007,0c-4.415,0-7.997,3.577-8.001,7.994c0,0.193-0.03,13.759-1.039,31.887
	c-6.864-15.143-17.833-30.271-35.364-39.035c-3.952-1.977-8.758-0.374-10.734,3.578c-1.976,3.952-0.375,8.758,3.578,10.734
	c33.171,16.585,37.486,65.513,37.894,71.576c-0.239,1.535-0.482,3.013-0.728,4.44c-0.542,0.722-0.976,1.542-1.255,2.455
	c-10.153,33.227-62.885,44.038-101.389,51.931c-11.372,2.331-21.192,4.344-29.178,6.711c-1.206,0.357-2.379,0.729-3.524,1.114
	c4.977-4.565,10.272-9.097,15.523-13.586c20.867-17.842,42.444-36.293,46.147-58.509c0.727-4.358-2.218-8.481-6.577-9.208
	c-4.36-0.724-8.481,2.218-9.208,6.577c-2.745,16.47-22.072,32.997-40.762,48.978c-19.927,17.038-40.441,34.594-45.943,55.577
	c-5.763-0.265-11.894-0.038-18.411,0.778c-9.509,1.188-32.399,6.255-38.992,7.734c-6.594-1.479-29.482-6.546-38.992-7.734
	c-6.686-0.836-12.815-0.636-18.262-0.426c-5.363-21.138-25.995-38.794-46.033-55.928c-18.691-15.981-38.017-32.508-40.762-48.978
	c-0.727-4.359-4.849-7.302-9.208-6.577c-4.358,0.727-7.303,4.848-6.577,9.208c3.703,22.216,25.28,40.666,46.147,58.509
	c5.25,4.49,10.546,9.021,15.523,13.586c-1.145-0.384-2.318-0.756-3.524-1.114c-7.987-2.366-17.806-4.379-29.178-6.711
	c-38.503-7.894-91.237-18.704-101.39-51.931c-0.279-0.913-0.713-1.733-1.255-2.456c-0.246-1.427-0.489-2.906-0.728-4.44
	c0.408-6.069,4.725-54.99,37.893-71.575c3.952-1.976,5.554-6.782,3.578-10.734S56.45-1.03,52.496,0.945
	C34.971,9.708,24.002,24.834,17.138,39.977c-1.007-18.118-1.039-31.692-1.04-31.886c-0.005-4.416-3.585-7.993-8.001-7.993
	c-0.002,0-0.005,0-0.008,0C3.671,0.103,0.093,3.688,0.097,8.106c0.001,1.168,0.062,28.947,3.078,59.091
	c5.747,57.429,16.811,70.656,24.633,75.61c16.864,10.681,38.831,18.236,60.074,25.542c27.411,9.428,55.724,19.168,64.158,33.659
	c-1.564,1.402-2.966,2.746-4.178,3.964c-3.132,3.151-6.273,6.752-9.102,10.51c-2.568-1.003-30.965-12.068-60.109-22.398
	c-64.679-22.925-69.762-20.091-73.847-17.813c-2.424,1.353-4.093,3.657-4.578,6.325c-2.351,12.935,14.065,42.356,30.624,62.195
	c13.402,16.058,34.209,35.201,57.217,35.201c11.246,0,20.018-2.483,26.422-4.296c1.738-0.492,3.752-1.062,5.237-1.379
	c0.168,1.12,0.323,2.902,0.323,5.671c0,40.812,5.163,69.745,16.74,93.812c10.865,22.588,26.194,38.902,45.602,59.557l1.778,1.894
	c-0.089,1.545-0.146,3.101-0.146,4.674c0,8.298,3.04,18.701,16.028,25.155c0.726,25.922,25.534,46.821,55.947,46.821
	c30.414,0,55.222-20.899,55.947-46.822c12.988-6.455,16.028-16.855,16.028-25.154c0-1.573-0.056-3.129-0.146-4.674l1.778-1.894
	c19.408-20.655,34.737-36.969,45.602-59.557c11.577-24.067,16.74-52.999,16.74-93.812c0-2.77,0.155-4.552,0.323-5.671
	c1.485,0.316,3.5,0.887,5.237,1.379c6.405,1.813,15.177,4.296,26.422,4.296c23.008,0,43.815-19.143,57.217-35.201
	C497.709,224.954,514.125,195.533,511.774,182.598z M362.291,167.71c7.327-2.171,16.835-4.12,27.845-6.378
	c4.448-0.912,9.07-1.86,13.793-2.874c-24.604,8.791-46.357,18.255-56.529,33.576c-4.57-2.361-9.584-4.34-15.048-5.824
	C336.969,180.357,345.848,172.582,362.291,167.71z M108.129,158.458c4.723,1.014,9.346,1.962,13.794,2.874
	c11.01,2.257,20.519,4.206,27.845,6.378c16.141,4.782,24.965,12.273,29.65,18.078c-5.239,1.552-10.128,3.912-14.526,6.593
	C154.818,176.853,132.918,167.315,108.129,158.458z M256,495.903c-19.425,0-35.65-11.142-39.235-25.854
	c11.556,1.867,24.934,1.871,36.994,1.871h4.482c12.06,0,25.438-0.004,36.994-1.872C291.65,484.761,275.424,495.903,256,495.903z
	 M224.016,424.176c0-2.513,0.309-5.729,1.778-6.784c1.343-0.962,4.323-1.451,8.858-1.451c2.695,0,5.751,0.16,8.989,0.328
	c3.745,0.195,7.991,0.417,12.359,0.417c4.367,0,8.613-0.222,12.358-0.417c3.237-0.168,6.294-0.328,8.989-0.328
	c4.535,0,7.516,0.488,8.859,1.45c1.469,1.053,1.777,4.27,1.777,6.784c0,16.768-23.222,30.724-31.984,30.724
	S224.016,440.944,224.016,424.176z M289.482,454.663c8.316-8.022,14.502-18.541,14.502-30.488c0-24.235-20.049-24.235-26.637-24.235
	c-3.112,0-6.372,0.17-9.823,0.35c-3.724,0.194-7.575,0.395-11.525,0.395c-3.951,0-7.802-0.201-11.525-0.395
	c-3.45-0.18-6.71-0.35-9.822-0.35c-6.589,0-26.638,0-26.638,24.235c0,11.977,6.219,22.519,14.566,30.547
	c-3.228-0.401-6.269-0.937-9.017-1.652c-11.898-3.099-13.538-8.148-13.538-13.143c0-35.651,30.09-63.304,55.974-63.304
	c25.884,0,55.974,27.652,55.974,63.304C311.974,448.774,304.631,452.875,289.482,454.663z M464.435,239.619
	c-14.361,15.718-28.744,24.375-40.501,24.375c-9.024,0-16.254-2.047-22.064-3.691c-7.147-2.022-13.895-3.932-19.608,0.386
	c-5.548,4.196-6.314,11.757-6.314,19.304c0,76.043-18.304,99.894-51.721,135.711c-10.393-32.714-40.636-55.081-68.227-55.081
	s-57.834,22.366-68.227,55.081c-33.418-35.817-51.721-59.668-51.721-135.711c0-7.546-0.765-15.107-6.314-19.304
	c-5.711-4.319-12.461-2.408-19.608-0.386c-5.809,1.645-13.04,3.691-22.064,3.691c-11.756,0-26.14-8.657-40.501-24.375
	c-16.203-17.734-26.723-37.66-30.274-48.023c18.544,3.855,68.114,21.259,113.107,38.801c-1.478,3.451-2.351,6.734-2.351,9.61
	c0,4.418,3.582,8.006,8.001,8.006s8.001-3.577,8.001-7.996c0.214-7.001,23.142-38.837,46.726-40.096
	c0.407,0.064,0.82,0.105,1.243,0.105c0.173,0,0.348-0.006,0.523-0.017c0.419-0.027,0.824-0.095,1.222-0.183
	c1.676-0.035,3.361-0.09,5.009-0.154c5.223-0.202,10.623-0.412,16.251,0.292c10.147,1.269,38.914,7.794,39.203,7.86
	c0.053,0.012,0.106,0.017,0.16,0.028c0.154,0.032,0.31,0.058,0.466,0.081c0.11,0.016,0.219,0.031,0.328,0.042
	c0.148,0.015,0.297,0.025,0.447,0.032c0.123,0.006,0.245,0.011,0.366,0.011c0.132,0,0.264-0.005,0.397-0.012
	c0.141-0.006,0.279-0.016,0.418-0.03c0.117-0.012,0.234-0.028,0.351-0.045c0.151-0.022,0.3-0.047,0.449-0.078
	c0.055-0.011,0.11-0.016,0.165-0.029c0.29-0.066,29.052-6.591,39.203-7.86c7.307-0.914,14.167-1.012,20.585-0.339
	c0.13,0.042,0.259,0.089,0.392,0.125c0.001,0,0.002,0,0.003,0.001c0.006,0.001,0.012,0.002,0.018,0.003
	c0.294,0.078,0.596,0.136,0.903,0.18c0.11,0.017,0.22,0.027,0.331,0.038c0.104,0.011,0.206,0.029,0.311,0.036
	c0.158,0.01,0.315,0.015,0.473,0.016c0.016,0,0.032,0.003,0.047,0.003c0.013,0,0.025-0.003,0.039-0.003
	c0.164,0,0.326-0.013,0.488-0.023c11.087,1.63,20.755,5.71,28.877,12.25c11.248,9.057,17.016,21.087,18.664,29.324
	c0.761,3.803,4.101,6.434,7.837,6.434c0.52,0,1.048-0.051,1.577-0.157c4.333-0.867,7.143-5.081,6.277-9.415
	c-0.518-2.588-1.271-5.279-2.257-8.018c44.991-17.544,94.575-34.955,113.144-38.82C491.124,202.022,480.613,221.912,464.435,239.619
	z"/>
</svg>