<?xml version="1.0" encoding="UTF-8"?><svg id="b" xmlns="http://www.w3.org/2000/svg" viewBox="0 0 1351.6 1642.3"><g id="c"><path d="m1287.2,531.6c-28.6-28.7-66.7-44.4-107.3-44.4s-58,8.4-82.3,24.2c-16.9-65.2-76.4-113.6-146.8-113.6h-1.6c-30,0-58.8,8.7-83.4,24.9-18.3-63.1-76.7-109.4-145.7-109.4h-1.6c-27.7,0-54,7.6-76.6,20.9v-162.5c0-83.6-68-151.7-151.7-151.7s-151.7,68-151.7,151.7v586.7l-59.9-59.9c-59.1-59.1-155.4-59.1-214.5,0-52.9,52.9-59.1,138-14.4,197.8l.3.4c12.8,17.2,26.1,35,38.1,52.7l298.6,438.1c26.7,39.2,40.8,85,40.8,132.4v40.1c0,34.4,28,62.3,62.3,62.3h662.3c34.4,0,62.3-28,62.3-62.3v-116.6c0-21.6,3.9-42.7,11.7-62.8l36.7-104.5c17.2-49,36.7-97.6,53.7-139.3,9.9-24.3,14.9-50,14.9-76.2v-421.9c0-40.5-15.8-78.6-44.4-107.2Zm-29.8,529.1c0,16.6-3.2,32.8-9.4,48.2-17.3,42.5-37.3,92.1-55,142.7l-36.1,102.9c-10.9,28.5-16.4,58.4-16.4,88.9v104.6H502v-28.1c0-62.4-18.6-122.6-53.7-174.2l-298.6-438.1c-13-19-26.7-37.4-40-55.2l-.3-.4c-22.8-30.5-19.6-73.9,7.4-100.9,30.2-30.2,79.3-30.2,109.5,0l186.6,186.6V172.7c0-42.6,34-78,76.7-78.4,43-.4,78.2,34.5,78.2,77.4v552.8l74-.2.2-10.5c0-15.5,0-48.2.1-119.3,0-60.6,0-128.6.1-142.2,6.1-37.1,38.5-64.8,76.4-64.8h1.6c42.8,0,77.4,34.7,77.4,77.4v292.5h74.3v-.3c0-12.9,0-200,0-210.3,1.4-42,35.3-74.8,77.4-74.8h1.6c42.8,0,77.4,34.7,77.4,77.4v263.2h74.3c0-5.4,0-167.7,0-175.7,1-41.7,35.6-75.6,77.4-75.6s40.1,8,54.8,22.7c14.6,14.6,22.7,34,22.7,54.7v421.9Z" style="stroke:#000; stroke-linejoin:round; stroke-width:40px;"/></g></svg>