<svg xmlns="http://www.w3.org/2000/svg" viewBox="0 0 124.8 110.5" fill="currentColor">
  <g>
    <rect x="-31.4" y="66.4" width="75.5" height="12.7" transform="translate(-66.4 79.1) rotate(-90)" />
    <rect x="74.2" y="84.1" width="40.4" height="12.3" transform="translate(4.1 184.6) rotate(-90)" />
    <rect x="12.7" y="66.4" width="75.5" height="12.7" transform="translate(-22.3 123.2) rotate(-90)" />
    <rect x="85.8" y="4.4" width="16.7" height="10.5" />
    <rect x="63.9" y="17.1" width="16.7" height="10.5" transform="translate(16.8 73.7) rotate(-60)" />
    <rect x="63.9" y="42.4" width="16.7" height="10.5" transform="translate(67 134) rotate(-120)" />
    <rect x="85.8" y="55" width="16.7" height="10.5" transform="translate(188.2 120.6) rotate(-180)" />
    <rect x="107.7" y="42.4" width="16.7" height="10.5" transform="translate(215.3 -29) rotate(120)" />
    <rect x="107.7" y="17.1" width="16.7" height="10.5" transform="translate(77.4 -89.3) rotate(60)" />
    <path
      d="m94.1,11.6c-12.9,0-23.4,10.5-23.4,23.4s10.5,23.4,23.4,23.4,23.4-10.5,23.4-23.4-10.5-23.4-23.4-23.4Zm0,35.3c-6.6,0-11.9-5.3-11.9-11.9s5.3-11.9,11.9-11.9,11.9,5.3,11.9,11.9-5.3,11.9-11.9,11.9Z" />
    <path d="m85.8,0H0v27.3h60.2c2.3-13.7,11.7-24.5,25.6-27.3Z" />
  </g>
</svg>