<svg xmlns="http://www.w3.org/2000/svg" viewBox="0 0 146.3 129.6" fill="currentColor">
  <rect x="-20.6" y="75.9" width="75.5" height="12.7" transform="translate(-65.2 99.4) rotate(-90)" />
  <rect x="84.9" y="93.7" width="40.4" height="12.3" transform="translate(5.3 204.9) rotate(-90)" />
  <rect x="23.5" y="75.9" width="75.5" height="12.7" transform="translate(-21.1 143.5) rotate(-90)" />
  <path
    d="m128.3,44.5c0-1.3-.1-2.5-.3-3.7l7.6-4.4-8.3-14.4-7.6,4.4c-1.9-1.6-4.1-2.8-6.4-3.7v-8.7h-16.7v8.7c-2.3.9-4.5,2.2-6.4,3.7l-7.6-4.4-8.3,14.4,7.6,4.4c-.2,1.2-.3,2.5-.3,3.7s.1,2.5.3,3.7l-7.6,4.4,8.3,14.4,7.6-4.4c1.9,1.6,4.1,2.8,6.4,3.7v8.7h16.7v-8.7c2.3-.9,4.5-2.2,6.4-3.7l7.6,4.4,8.3-14.4-7.6-4.4c.2-1.2.3-2.5.3-3.7Zm-23.4,11.9c-6.6,0-11.9-5.3-11.9-11.9s5.3-11.9,11.9-11.9,11.9,5.3,11.9,11.9-5.3,11.9-11.9,11.9Z" />
  <path d="m96.6,9.5H10.8v27.3h60.2c2.3-13.7,11.7-24.5,25.6-27.3Z" />
</svg>