<svg xmlns="http://www.w3.org/2000/svg" viewBox="0 0 58.7 39.5">
  <title>Fair Slice</title>
  <g>
    <path
      d="m15.6,5.7h-1c-.4-2.7-1.5-4.1-3.5-4.1h-6.5v7.2h3.9c1.2,0,1.8-1.1,2-3.3h.9l-.4,8h-.9c-.2-2.3-.8-3.4-1.8-3.4h-3.7v6.2c0,.7,1,1.1,3,1.1v.8H0v-.8c1.4,0,2.1-.4,2.1-1.1V2.2c0-.7-.7-1.1-2.1-1.1V.3h15.6v5.4Z" />
    <path
      d="m28.2,16.1c0,.7.2,1.1.7,1.1s.4-.1.5-.3c.1-.2.2-.5.2-.7v-1.6h.9v1.4c0,.8-.1,1.4-.4,1.8-.3.4-.8.6-1.6.6s-.7,0-.9-.2c-.3-.1-.5-.3-.6-.6-.2-.2-.3-.5-.3-.8s-.1-.6-.2-.9c-.2.4-.5.7-.8,1-.4.3-.8.6-1.2.9-.5.2-1,.4-1.5.6-.6.1-1.1.2-1.8.2-1.5,0-2.7-.3-3.4-.9-.7-.6-1.1-1.5-1.1-2.6s.1-1.2.4-1.6c.3-.4.7-.8,1.1-1.1.5-.3,1-.5,1.7-.7.6-.2,1.3-.3,2-.5.7-.1,1.4-.3,2.1-.4.7-.1,1.4-.2,2.1-.4v-.7c0-.9-.2-1.7-.7-2.3-.5-.6-1.2-.9-2.3-.9s-1.8.1-2.4.3c-.6.2-1.1.5-1.5.8.3,0,.6.2.8.4.2.2.4.5.4.8s-.1.7-.4,1-.6.4-1.1.4-.8-.1-1.1-.4-.4-.6-.4-1.1.1-.7.4-1.1c.2-.4.6-.7,1.1-1s1-.6,1.7-.8c.7-.2,1.5-.3,2.4-.3s1.4,0,2.1.2c.6.1,1.2.4,1.7.7.5.3.8.8,1.1,1.3.3.6.4,1.3.4,2.1v6.3Zm-2.2-4.9c-1.3.3-2.4.5-3.3.7-.9.2-1.7.5-2.3.8-.6.3-1,.6-1.3.9-.3.4-.4.8-.4,1.3,0,.7.3,1.3.8,1.6.5.4,1.3.5,2.2.5s1,0,1.4-.2c.4-.1.8-.3,1.2-.5.4-.2.7-.4,1-.7.3-.2.5-.5.6-.7v-3.9Z" />
    <path
      d="m36.3,16.2c0,.4.2.6.5.8.4.2.9.3,1.6.3v.8h-6.4v-.8c1.4,0,2.1-.4,2.1-1.1V7.8c0-.7-.7-1.1-2.1-1.1v-.8h4.3v10.3Zm.4-14.5c0,.5-.2.9-.5,1.2s-.7.5-1.2.5-.9-.2-1.2-.5-.5-.7-.5-1.2.2-.9.5-1.2.7-.5,1.2-.5.9.2,1.2.5.5.7.5,1.2Z" />
    <path
      d="m44.6,8.2c.5-.9,1.1-1.6,1.8-2,.7-.4,1.4-.6,2.2-.6s.7,0,1,.2c.4.1.7.3,1,.5.3.2.5.5.7.9.2.4.3.8.3,1.3s-.1.9-.4,1.1c-.3.3-.6.4-1.1.4s-.8-.1-1.1-.4c-.2-.3-.4-.6-.4-.9s.1-.7.4-.9c.3-.2.7-.3,1.2-.3-.1-.3-.4-.5-.7-.6-.3-.1-.7-.2-1.1-.2s-.6,0-.9.1c-.3,0-.6.3-1,.5-.3.3-.7.6-1,1.1-.3.5-.7,1-1,1.7v6c0,.7.8,1.1,2.4,1.1v.8h-6.7v-.8c1.4,0,2.1-.4,2.1-1.1V7.8c0-.7-.7-1.1-2.1-1.1v-.8h4.3v2.3Z" />
    <path
      d="m13.9,27.7l-1,.2c0-.9-.3-1.8-.6-2.5-.4-.7-.8-1.3-1.4-1.8-.6-.5-1.2-.8-1.9-1.1-.7-.2-1.5-.3-2.3-.3s-1.6,0-2.2.2c-.6.2-1.1.4-1.4.6-.4.3-.6.6-.8,1s-.2.8-.2,1.3.2,1.1.5,1.5c.4.4.8.7,1.4.9.6.2,1.3.4,2,.5.8.1,1.5.3,2.3.4.8.1,1.6.3,2.3.5.8.2,1.4.5,2,.9s1.1.9,1.4,1.5c.4.6.5,1.4.5,2.3s-.2,1.8-.5,2.5-.8,1.3-1.4,1.7c-.6.4-1.3.8-2.2,1-.9.2-1.8.3-2.9.3s-1.8-.1-2.6-.4-1.5-.6-2.2-1.1c-.3-.2-.5-.3-.7-.3s-.4,0-.5.2c-.1.1-.2.3-.3.5l-.3.7H0v-6.8h1c0,.7.3,1.5.6,2.2.4.7.8,1.3,1.4,1.9.6.5,1.3.9,2.1,1.2s1.7.5,2.7.5c3.3,0,4.9-1.2,4.9-3.6s-.2-1.2-.5-1.6c-.4-.4-.8-.7-1.4-.9s-1.3-.4-2-.5c-.8-.1-1.5-.2-2.3-.4s-1.6-.3-2.3-.5c-.8-.2-1.4-.5-2-.9-.6-.4-1.1-.9-1.4-1.6-.4-.6-.5-1.5-.5-2.5s0-1.2.3-1.7c.2-.6.5-1.1,1-1.6.5-.5,1.1-.8,1.9-1.1.8-.3,1.8-.4,3-.4s1.8.1,2.5.3c.7.2,1.4.5,2.1.9.3.2.6.3.9.3s.6-.2.8-.5l.4-.6h.7v6.5Z" />
    <path d="m20.7,37.2c0,.7.7,1.1,2.1,1.1v.8h-6.4v-.8c1.4,0,2.1-.4,2.1-1.1v-14.7c0-.7-.7-1.1-2.1-1.1v-.8h4.3v16.5Z" />
    <path
      d="m29,37.2c0,.4.2.6.5.8.4.2.9.3,1.6.3v.8h-6.4v-.8c1.4,0,2.1-.4,2.1-1.1v-8.4c0-.7-.7-1.1-2.1-1.1v-.8h4.3v10.3Zm.4-14.5c0,.5-.2.9-.5,1.2s-.7.5-1.2.5-.9-.2-1.2-.5-.5-.7-.5-1.2.2-.9.5-1.2.7-.5,1.2-.5.9.2,1.2.5.5.7.5,1.2Z" />
    <path
      d="m44.5,34.9c0,.6-.3,1.1-.5,1.7-.2.6-.6,1-1,1.5-.4.4-1,.8-1.6,1-.6.3-1.4.4-2.2.4s-1.7-.1-2.5-.4c-.7-.3-1.4-.7-1.9-1.2-.5-.5-1-1.2-1.3-2-.3-.8-.5-1.7-.5-2.8s.2-2.1.5-3c.3-.8.8-1.6,1.3-2.1.6-.6,1.3-1,2-1.3.8-.3,1.6-.4,2.5-.4s1.4,0,2,.3c.6.2,1.1.4,1.6.8.4.3.8.7,1,1,.2.4.4.7.4,1.1s-.1.8-.4,1.1-.6.4-1.1.4-.8-.1-1.1-.4c-.3-.3-.4-.6-.4-1s.1-.6.4-.8c.2-.2.5-.3.9-.4-.3-.3-.7-.6-1.2-.8-.5-.2-1.1-.3-2-.3-2.9,0-4.3,1.8-4.3,5.4s.1,1.9.3,2.6.5,1.3.9,1.8c.4.5.8.8,1.3,1,.5.2,1,.3,1.6.3s.9,0,1.4-.2.9-.4,1.2-.6c.4-.3.7-.7.9-1.2.3-.5.5-1.1.6-1.7l1,.2Z" />
    <path
      d="m48.7,32.6c0,1.8.3,3.3,1,4.3.7,1.1,1.7,1.6,3,1.6s2-.2,2.8-.7,1.4-1.3,1.7-2.5l1,.4c-.2.5-.4,1-.7,1.5-.3.5-.6.9-1.1,1.2-.4.4-1,.6-1.6.9-.6.2-1.3.3-2.1.3s-1.5,0-2.2-.3c-.7-.2-1.4-.5-2-1-.6-.5-1.1-1.2-1.5-2-.4-.8-.6-1.9-.6-3.2s.1-1.8.4-2.7c.3-.8.7-1.5,1.2-2.1.5-.6,1.2-1,2-1.4s1.7-.5,2.7-.5c1.9,0,3.3.5,4.3,1.6s1.5,2.6,1.5,4.6h-10Zm7.7-.9c0-1.3-.3-2.3-.9-3.1-.6-.8-1.5-1.2-2.7-1.2s-1,0-1.5.2c-.5.2-.9.4-1.2.7s-.7.8-.9,1.3-.4,1.2-.5,2h7.7Z" />
  </g>
</svg>