<?xml version="1.0" encoding="UTF-8"?><svg id="b" xmlns="http://www.w3.org/2000/svg" viewBox="0 0 161.3 153.7"><rect x=".5" y="93.7" width="160.3" height="4.9" style="fill:#faf4ed;"/><rect x=".5" y="93.7" width="160.3" height="4.9" style="fill:none; stroke:#525243; stroke-miterlimit:10;"/><rect x=".5" y="98.6" width="160.3" height="24.5" style="fill:#f4dba8;"/><rect x=".5" y="98.6" width="160.3" height="24.5" style="fill:none; stroke:#525243; stroke-miterlimit:10;"/><rect x=".5" y="123.1" width="160.3" height="4.9" style="fill:#faf4ed;"/><rect x=".5" y="123.1" width="160.3" height="4.9" style="fill:none; stroke:#525243; stroke-miterlimit:10;"/><rect x=".5" y="128" width="160.3" height="25.1" style="fill:#f4dba8;"/><rect x=".5" y="128" width="160.3" height="25.1" style="fill:none; stroke:#525243; stroke-miterlimit:10;"/><path d="m160.8,72.6v21.1H.5v-21.1c20,0,20-20,40.1-20s20,20,40.1,20,20-20,40.1-20,20,20,40.1,20Z" style="fill:#f4dba8; stroke:#525243; stroke-miterlimit:10;"/><path d="m160.8,31.9v40.7c-20,0-20-20-40.1-20s-20,20-40.1,20-20-20-40.1-20S20.5,72.6.5,72.6V31.9h160.3Z" style="fill:#faf4ed; stroke:#525243; stroke-miterlimit:10;"/><path d="m64.5,40.9s-13.2-2-13.2-15.5S71.1,6.6,69,.5c5.5,7.2,12.7,7.2,23.1,8.7,18.4,3.9,16.3,26.8,3.1,31.3,0,0-30.7.5-30.7.5Z" style="fill:#fff; stroke:#525243; stroke-linecap:round; stroke-linejoin:round;"/></svg>