<?xml version="1.0" encoding="UTF-8"?><svg id="b" xmlns="http://www.w3.org/2000/svg" xmlns:xlink="http://www.w3.org/1999/xlink" viewBox="0 0 161.4 153.6"><defs><radialGradient id="c" cx="23.1" cy="106.9" fx="23.1" fy="106.9" r="18.4" gradientUnits="userSpaceOnUse"><stop offset="0" stop-color="#f9d9be"/><stop offset=".1" stop-color="#fab9a6"/><stop offset=".2" stop-color="#fab1a0"/><stop offset=".4" stop-color="#fa9c90"/><stop offset=".6" stop-color="#fb7977"/><stop offset=".7" stop-color="#fd4954"/><stop offset="1" stop-color="#fe0c28"/><stop offset="1" stop-color="#ff001f"/></radialGradient><radialGradient id="d" cx="79.4" fx="79.4" r="18.4" xlink:href="#c"/><radialGradient id="e" cx="135.7" fx="135.7" r="18.4" xlink:href="#c"/><radialGradient id="f" cx="23.1" cy="138.3" fx="23.1" fy="138.3" r="18.4" xlink:href="#c"/><radialGradient id="g" cx="79.4" cy="138.3" fx="79.4" fy="138.3" r="18.4" xlink:href="#c"/><radialGradient id="h" cx="135.7" cy="138.3" fx="135.7" fy="138.3" r="18.4" xlink:href="#c"/></defs><rect x=".5" y="87.5" width="160.3" height="20.1" style="fill:#faf4ed;"/><rect x=".5" y="87.5" width="160.3" height="20.1" style="fill:none; stroke:#940818; stroke-miterlimit:10;"/><path d="m160.9,70.2v17.2H.5v-17.2c20,0,20-16.3,40.1-16.3s20,16.3,40.1,16.3,20-16.3,40.1-16.3,20,16.3,40.1,16.3Z" style="fill:#f4dba8; stroke:#940818; stroke-miterlimit:10;"/><path d="m160.8,31.9v42.1c-20,0-20-20-40.1-20s-20,20-40.1,20-20-20-40.1-20S20.5,74,.5,74V31.9s160.3,0,160.3,0Z" style="fill:#f81a62; stroke:#940818; stroke-miterlimit:10;"/><path d="m39.2,107.2c0-7.2-17.3-17.9-22.3-18.1s-8.8,5-9,8.8c-.2,5,2.8,7.9,2.7,9.3" style="fill:url(#c); stroke:#940818; stroke-miterlimit:10;"/><path d="m95.5,107.2c0-7.2-17.3-17.9-22.3-18.1s-8.8,5-9,8.8c-.2,5,2.8,7.9,2.7,9.3" style="fill:url(#d); stroke:#940818; stroke-miterlimit:10;"/><path d="m151.8,107.2c0-7.2-17.3-17.9-22.3-18.1s-8.8,5-9,8.8c-.2,5,2.8,7.9,2.7,9.3" style="fill:url(#e); stroke:#940818; stroke-miterlimit:10;"/><rect x=".5" y="118.8" width="160.3" height="19.5" style="fill:#faf4ed;"/><rect x=".5" y="118.8" width="160.3" height="19.5" style="fill:none; stroke:#940818; stroke-miterlimit:10;"/><path d="m39.2,138.6c0-7.2-17.3-17.9-22.3-18.1s-8.8,5-9,8.8c-.2,5,2.8,7.9,2.7,9.3" style="fill:url(#f); stroke:#940818; stroke-miterlimit:10;"/><path d="m95.5,138.6c0-7.2-17.3-17.9-22.3-18.1s-8.8,5-9,8.8c-.2,5,2.8,7.9,2.7,9.3" style="fill:url(#g); stroke:#940818; stroke-miterlimit:10;"/><path d="m151.8,138.6c0-7.2-17.3-17.9-22.3-18.1s-8.8,5-9,8.8c-.2,5,2.8,7.9,2.7,9.3" style="fill:url(#h); stroke:#940818; stroke-miterlimit:10;"/><rect x=".5" y="138.4" width="160.3" height="14.7" style="fill:#f4dba8;"/><rect x=".5" y="138.4" width="160.3" height="14.7" style="fill:none; stroke:#940818; stroke-miterlimit:10;"/><rect x=".5" y="107.6" width="160.3" height="11.3" style="fill:#f4dba8;"/><rect x=".5" y="107.6" width="160.3" height="11.3" style="fill:none; stroke:#940818; stroke-miterlimit:10;"/><polyline points="80.1 15.3 81.3 10.2 83.9 14.5 91.4 10.2 90.2 17.9 98.3 17.9 93.9 23 100 26.5 93.9 27.8" style="fill:#00bd05; stroke:#940818; stroke-linecap:round; stroke-linejoin:round; stroke-width:.8px;"/><path d="m93.5,34.4c-.9,2.5-2.8,4.5-5.3,6.2h-12.1c0,0-1.5,0-1.5,0h-2.9s-1.5,0-1.5,0h-7.5s0,0,0,0c-4.1-7.7,3.6-23.1,13.5-25,1.3-.2,2.7-.3,4-.2,6.8.6,12.8,5.8,13.9,12.4.4,2.1.2,4.4-.6,6.7Z" style="fill:#fa003e; stroke:#940818; stroke-miterlimit:10;"/><ellipse cx="84.4" cy="33.5" rx="1" ry=".7" transform="translate(11.3 87.5) rotate(-58.1)" style="fill:#fbc5a5;"/><ellipse cx="78.5" cy="31.1" rx="1" ry=".7" transform="translate(10.6 81.3) rotate(-58.1)" style="fill:#fbc5a5;"/><ellipse cx="79.5" cy="35.3" rx="1" ry=".7" transform="translate(7.5 84.1) rotate(-58.1)" style="fill:#fbc5a5;"/><ellipse cx="87.5" cy="38.4" rx="1" ry=".7" transform="translate(8.6 92.4) rotate(-58.1)" style="fill:#fbc5a5;"/><ellipse cx="71.7" cy="20" rx="1" ry=".7" transform="translate(16.8 70.3) rotate(-58.1)" style="fill:#fbc5a5;"/><ellipse cx="81.8" cy="19.6" rx="1" ry=".7" transform="translate(22 78.7) rotate(-58.1)" style="fill:#fbc5a5;"/><ellipse cx="83.2" cy="28.9" rx="1" ry=".7" transform="translate(14.7 84.2) rotate(-58.1)" style="fill:#fbc5a5;"/><ellipse cx="74.7" cy="29.3" rx="1" ry=".7" transform="translate(10.4 77.2) rotate(-58.1)" style="fill:#fbc5a5;"/><ellipse cx="78.3" cy="23.9" rx="1" ry=".7" transform="translate(16.7 77.7) rotate(-58.1)" style="fill:#fbc5a5;"/><ellipse cx="68.7" cy="29.8" rx="1" ry=".7" transform="translate(7.1 72.4) rotate(-58.1)" style="fill:#fbc5a5;"/><ellipse cx="73.8" cy="36.2" rx="1" ry=".7" transform="translate(4 79.7) rotate(-58.1)" style="fill:#fbc5a5;"/><ellipse cx="81.5" cy="38.9" rx="1" ry=".7" transform="translate(5.5 87.5) rotate(-58.1)" style="fill:#fbc5a5;"/><ellipse cx="69.5" cy="34.4" rx="1" ry=".7" transform="translate(3.5 75.2) rotate(-58.1)" style="fill:#fbc5a5;"/><ellipse cx="71.7" cy="25" rx="1" ry=".7" transform="translate(12.6 72.6) rotate(-58.1)" style="fill:#fbc5a5;"/><ellipse cx="83.2" cy="24" rx="1" ry=".7" transform="translate(18.8 81.9) rotate(-58.1)" style="fill:#fbc5a5;"/><ellipse cx="89.8" cy="27.5" rx="1" ry=".7" transform="translate(18.9 89.2) rotate(-58.1)" style="fill:#fbc5a5;"/><ellipse cx="88.3" cy="33.3" rx="1" ry=".7" transform="translate(13.4 90.7) rotate(-58.1)" style="fill:#fbc5a5;"/><ellipse cx="87.5" cy="23.6" rx="1" ry=".7" transform="translate(21.2 85.4) rotate(-58.1)" style="fill:#fbc5a5;"/><ellipse cx="76.4" cy="19.9" rx="1" ry=".7" transform="translate(19.2 74.2) rotate(-58.1)" style="fill:#fbc5a5;"/><ellipse cx="67" cy="26.3" rx="1" ry=".7" transform="translate(9.3 69.2) rotate(-58.1)" style="fill:#fbc5a5;"/><ellipse cx="64.8" cy="31.7" rx="1" ry=".7" transform="translate(3.6 70) rotate(-58.1)" style="fill:#fbc5a5;"/><ellipse cx="65.6" cy="36.2" rx="1" ry=".7" transform="translate(.2 72.8) rotate(-58.1)" style="fill:#fbc5a5;"/></svg>