<?xml version="1.0" encoding="UTF-8"?><svg id="b" xmlns="http://www.w3.org/2000/svg" viewBox="0 0 161.3 152.8"><rect x=".5" y="92.9" width="160.3" height="4.9" style="fill:#f7e8c2;"/><rect x=".5" y="92.9" width="160.3" height="4.9" style="fill:none; stroke:#4d2001; stroke-miterlimit:10;"/><rect x=".5" y="97.8" width="160.3" height="24.5" style="fill:#441d0e;"/><rect x=".5" y="97.8" width="160.3" height="24.5" style="fill:none; stroke:#4d2001; stroke-miterlimit:10;"/><rect x=".5" y="122.3" width="160.3" height="4.9" style="fill:#f7e8c2;"/><rect x=".5" y="122.3" width="160.3" height="4.9" style="fill:none; stroke:#4d2001; stroke-miterlimit:10;"/><rect x=".5" y="127.2" width="160.3" height="25.1" style="fill:#441d0e;"/><rect x=".5" y="127.2" width="160.3" height="25.1" style="fill:none; stroke:#4d2001; stroke-miterlimit:10;"/><path d="m160.8,71.8v21.1H.5v-21.1c20,0,20-20,40.1-20s20,20,40.1,20,20-20,40.1-20,20,20,40.1,20Z" style="fill:#441d0e; stroke:#4d2001; stroke-miterlimit:10;"/><path d="m160.8,31.1v40.7c-20,0-20-20-40.1-20s-20,20-40.1,20-20-20-40.1-20S20.5,71.8.5,71.8V31.1h160.3Z" style="fill:#af5b3b; stroke:#4d2001; stroke-miterlimit:10;"/><path d="m25.9,35.8c0,1.6-.6,3.1-1.6,4.3h-10c-1-1.1-1.6-2.7-1.6-4.3,0-3.7,3-6.6,6.6-6.6s6.6,3,6.6,6.6Z" style="fill:#fff; stroke:#525243; stroke-linecap:round; stroke-linejoin:round;"/><path d="m52.3,35.8c0,1.6-.6,3.1-1.6,4.3h-10c-1-1.1-1.6-2.7-1.6-4.3,0-3.7,3-6.6,6.6-6.6s6.6,3,6.6,6.6Z" style="fill:#fff; stroke:#525243; stroke-linecap:round; stroke-linejoin:round;"/><path d="m122.3,35.8c0,1.6-.6,3.1-1.6,4.3h-10c-1-1.1-1.6-2.7-1.6-4.3,0-3.7,3-6.6,6.6-6.6s6.6,3,6.6,6.6Z" style="fill:#fff; stroke:#525243; stroke-linecap:round; stroke-linejoin:round;"/><path d="m148.7,35.8c0,1.6-.6,3.1-1.6,4.3h-10.1c-1-1.1-1.6-2.7-1.6-4.3,0-3.7,3-6.6,6.6-6.6s6.6,3,6.6,6.6Z" style="fill:#fff; stroke:#525243; stroke-linecap:round; stroke-linejoin:round;"/><path d="m95.6,28.3c-2.1,4.4-4.7,8.2-7.5,11h-5c0,0,0,0,0,0l-10.3-.2c-1.2-4.9,0-12.3,3.6-19.8,5.3-11.2,13.9-18.3,19.2-15.8,0,0,0,0,.1,0,5.2,2.6,5.1,13.7-.2,24.8Z" style="fill:#441d0e; stroke:#4d2001; stroke-miterlimit:10;"/><path d="m93.2,25.9c-2.8,5.8-6.4,10.5-10,13.3h0l-10.3-.2h-1.5c-2.4-4.6-1.5-13.4,2.7-22.3,5.3-11.2,13.9-18.3,19.2-15.8,1.1.5,1.9,1.3,2.5,2.5,2.5,4.5,1.6,13.4-2.6,22.4Z" style="fill:#441d0e; stroke:#4d2001; stroke-miterlimit:10;"/></svg>