<svg xmlns="http://www.w3.org/2000/svg" viewBox="0 0 114.1 124.5">
  <g>
    <path d="m114.1,16.1c-.4,9,0,45.9,0,60.7l-76.6,47.7c-20-5-33.8-15.3-33.8-27.2v-56.3l110.5-24.9Z"
      style="fill:#6e3700; " />
    <path
      d="m36.5,64.2l.8,52.4c-.3,0-.6-.1-.9-.3-1.5-.7-2.5-2.1-2.5-3.9v-27.3c0-2.3-1.9-4.2-4.2-4.2s-4.2,1.9-4.2,4.2v20.4c0,2.3-1.9,4.2-4.2,4.2s-4.2-1.9-4.2-4.2v-13.8c0-2.3-1.9-4.2-4.2-4.2s-4.2,1.9-4.2,4.2-1.9,4.2-4.2,4.2-4.2-1.9-4.2-4.2v-54.5h0C.9,20.2,28.9,6.4,63.4,6.4s36.6,4.3,48.2,11.1l-75.2,46.7Z"
      style="fill:#592401; " />
    <path
      d="m114.1,16.1c-12.3,6.7-61,38.3-74.5,46.4h0c-.5.3-.9.5-1.3.8-.8.4-1.3.8-1.7,1h0C15.4,59.2.9,48.3.9,35.8S29.3,4.1,64.3,4.1s38.1,4.7,49.7,12Z"
      style="fill:#6f3512; " />
    <path d="m113.6,16.3c-11.3-7.5-29.1-12.3-49.3-12.3C30.2,4.1,2.6,17.9,2.6,34.9s14.9,23.2,36.2,28.1"
      style="fill:#692b03; " />
    <path d="m70.7,6.3c0,3.5-2.8,6.3-6.3,6.3s-6.3-2.8-6.3-6.3,2.8-6.3,6.3-6.3,6.3,2.8,6.3,6.3h0Z"
      style="fill:#d40031; " />
    <path d="m68.9,5c-.5.5-1.6.2-2.5-.7-.9-.9-1.2-2-.7-2.5.5-.5,1.6-.2,2.5.7.9.9,1.2,2,.7,2.5h0Z"
      style="fill:#e4607f; " />
    <path d="m38.9,11.1c0,3.5-2.8,6.3-6.3,6.3s-6.3-2.8-6.3-6.3,2.8-6.3,6.3-6.3,6.3,2.8,6.3,6.3h0Z"
      style="fill:#d40031; " />
    <path d="m37.2,9.8c-.5.5-1.6.2-2.5-.7-.9-.9-1.2-2-.7-2.5.5-.5,1.6-.2,2.5.7.9.9,1.2,2,.7,2.5h0Z"
      style="fill:#e4607f; " />
    <path d="m102.4,11.1c0,3.5-2.8,6.3-6.3,6.3s-6.3-2.8-6.3-6.3,2.8-6.3,6.3-6.3,6.3,2.8,6.3,6.3h0Z"
      style="fill:#d40031; " />
    <path d="m100.7,9.8c-.5.5-1.6.2-2.5-.7-.9-.9-1.2-2-.7-2.5.5-.5,1.6-.2,2.5.7.9.9,1.2,2,.7,2.5h0Z"
      style="fill:#e4607f; " />
    <path d="m38.9,50.4c0,3.5-2.8,6.3-6.3,6.3s-6.3-2.8-6.3-6.3,2.8-6.3,6.3-6.3,6.3,2.8,6.3,6.3h0Z"
      style="fill:#d40031; " />
    <path d="m37.2,49.1c-.5.5-1.6.2-2.5-.7-.9-.9-1.2-2-.7-2.5.5-.5,1.6-.2,2.5.7.9.9,1.2,2,.7,2.5h0Z"
      style="fill:#e4607f; " />
    <path d="m19.4,31.4c0,3.5-2.8,6.3-6.3,6.3s-6.3-2.8-6.3-6.3,2.8-6.3,6.3-6.3,6.3,2.8,6.3,6.3h0Z"
      style="fill:#d40031; " />
    <path d="m17.6,30.1c-.5.5-1.6.2-2.5-.7-.9-.9-1.2-2-.7-2.5.5-.5,1.6-.2,2.5.7.9.9,1.2,2,.7,2.5h0Z"
      style="fill:#e4607f; " />
    <polygon points="114.1 76.8 38.9 123.3 38.9 64.3 113.6 18.1 114.1 76.8" style="fill:#c69c6d; " />
    <polygon points="113.6 22.1 38.9 68.5 38.9 76.4 113.6 30 113.6 22.1" style="fill:#592401; " />
    <polygon points="113.6 37.1 38.9 83.5 38.9 91.4 113.6 45 113.6 37.1" style="fill:#592401; " />
    <polygon points="113.6 52.1 38.9 98.5 38.9 106.4 113.6 60 113.6 52.1" style="fill:#592401; " />
    <polygon points="113.6 65.1 38.9 111.5 38.9 119.4 113.6 73 113.6 65.1" style="fill:#592401; " />
  </g>
</svg>