<svg xmlns="http://www.w3.org/2000/svg" viewBox="0 0 91.3 111.7">
  <g>
    <path
      d="m89,24.9s0,56.3,0,56.3c1.6,24.8-58.7,36.7-87.7,27.2L.5,48.2c10.1-7.3,35.5-22.2,35.9-22.4,0,0,52.7-.8,52.7-.8Z"
      style="fill:#6e3700; " />
    <path
      d="m90.8,22v54.4c0,2.3-1.9,4.2-4.2,4.2s-4.2-1.9-4.2-4.2v-4.9c0-2.3-1.9-4.2-4.2-4.2s-4.2,1.9-4.2,4.2v14.1c0,2.3-1.9,4.2-4.2,4.2s-4.2-1.9-4.2-4.2v-18.7c0-2.3-1.9-4.2-4.2-4.2s-4.2,1.9-4.2,4.2v18.9c0,2.3-1.9,4.2-4.2,4.2s-4.2-1.9-4.2-4.2v-5.8c0-2.3-1.9-4.2-4.2-4.2s-4.2,1.9-4.2,4.2v22.3c0,2.3-1.9,4.2-4.2,4.2s-4.2-1.9-4.2-4.2v-27.5c0-2.3-1.9-4.2-4.2-4.2s-4.2,1.9-4.2,4.2v18.8c0,2.3-1.9,4.2-4.2,4.2s-4.2-1.9-4.2-4.2v-9c0-2.3-1.9-4.2-4.2-4.2s-4.2,1.9-4.2,4.2v11.7c0,2.3-1.9,4.2-4.2,4.2s-.5,0-.8,0L.5,48.2,75.6,1.5c.5.3,1,.6,1.5.9,8.6,5.4,13.7,12.2,13.7,19.7Z"
      style="fill:#592401; " />
    <path
      d="m91.3,19.7c0,17.5-28.4,31.7-63.4,31.7s-19.4-1.1-27.8-3.2h0c.4-.3.9-.6,1.7-1,.4-.2.8-.5,1.3-.8h0C16.6,38.4,65.6,7.1,77.6,0c8.6,5.4,13.7,12.2,13.7,19.7Z"
      style="fill:#6f3512; " />
    <path d="m2.1,46.8c7.8,1.8,16.4,2.8,25.5,2.8,34.1,0,61.7-13.8,61.7-30.9S84.8,5.3,76.9.1C63.5,7.5,6.9,44.2,2.1,46.8Z"
      style="fill:#692b03; " />
    <path d="m68.5,36.3c0,3.5-2.8,6.3-6.3,6.3s-6.3-2.8-6.3-6.3,2.8-6.3,6.3-6.3,6.3,2.8,6.3,6.3h0Z"
      style="fill:#d40031; " />
    <path d="m66.8,35c-.5.5-1.6.2-2.5-.7-.9-.9-1.2-2-.7-2.5.5-.5,1.6-.2,2.5.7.9.9,1.2,2,.7,2.5h0Z"
      style="fill:#e4607f; " />
    <path d="m36.8,41.1c0,3.5-2.8,6.3-6.3,6.3s-6.3-2.8-6.3-6.3,2.8-6.3,6.3-6.3,6.3,2.8,6.3,6.3h0Z"
      style="fill:#d40031; " />
    <path d="m35,39.8c-.5.5-1.6.2-2.5-.7-.9-.9-1.2-2-.7-2.5.5-.5,1.6-.2,2.5.7.9.9,1.2,2,.7,2.5h0Z"
      style="fill:#e4607f; " />
    <path d="m88.1,17.4c0,3.5-2.8,6.3-6.3,6.3s-6.3-2.8-6.3-6.3,2.8-6.3,6.3-6.3,6.3,2.8,6.3,6.3h0Z"
      style="fill:#d40031; " />
    <path d="m86.3,16.1c-.5.5-1.6.2-2.5-.7-.9-.9-1.2-2-.7-2.5.5-.5,1.6-.2,2.5.7.9.9,1.2,2,.7,2.5h0Z"
      style="fill:#e4607f; " />
  </g>
</svg>