<svg xmlns="http://www.w3.org/2000/svg" viewBox="0 0 65.8 123.4">
  <g>
    <polygon points="58.3 115.7 44.3 123.4 44.3 21.6 58.3 13.9 58.3 115.7" style="fill:#9b9c9e; " />
    <polygon points="45.4 115 44.4 115.8 44.4 29.1 45.4 28.4 45.4 115" style="fill:#e3e3e3; " />
    <path d="m7.9,40.3c0,0,0-.1,0-.2.6-2.2,1.4-4.2,2.4-6h0c-1,1.8-1.8,3.9-2.5,6.2h0Z" style="fill:#f04943; " />
    <path d="m7.6,41.6c0-.1,0-.2,0-.3,0-.2.1-.5.2-.7h0c0,.3-.2.7-.2,1h0Z" style="fill:#f04943; " />
    <path d="m11.5,32.3h0c.2-.3.4-.5.6-.8-.2.3-.4.5-.6.8h0Z" style="fill:#f04943; " />
    <path d="m7.3,42.8c0-.1,0-.3,0-.4h0c0,.1,0,.3,0,.4h0Z" style="fill:#f04943; " />
    <path d="m6.6,50.7c0,0,0-.2,0-.3,0,0,0,.2,0,.3" style="fill:none; " />
    <path d="m10.6,33.8h0c.2-.4.4-.7.6-1h0c-.2.3-.4.7-.6,1h0Z" style="fill:#f04943; " />
    <polygon points="24.2 83.9 24.7 84.7 20.4 87.1 20 86.3 19.5 85.5 23.8 83 24.2 83.9 24.2 83.9"
      style="fill:#390000; " />
    <polygon points="35.3 76.8 35.3 76.8 35.3 76.8 35.3 76.8" style="fill:#390000; " />
    <polygon points="23.8 83 23.8 83 24.2 83.9 23.8 83 23.8 83" style="fill:#390000; " />
    <path d="m35,77.2h0c0,0,.1-.1.2-.2h0c0,0-.1.2-.2.2h0Z" style="fill:#390000; " />
    <path d="m34.8,77.5h0c0,0,.1-.1.2-.2h0c0,0-.1.2-.2.2" style="fill:none; " />
    <polygon points="23.8 83 23.8 83 19.5 85.5 23.8 83 23.8 83" style="fill:#390000; " />
    <polygon points="44.3 104.9 44.3 111.9 44.1 111.8 43.5 111.4 43.5 111.4 43.5 104.5 43.5 104.5 44.3 104.9"
      style="fill:#390000; " />
    <rect x="13" y="50.2" width="0" height="6.9" transform="translate(-39.9 38.1) rotate(-60)" style="fill:#390000; " />
    <polygon points="16 55.4 16 55.4 16 56.1 16 55.4 16 55.4 16 55.4" style="fill:#390000; " />
    <polygon points="10 51.9 16 55.4 16 56.1 16 56.9 10 53.5 10 51.9 10 51.9" style="fill:#390000; " />
    <path d="m34.7,77.6c-.1.2-.2.4-.3.4,0,0,.1-.2.3-.4h0s0,0,0,0" style="fill:none; " />
    <path d="m35.2,77h0s0,0,0-.1c0,0,0,0,0,.1h0Z" style="fill:#fff; " />
    <path d="m34.9,77.3h0s0,0,0-.1h0s0,0,0,.1" style="fill:none; " />
    <path d="m41,72c0,0-.1,0-.2,0,0,0,.1,0,.2,0h0Z" style="fill:#390000; " />
    <polygon points="41.8 69.8 41.8 69.8 41.8 69.8 41.8 69.8 41.8 69.8" style="fill:#fff; " />
    <polygon points="42.3 69.2 42.3 69.2 42.3 69.2 42.3 69.2 42.3 69.2" style="fill:#fff; " />
    <path d="m41.6,70.4h0s0,0,0-.1h0s0,0,0,.1h0Z" style="fill:#fff; " />
    <polygon points="42.5 69.1 42.5 69.1 42.6 69 42.5 69.1 42.5 69.1" style="fill:#fff; " />
    <polygon points="42 69.5 42 69.5 42.1 69.4 42.1 69.4 42 69.5 42 69.5" style="fill:#fff; " />
    <polygon points="42.4 69.1 42.4 69.1 42.4 69.1 42.4 69.1" style="fill:#fff; " />
    <polygon points="24.8 37.7 24.4 38 23.9 38.3 19.6 30.9 20.6 30.4 24.8 37.7 24.8 37.7" style="fill:#390000; " />
    <polygon points="24.8 37.7 24.4 38 24.8 37.7 24.8 37.7 24.8 37.7" style="fill:#fff; " />
    <path d="m42.6,69c0,0,.2,0,.3,0-.1,0-.2,0-.3,0h0Z" style="fill:#f04943; " />
    <path d="m42.3,69.2h0s0,0,0,0c0,0,.1,0,.2,0h0c0,0-.1,0-.2,0h0Z" style="fill:#f04943; " />
    <path d="m44.3,50.3s0,.4.2,1.1c-.1-.7-.2-1-.2-1.1h0Z" style="fill:#390000; " />
    <path
      d="m10,51.9v1.6s2.6,1.5,2.6,1.5l3.4,2v-1.5s-6-3.5-6-3.5h0Zm34.3-11.2s0,.1,0,.3v-1.1h-.1c0,0-.5-.3-.5-.3h0s0-2.6,0-2.6v-4.3s0,0,0,0l.6.3v-3.9c0,0-.2-.1-.3-.2-.4-.2-.8-.4-1.2-.7-.1,0-.2-.1-.3-.2-.4-.2-.7-.4-1.1-.5-.3-.1-.5-.3-.8-.4-.3-.1-.5-.2-.7-.3,0,0-.2,0-.2-.1-.1,0-.2,0-.3-.1,0,0,0,0,0,0,0,0,0,0,0,0-.1,0-.2,0-.3-.1,0,0,0,0-.1,0,0,0-.1,0-.2,0-.1,0-.2,0-.3-.1-.2,0-.3-.1-.5-.2-.3-.1-.6-.2-.9-.3,0,0-.2,0-.2,0-.2,0-.4-.1-.5-.2,0,0-.1,0-.2,0,0,0-.2,0-.2,0,0,0-.2,0-.2,0,0,0-.1,0-.2,0,0,0-.1,0-.2,0-.3,0-.6-.1-.9-.2-.2,0-.3,0-.5-.1s-.3,0-.5-.1c-.3,0-.6-.1-.9-.2h0c-.3,0-.6-.1-.9-.2-.2,0-.3,0-.5,0,0,0,0,0,0,0,0,0,0,0-.1,0,0,0-.1,0-.2,0,0,0,0,0,0,0h0s0,0,0,0c0,0,0,0,0,0h0s0,0,0,0c-.1,0-.3,0-.4,0,0,0-.1,0-.2,0-.2,0-.4,0-.6,0,0,0,0,0,0,0s0,0,0,0c0,0,0,0,0,0,0,0,0,0,0,0h0s0,0,0,0h0s0,0,0,0c0,0-.1,0-.2,0,0,0-.1,0-.2,0,0,0-.1,0-.2,0s0,0,0,0h-.2c0,0-.1,0-.2,0h0c0,0-.2,0-.3,0s-.1,0-.2,0c0,0-.1,0-.2,0,0,0,0,0-.1,0-.1,0-.2,0-.3,0,0,0,0,0-.1,0h0s0,0-.1,0c0,0,0,0-.1,0,0,0-.1,0-.2,0,0,0-.1,0-.2,0,0,0,0,0-.1,0,0,0,0,0-.1,0,0,0,0,0,0,0,0,0-.2,0-.2,0,0,0-.2,0-.2,0h0c-.1,0-.3,0-.4,0-.1,0-.2,0-.3,0,0,0,0,0-.1,0h0s0,0,0,0c0,0,0,0,0,0h0s0,0,0,0c-.1,0-.2,0-.3,0,0,0,0,0-.1,0,0,0,0,0,0,0-.2,0-.5.1-.7.2-.1,0-.3,0-.4,0,0,0,0,0,0,0,0,0,0,0,0,0h0c-.1,0-.2,0-.3,0-.2,0-.5.1-.7.2-.1,0-.3,0-.4.1,0,0-.1,0-.1,0h0s0,0-.1,0h0c-.1,0-.2.1-.3.2,0,0-.2,0-.3.1,0,0-.1,0-.2,0,0,0-.1,0-.2,0-.1,0-.2,0-.3.1-.2,0-.3.2-.5.3,0,0-.1,0-.2,0-.1,0-.2.1-.3.2-.1,0-.2.1-.3.2-.5.3-1,.6-1.5,1-.5.4-1,.7-1.4,1.1-.3.3-.7.6-1,1-.1.1-.3.3-.4.4-.4.4-.8.9-1.2,1.4h0s0,0,0,0c0,0,0,.1-.1.2,0,.1-.2.3-.3.4,0,0,0,.1-.1.2,0,0,0,0,0,.1,0,0,0,0-.1.1,0,0,0,0,0,.1,0,0,0,0,0,.1-.1.2-.2.3-.3.5-.1.2-.2.3-.3.5,0,0,0,.1-.1.2,0,0,0,.1-.1.2-.2.4-.5.9-.7,1.4-.1.2-.2.5-.3.7-.1.2-.2.5-.3.7-.1.3-.2.5-.3.8,0,.2-.2.5-.2.7,0,0,0,0,0,0,0,.3-.2.5-.2.8,0,.2-.1.4-.2.6,0,0,0,.1,0,.2,0,0,0,.1,0,.2,0,0,0,0,0,.1,0,0,0,0,0,0,0,0,0,0,0,0,0,0,0,0,0,0,0,0,0,.1,0,.2,0,0,0,0,0,0,0,.2-.1.4-.2.7,0,.1,0,.2,0,.4,0,.2,0,.3-.1.5,0,0,0,0,0,.1,0,0,0,.1,0,.2,0,0,0,.1,0,.2-.4,1.9-.6,4-.7,6.2,0,.5,0,.9,0,1.4,0,.1,0,.2,0,.3v.2c0,.4,0,.9,0,1.3,0,0,0,0,0,.1,0,.5,0,.9,0,1.4,0,.3,0,.6,0,1,0,.2,0,.4,0,.6,0,.2,0,.4,0,.7,0,1,.2,2,.4,3,0,.1,0,.3,0,.4,0,.5.2,1.1.3,1.6,0,.2,0,.5.1.7,0,.3.1.7.2,1,0,0,0,0,0,.1,0,.4.2.7.2,1.1,0,0,0,0,0,.1,0,.4.2.8.3,1.1,0,.4.2.8.3,1.2,0,0,0,0,0,0,0,.3.2.7.3,1,0,0,0,0,0,.1.1.4.2.7.3,1.1.3.9.5,1.8.8,2.7.1.3.2.6.3,1,.1.4.3.8.4,1.2.1.3.2.6.4,1,0,.2.1.4.2.6.1.3.2.6.3.8.1.4.3.8.5,1.1,0,.1.1.3.2.4.1.3.2.6.4.8.2.4.3.8.5,1.2.2.3.3.7.5,1,0,0,0,.1.1.2.3.7.6,1.4,1,2,0,0,0,.2.1.3.1.3.3.6.5.9,0,.1.1.2.2.4.2.3.3.7.5,1,.8,1.4,1.5,2.8,2.4,4.1.1.2.3.4.4.6.3.5.6.9.9,1.4.1.2.3.5.5.7.2.2.3.5.5.7.1.2.2.3.3.5.5.8,1,1.5,1.6,2.2.2.2.3.4.5.7.3.4.7.9,1,1.3.2.2.3.4.5.7,2.1,2.7,4.4,5.3,6.8,7.7,1.2,1.2,2.4,2.3,3.7,3.4.8.7,1.7,1.4,2.5,2.1.4.3.9.7,1.3,1,1.7,1.3,3.5,2.4,5.3,3.5,0,0,0,0,.1,0v-3.9h-.1c0,0-.7-.5-.7-.5v-6.5s0-.4,0-.4l.8.4v-29.3m-23.8,11.5l-.5-.8-.5-.8,4.3-2.4.5.8.5.8-4.3,2.4Zm4.4-49.4l-.5.3h-.1c0,0,0,.1,0,.1l-.3.2h0l-1.3-2.2h0c0,0-2.9-5.2-2.9-5.2l1-.5,4.2,7.3h0Zm19.4,67.2l.6.3h0s-.6-.3-.6-.3Zm19.6-44.7h0,0c0,.1,0,0,0,0Z"
      style="fill:#fff; " />
    <path d="m43,20.8c0,0,.1,0,.2.1,0,0-.1,0-.2-.1h0Z" style="fill:#fff; " />
    <path d="m42.8,28.3c-.1,0-.2-.1-.3-.2.1,0,.2.1.3.2h0Z" style="fill:#fff; " />
    <path d="m30.5,24.2c-.3,0-.6,0-.9-.1.3,0,.6,0,.9.1h0Z" style="fill:#fff; " />
    <path d="m25.6,24.1c-.3,0-.5,0-.8,0,.3,0,.5,0,.8,0h0Z" style="fill:#fff; " />
    <path d="m27.2,24c-.3,0-.6,0-.8,0,.3,0,.6,0,.8,0h0Z" style="fill:#fff; " />
    <path d="m24,24.3c-.3,0-.5,0-.8.1.3,0,.5,0,.8-.1h0Z" style="fill:#fff; " />
    <path d="m19.7,25.5c-.2,0-.5.2-.7.3.2-.1.5-.2.7-.3h0Z" style="fill:#fff; " />
    <path d="m28.9,24.1c-.3,0-.6,0-.9,0,.3,0,.6,0,.9,0h0Z" style="fill:#fff; " />
    <path d="m21.1,25c-.2,0-.5.2-.7.2.2,0,.5-.2.7-.2h0Z" style="fill:#fff; " />
    <path d="m22.5,24.6c-.3,0-.5.1-.8.2.3,0,.5-.1.8-.2h0Z" style="fill:#fff; " />
    <path d="m18.3,26.2c-.2.1-.4.2-.7.3.2-.1.4-.2.7-.3h0Z" style="fill:#fff; " />
    <path d="m37.7,26c-.3-.1-.6-.2-.9-.3.3.1.6.2.9.3h0Z" style="fill:#fff; " />
    <path d="m35.9,25.4c-.3,0-.6-.2-.9-.3.3,0,.6.2.9.3h0Z" style="fill:#fff; " />
    <path d="m39.5,26.8c-.3-.1-.6-.3-.9-.4.3.1.6.3.9.4h0Z" style="fill:#fff; " />
    <path d="m41.3,27.6c-.3-.1-.5-.3-.8-.4.3.1.5.3.8.4h0Z" style="fill:#fff; " />
    <path d="m32.3,24.5c-.3,0-.6-.1-.9-.2.3,0,.6.1.9.2h0Z" style="fill:#fff; " />
    <path d="m34.1,24.9c-.3,0-.6-.2-.9-.2.3,0,.6.2.9.2h0Z" style="fill:#fff; " />
    <path
      d="m43.3,20.9c0,0-.1,0-.2-.1,0,0-.2,0-.2-.1-.2-.1-.5-.2-.7-.4-.1,0-.2-.1-.3-.2-.3-.1-.5-.3-.8-.4-.1,0-.2-.1-.3-.2-.3-.1-.5-.3-.8-.4-.1,0-.3-.1-.4-.2-.2-.1-.5-.2-.7-.3-.1,0-.3-.1-.4-.2-.2-.1-.5-.2-.7-.3-.1,0-.3-.1-.4-.2-.2,0-.5-.2-.7-.3-.1,0-.3,0-.4-.1-.2,0-.5-.2-.7-.2-.1,0-.3,0-.4-.1-.2,0-.4-.1-.7-.2-.1,0-.2,0-.3-.1h0c-.2,0-.4-.2-.6-.2-.1,0-.3,0-.4-.1-.2,0-.4-.1-.6-.2-.1,0-.3,0-.4-.1-.2,0-.4-.1-.6-.1-.1,0-.3,0-.4,0-.2,0-.4,0-.6-.1-.1,0-.3,0-.4,0-.2,0-.4,0-.6-.1-.1,0-.3,0-.4,0-.2,0-.4,0-.6,0-.1,0-.3,0-.4,0-.2,0-.4,0-.6,0-.1,0-.3,0-.4,0-.2,0-.4,0-.6,0-.1,0-.3,0-.4,0-.2,0-.4,0-.5,0-.1,0-.3,0-.4,0-.2,0-.4,0-.5,0-.1,0-.3,0-.4,0-.2,0-.4,0-.5,0-.1,0-.3,0-.4,0-.2,0-.3,0-.5,0-.1,0-.3,0-.4,0-.2,0-.3,0-.5,0-.1,0-.3,0-.4,0-.2,0-.3,0-.5,0-.1,0-.3,0-.4,0-.2,0-.3,0-.5,0-.1,0-.3,0-.4,0-.2,0-.3,0-.5.1-.1,0-.3,0-.4.1-.2,0-.3,0-.5.1-.1,0-.3,0-.4.1-.2,0-.3,0-.5.1-.1,0-.3,0-.4.1-.1,0-.3.1-.4.2-.1,0-.3,0-.4.1-.1,0-.3.1-.4.2-.1,0-.2.1-.4.2-.1,0-.3.1-.4.2-.1,0-.2.1-.4.2-.1,0-.3.1-.4.2-.1,0-.2.1-.3.2-.1,0-.3.1-.4.2C5,23.1,0,32.9,0,46.9c0,28.1,19.7,62.3,44.1,76.4,0,0,0,0,.1,0h0v-7.6s0,0-.1,0c-1.8-1-3.5-2.2-5.3-3.5-.4-.3-.9-.6-1.3-1-.8-.7-1.7-1.4-2.5-2.1-1.2-1.1-2.5-2.2-3.7-3.4-2.4-2.4-4.7-4.9-6.8-7.7-.2-.2-.3-.4-.5-.7-.3-.4-.7-.9-1-1.3-.2-.2-.3-.4-.5-.7-.5-.7-1-1.5-1.6-2.2-.1-.2-.2-.3-.3-.5-.2-.2-.3-.5-.5-.7-.2-.2-.3-.5-.5-.7-.3-.5-.6-.9-.9-1.4-.1-.2-.3-.4-.4-.6-.8-1.4-1.6-2.7-2.4-4.1-.2-.3-.3-.6-.5-1,0-.1-.1-.2-.2-.4-.2-.3-.3-.6-.5-.9,0,0-.1-.2-.1-.3-.3-.7-.7-1.3-1-2,0,0,0-.1-.1-.2-.2-.3-.3-.7-.5-1-.2-.4-.3-.8-.5-1.2-.1-.3-.2-.6-.4-.8,0-.1-.1-.3-.2-.4-.2-.4-.3-.8-.5-1.1-.1-.3-.2-.6-.3-.8,0-.2-.1-.4-.2-.6-.1-.3-.2-.6-.4-1-.1-.4-.3-.8-.4-1.2-.1-.3-.2-.6-.3-1-.3-.9-.6-1.8-.8-2.7-.1-.4-.2-.7-.3-1.1,0,0,0,0,0-.1,0-.3-.2-.7-.3-1,0,0,0,0,0,0-.1-.4-.2-.8-.3-1.2,0-.4-.2-.8-.3-1.1,0,0,0,0,0-.1,0-.4-.2-.7-.2-1.1,0,0,0,0,0-.1,0-.3-.1-.7-.2-1,0-.3,0-.5-.1-.7,0-.5-.2-1.1-.3-1.6,0-.1,0-.3,0-.4,0-.3,0-.7-.1-1,0-.2,0-.3,0-.5,0,0,0,0,0,0,0-.2,0-.4,0-.7,0-.4,0-.7-.1-1.1,0,0,0-.1,0-.2,0-.2,0-.3,0-.5,0,0,0-.2,0-.3,0-.3,0-.6,0-.9,0-.2,0-.4,0-.5,0-.1,0-.3,0-.4,0-.2,0-.3,0-.5,0-.2,0-.5,0-.7,0-.2,0-.5,0-.7v-.3c0,0,0-.2,0-.2,0-2.8.3-5.4.7-7.8h0c0,0,0-.1,0-.2h0s0,0,0-.1c0-.2,0-.3.1-.5,0-.1,0-.2,0-.4,0,0,0,0,0,0,0,0,0-.1,0-.2,0-.1,0-.2,0-.3,0,0,0,0,0,0,0,0,0,0,0,0,0,0,0-.1,0-.2,0,0,0,0,0,0,0,0,0,0,0,0,0,0,0,0,0,0,0,0,0,0,0-.1,0,0,0,0,0-.1,0,0,0,0,0-.1,0,0,0-.1,0-.2,0-.1,0-.2,0-.3,0-.1,0-.2,0-.3,0-.1,0-.3.1-.4,0-.1,0-.3.1-.4t0,0s0,0,0,0c0,0,0,0,0,0,0,0,0-.2,0-.3,0-.1,0-.2.1-.3,0-.3.2-.5.3-.8,0,0,0,0,0-.1,0-.2.1-.4.2-.5h0c0-.3.2-.5.3-.7,0,0,0,0,0-.1.1-.2.2-.5.3-.7.1-.2.2-.5.4-.7,0,0,0-.1.1-.2,0,0,0-.1.1-.2.1-.2.2-.3.3-.5s.2-.3.3-.5c0,0,0,0,0-.1,0,0,0,0,0-.1,0,0,0,0,.1-.1,0,0,0,0,0,0,0,0,0,0,0,0,0,0,0,0,0-.1,0,0,0,0,0,0s0,0,0,0c0,0,0,0,0-.1,0,0,0,0,.1-.1,0,0,0,0,0,0,0,0,0,0,0,0,0,0,0-.1.1-.2h0s0,0,0,0c.3-.4.6-.7.9-1,0-.1.2-.2.3-.3.1-.1.3-.3.4-.4.3-.3.7-.7,1-1,.5-.4.9-.8,1.4-1.1.5-.4,1-.7,1.5-1,.1,0,.2-.1.3-.2.1,0,.2-.1.3-.2,0,0,.1,0,.2,0,.2,0,.3-.2.5-.3.1,0,.2-.1.3-.1,0,0,.1,0,.2,0,0,0,.1,0,.2,0,0,0,.2,0,.3-.1.1,0,.2,0,.3-.1h0s0,0,.1,0h0s.1,0,.1,0c.1,0,.3,0,.4-.1.2,0,.5-.2.7-.2.1,0,.2,0,.3,0,0,0,0,0,0,0,0,0,0,0,0,0,.1,0,.3,0,.4,0,.2,0,.5-.1.7-.2,0,0,0,0,0,0,0,0,0,0,.1,0,.1,0,.2,0,.3,0h0s0,0,0,0c0,0,0,0,0,0h0s0,0,0,0c0,0,0,0,0,0,.1,0,.2,0,.3,0,.1,0,.3,0,.4,0h0c0,0,.2,0,.2,0,0,0,.2,0,.2,0,0,0,0,0,0,0,0,0,0,0,.1,0,0,0,0,0,.1,0,0,0,.1,0,.2,0,0,0,.1,0,.2,0,0,0,0,0,.1,0,0,0,0,0,.1,0h0s0,0,.1,0c.1,0,.3,0,.4,0h0c0,0,.1,0,.2,0h.2s0,0,.1,0h0s0,0,0,0h0c0,0,.1,0,.2,0h.3c0,0,.1,0,.2,0,0,0,0,0,0,0,0,0,0,0,0,0,0,0,0,0,0,0,0,0,.1,0,.2,0,0,0,0,0,0,0,0,0,0,0,0,0,0,0,0,0,0,0h0s0,0,0,0c0,0,0,0,0,0,0,0,0,0,0,0s0,0,0,0,0,0,0,0c.2,0,.4,0,.6,0,0,0,.1,0,.2,0,.1,0,.3,0,.4,0,0,0,0,0,0,0s0,0,0,0h0s0,0,0,0h0s0,0,0,0h0s0,0,0,0c0,0,0,0,0,0,0,0,0,0,0,0h0s0,0,0,0c0,0,0,0,.1,0,0,0,0,0,0,0,.2,0,.3,0,.5,0,.3,0,.6.1.9.2h0c.3,0,.6,0,.9.2.2,0,.3,0,.5.1s.3,0,.5.1c.3,0,.6.1.9.2,0,0,.1,0,.2,0,0,0,.2,0,.2,0,0,0,.2,0,.2,0,0,0,.2,0,.2,0,0,0,.1,0,.2,0,.2,0,.4.1.5.2,0,0,.2,0,.2,0h0c.3.1.6.2.9.3.2,0,.3.1.5.2.1,0,.2,0,.3.1s.1,0,.2,0c0,0,0,0,.1,0,.1,0,.2,0,.3.1,0,0,0,0,0,0,0,0,0,0,0,0,0,0,0,0,0,0,0,0,.1,0,.2,0,0,0,.2,0,.2.1.2.1.5.2.7.3.3.1.5.3.8.4.4.2.7.4,1.1.5.1,0,.2.1.3.2.4.2.8.4,1.2.7,0,0,.2.1.3.2v-7.5h.1c-.4-.2-.7-.4-1.1-.6Z"
      style="fill:#d4d5d7; " />
    <polygon points="44.3 33 44.3 40 44.1 39.9 43.7 39.6 43.7 37 43.7 32.7 43.7 32.7 43.7 32.7 44.3 33"
      style="fill:#390000; " />
    <path
      d="m44.6,18.3l-1.8,2.4c-.2-.1-.5-.2-.7-.4-.1,0-.2-.1-.3-.2-.3-.1-.5-.3-.8-.4-.1,0-.2-.1-.3-.2-.3-.1-.5-.3-.8-.4-.1,0-.3-.1-.4-.2-.2-.1-.5-.2-.7-.3-.1,0-.3-.1-.4-.2-.2-.1-.5-.2-.7-.3-.1,0-.3-.1-.4-.2-.2,0-.5-.2-.7-.3-.1,0-.3,0-.4-.1-.2,0-.5-.2-.7-.2-.1,0-.3,0-.4-.1-.2,0-.4-.1-.7-.2-.1,0-.2,0-.3-.1h0c-.2,0-.4-.2-.6-.2-.1,0-.3,0-.4-.1-.2,0-.4-.1-.6-.2-.1,0-.3,0-.4-.1-.2,0-.4-.1-.6-.1-.1,0-.3,0-.4,0-.2,0-.4,0-.6-.1-.1,0-.3,0-.4,0-.2,0-.4,0-.6-.1-.1,0-.3,0-.4,0-.2,0-.4,0-.6,0-.1,0-.3,0-.4,0-.2,0-.4,0-.6,0-.1,0-.3,0-.4,0-.2,0-.4,0-.6,0-.1,0-.3,0-.4,0-.2,0-.4,0-.5,0-.1,0-.3,0-.4,0-.2,0-.4,0-.5,0-.1,0-.3,0-.4,0-.2,0-.4,0-.5,0-.1,0-.3,0-.4,0-.2,0-.3,0-.5,0-.1,0-.3,0-.4,0-.2,0-.3,0-.5,0-.1,0-.3,0-.4,0-.2,0-.3,0-.5,0-.1,0-.3,0-.4,0-.2,0-.3,0-.5,0-.1,0-.3,0-.4,0-.2,0-.3,0-.5.1-.1,0-.3,0-.4.1-.2,0-.3,0-.5.1-.1,0-.3,0-.4.1-.2,0-.3,0-.5.1-.1,0-.3,0-.4.1-.1,0-.3.1-.4.2-.1,0-.3,0-.4.1-.1,0-.3.1-.4.2-.1,0-.2.1-.4.2-.1,0-.3.1-.4.2-.1,0-.2.1-.4.2-.1,0-.3.1-.4.2-.1,0-.2.1-.3.2-.1,0-.3.1-.4.2h0c2.7-1.5,4.2-2.4,5.5-3.1,1.5,0,3.5,0,5.4-.8,3.7-1.4,5.8-4.4,5.6-4.8v-.3c2.1-.9,4.6-1.5,7.1-1.7,0,1.1,0,2.2,0,3.1,0,1.5.9,3,2.6,4.3.3.2.5.4.8.5.8.5,1.8.9,2.7,1.2.2,0,.4.1.6.2,0,0,.1,0,.2,0,.1.4.4.8.9,1.1,0,0,.2.1.3.2Z"
      style="fill:#c0c2c4; " />
    <path d="m29.4,9.7c.2.5-1.9,3.5-5.6,4.8-1.9.7-3.9.9-5.4.8,2.3-1.3,3.6-1.9,8.4-4.7.8-.5,1.6-.9,2.5-1.2v.3Z"
      style="fill:#c0c2c4; " />
    <path
      d="m58.3,13.8l-2,1.1-.3.2-4.1,2.3h-.2c0,.1-.9.6-.9.6l-.5.3-1.1.6-.6.4h-.2c0,.1-3.8,2.3-3.8,2.3h0s0,0,0,0c-.4-.2-.7-.4-1.1-.6,0,0-.1,0-.2-.1,0,0-.2,0-.2-.1l1.8-2.4c0,0-.2-.1-.3-.2-.4-.3-.7-.7-.9-1.1,0,0-.1,0-.2,0-.2,0-.4-.1-.6-.2-1-.3-1.9-.7-2.7-1.2-.3-.2-.6-.4-.8-.5-1.7-1.2-2.6-2.8-2.6-4.3,0-.9,0-2,0-3.1.9,0,1.9,0,2.9,0,.7,0,1.4,0,2.1.1.2,0,.5,0,.7,0,.4,0,.7,0,1.1.2h0c0,0,.2,0,.3,0,.3,0,.6,0,.8.2.6.1,1.3.3,1.9.4.9.2,1.7.5,2.6.8.4.1.9.3,1.3.5,0,0,0,0,0,0,.2,0,.4.1.6.2.8.3,1.7.7,2.6,1.1.7.3,1.5.7,2.2,1.1h0c.8.4,1.7.9,2.6,1.4Z"
      style="fill:#c0c2c4; " />
    <path
      d="m48.4,16.7v2.7c-.2,0-.4,0-.5-.1-.4-.1-.8-.3-1.2-.5,0,0,0,0,0,0,0,0-.2-.1-.3-.2-.4-.3-.7-.7-.9-1.1,0-.1,0-.3,0-.5,0-.5,0-1.2,0-1.8s0-.7,0-1c0,.5.3,1.1.9,1.5,0,0,.2.1.3.2.3.2.6.3,1,.4.2,0,.4.1.6.2,0,0,0,0,.1,0Z"
      style="fill:#d4d5d7; " />
    <path
      d="m23.8,14.6c-1.9.7-3.9.9-5.4.8-1.4,0-2.3-.4-2.4-.6l-1.9-5.1c-1.4-3.7.5-7.8,4.2-9.2,3.7-1.4,7.8.5,9.2,4.2l1.8,4.8v.3c.3.5-1.8,3.5-5.5,4.8Z"
      style="fill:#566a63; " />
    <path
      d="m64.2,60.9l.6,1h0s-.6-1-.6-1Zm1.3-1.6l.3-.2h0m-21.6-19.2h.1c0,0-.1,0-.1,0l-.5-.3h0m-14.9-15.6s0,0,0,0c-.1,0-.2,0-.5,0,0,0-.1,0-.2,0s0,0,0,0m0,0c0,0,.1,0,.2,0,.2,0,.3,0,.5,0m-1.1,0h0c0,0,.1,0,.2,0h.1m-.3,0c0,0,.1,0,.2,0m.1,0h0"
      style="fill:none; " />
    <path d="m30.4,24.2h0c0,0,.1,0,.2,0,0,0-.1,0-.2,0h0" style="fill:none; " />
    <path d="m25.6,24.1c-.1,0-.2,0-.3,0h0c.1,0,.2,0,.3,0" style="fill:none; " />
    <path d="m27.2,24c-.3,0-.6,0-.8,0,.3,0,.6,0,.8,0h0Z" style="fill:#fff; " />
    <path d="m24,24.3c0,0-.2,0-.3,0h0s0,0,0,0h0c0,0,.2,0,.3,0" style="fill:none; " />
    <path d="m28.7,24.1h0s0,0,.1,0c0,0,0,0-.1,0h0" style="fill:none; " />
    <path d="m21.1,25s0,0,0,0h0s0,0,0,0m-.4.1h0c-.1,0-.2,0-.3.1,0,0,.2,0,.3-.1h0" style="fill:none; " />
    <path d="m22.1,24.7h0c-.1,0-.2,0-.3,0,.1,0,.2,0,.3,0h0s0,0,0,0" style="fill:none; " />
    <path
      d="m27.4,24c0,0-.2,0-.2,0-.3,0-.6,0-.8,0-.3,0-.5,0-.8,0-.1,0-.2,0-.3,0h0c.1,0,.2,0,.3,0,.3,0,.5,0,.8,0,.3,0,.6,0,.8,0,0,0,.2,0,.2,0m1.3,0s0,0,.1,0c0,0,0,0,.1,0h0s0,0-.1,0c0,0,0,0-.1,0h0m1.7.1c0,0,.1,0,.2,0,0,0,0,0,0,0h0s0,0,0,0c0,0-.1,0-.2,0h0m-6,0h0c-.1,0-.2,0-.3,0,0,0-.2,0-.3,0h0c0,0,.2,0,.3,0,.1,0,.2,0,.3,0m6.5,0s0,0,0,0h0s0,0,0,0h0m-8.8.4h0c-.1,0-.2,0-.3,0-.2,0-.5.2-.7.2,0,0,0,0,0,0h0s0,0,0,0c.2,0,.5-.2.7-.2.1,0,.2,0,.3,0m-1.5.4h0c-.1,0-.2,0-.3.1,0,0,0,0,0,0h0c0,0,.2,0,.3-.1"
      style="fill:none; " />
    <path
      d="m10,52.5v.9s2.6,1.5,2.6,1.5h0s-2.6-1.5-2.6-1.5v-.9m24.5,25.5h0s0,0,0,0h.3c0,0,.2,0,.3,0h0c0,0,.2,0,.3,0h0c.1,0,.2,0,.3,0h0c-.1,0-.2,0-.3,0h0c-.1,0-.2,0-.3,0m-.5,0c0,0,.1-.2.2-.3,0,0,0,0,0,0h0c0,0,0-.1,0-.1,0,0,0,0,0,0,0,0,0,0,0,0,0,0,0,0,0,0m0,0s0,0,0,0c0,0,0,0,0,0,0,0,0,0,0,.1h0"
      style="fill:none; " />
    <path d="m34.9,77.3c0,0-.1.1-.2.2h0c0,0,.1-.1.2-.2,0,0,0,0,0,0" style="fill:none; " />
    <polygon points="10 51.9 16 55.4 16 56.9 10 53.5 10 52.5 10 52.4 10 51.9" style="fill:#62251a; " />
    <path
      d="m34.9,77.3l.7.7c-.2,0-.4,0-.6,0-.1,0-.2,0-.3,0,0,0-.1,0-.2,0s0,0,0,0h0c0,0,.1-.2.2-.4,0,0,0,0,0,0h0c0-.1,0-.2.2-.3,0,0,0,0,0,0h0Z"
      style="fill:#62251a; " />
    <path d="m6.6,50.6h0c0,2.4.2,4.8.5,7.3-.3-2.4-.5-4.8-.5-7.2,0,0,0,0,0,0" style="fill:none; " />
    <path
      d="m44.3,41v28.7l-1.3-.8h0c0-.4,0-.8,0-1.2,0-1.6,0-3.4,0-5.4,0-1.9,0-4,.1-6,0-1,0-2,.1-3,0-1,.1-1.9.2-2.9.1-1.9.3-3.6.4-5,.1-1.4.3-2.6.4-3.4,0-.4.1-.8.1-1Z"
      style="fill:#390000; " />
    <path d="m28.5,81.5c1.6-2.7,10.3-8.4,13.1-9.8.2,1.2,1,2.6,2,3.4-1.9,1.3-9.7,5.3-12,5.6l-3,.8Z"
      style="fill:#390000; " />
    <path
      d="m44.3,69.4v6.2c-.2-.1-.5-.3-.7-.5,0,0-.1,0-.1-.1,0,0,0,0,0,0-.4-.4-.8-1-1.1-1.5,0,0,0-.2-.1-.3-.3-.5-.4-1-.5-1.4,0-1.1,0-1.8.4-2.3.2-.3.6-.5.9-.5.4,0,.8.2,1.3.5Z"
      style="fill:#f04943; " />
    <polygon points="53.8 13.6 48.4 16.7 48.4 19.4 53.8 16.3 53.8 13.6" style="fill:#b0b1b3; " />
    <path
      d="m43.4,12.1s.1,0,.2.1h0s0,0,0,0v7.5c-1.5-1.2-2.3-2.6-2.3-4.1,0-.9,0-2,0-3.1,0-1.6,0-3.2,0-4.5,0,0,0,.2,0,.3,0,0,0,0,0,0,0,0,0,.2,0,.3,0,0,0,0,0,0,0,0,0,0,0,.1,0,0,0,.1,0,.2,0,0,0,0,0,0,0,0,0,0,0,0,0,0,0,.1,0,.2,0,0,0,0,0,0,0,0,0,0,0,0,0,0,0,0,0,.1,0,0,0,0,0,.1,0,0,0,0,0,0,0,0,0,0,0,.1,0,0,0,0,0,.1,0,0,0,0,0,0,0,0,0,.2.2.3,0,.1.1.2.2.3,0,0,.1.2.2.3,0,0,0,0,0,0,0,0,0,0,0,0,0,0,0,.1.1.2,0,0,.1.1.2.2,0,0,0,0,0,0,.1.1.3.3.4.4,0,0,0,0,0,0,0,0,.2.2.3.2Z"
      style="fill:#566a63; " />
    <path
      d="m61,3l-.7.4-15.3,8.2h0l-1.4.7c0,0-.1,0-.2-.1-.1,0-.2-.2-.3-.3-.1-.1-.3-.3-.4-.4,0,0,0,0,0,0,0,0-.1-.1-.2-.2,0,0,0-.1-.1-.2,0,0,0,0,0,0,0,0-.1-.1-.2-.2-.1-.1-.2-.3-.3-.4,0,0,0-.1-.1-.2,0,0,0,0,0,0,0,0,0-.1,0-.2,0,0,0,0,0,0,0,0,0,0,0-.1,0,0,0,0,0-.1,0,0,0-.1,0-.2,0,0,0-.1,0-.2,0,0,0,0,0,0,0,0,0,0,0,0,0,0,0-.1,0-.2,0,0,0-.1,0-.2,0,0,0,0,0-.1,0,0,0,0,0,0,0,0,0,0,0,0,0,0,0-.1,0-.2h0s0,0,0,0c0,0,0-.1,0-.2,0-1.8,1.2-3.6,3.5-4.9,4.5-2.6,11.7-2.7,16.4-.2Z"
      style="fill:#728981; " />
    <path d="m60.3,3.4l-15.3,8.2h0c-3.3-2.4-3.1-5.9.7-8.1,4-2.3,10.5-2.4,14.6,0Z" style="fill:#566a63; " />
    <polygon points="61 3 43.6 12.3 43.6 20 61 10.7 61 3" style="fill:#485953; " />
    <polygon points="44.9 69 44.3 69.4 44.3 75.6 44.9 75.2 44.9 69" style="fill:#bd3935; " />
    <polygon points="44.8 41.2 44.2 41.3 44.2 69.4 44.9 69 44.8 41.2" style="fill:#260000; " />
  </g>
</svg>