<svg xmlns="http://www.w3.org/2000/svg" viewBox="0 0 58.9 126.3">
  <g>
    <polygon points=".6 102.1 .6 102.1 .6 109 0 108.7 0 101.8 .6 102.1" style="fill:#390000; " />
    <polygon
      points="24.2 109.4 23.7 109.6 23.7 109.6 23.6 109.7 23.3 109.9 23.3 109.9 19.5 103.4 19 102.6 19 102.6 19.8 102.1 20 102 20 102 20.5 102.8 22.6 106.6 24.2 109.4"
      style="fill:#390000; " />
    <polygon points="34.6 88.3 34.6 89.1 34.6 89.9 34.6 89.9 34.6 89.9 34 89.5 28.6 86.4 28.6 84.9 34.6 88.3"
      style="fill:#390000; " />
    <polygon
      points="25.2 56.3 23.3 57.4 20.9 58.8 20.3 57.8 20.3 57.8 20 57.3 20 57.1 20 57.1 21.1 56.5 21.6 56.2 21.9 56 21.9 56 24.2 54.7 25.2 56.3"
      style="fill:#390000; " />
    <path
      d="m39.5,89.9c-1.2-25.2-17.2-52.5-39-63.8,0,0,0,0-.1,0v3.9l.8.5c0,1.4,0,5.6,0,6.9-.2,0-.6-.3-.8-.4v1.1c0-.2,0-.3,0-.3,1.1,9.3,1.5,20.4,1.3,29.8h-.2c2.1,1.7,2.2,6.6-1.2,5v29.3l.6.3s0,6.9,0,6.9l-.6-.3v3.9c21.3,12.5,39.9,1.1,39.1-22.8ZM1.9,72.8h0s0,0,0,0c0,0,0,0,0,0Zm.4-.2h0c0,0,.1,0,.2-.1,0,0-.1,0-.2.1Zm22.7,38.2c-.3.2-.7.4-1,.5,0,0-3.8-6.5-3.8-6.5l-.5-.8h0c.2,0,.8-.5,1-.5,1.1,2,3.1,5.4,4.2,7.3h0Zm-1.7-53.5s-2.4,1.4-2.4,1.4c-.2-.4-.7-1.2-.9-1.6,1.1-.7,3.1-1.8,4.3-2.4l1,1.6-1.9,1.1Zm11.3,31.7c0,.2,0,.6,0,.8h0c0,0-5.7-3.3-6-3.5,0,0,0-1.6,0-1.6l6,3.5v.8Z"
      style="fill:#fff; " />
    <polygon points="1.2 30.4 1.2 35.3 1.2 37.3 1 37.2 .5 36.9 .4 36.9 .4 30 1.2 30.4" style="fill:#390000; " />
    <path
      d="m58.9,87.1c0,14-5,23.8-12.9,28.4-7.4,4.3-6.4,3.5-13.8,7.8.5-.3.9-.5,1.3-.8,0,0,0,0,.1,0,.4-.3.9-.6,1.3-1,0,0,0,0,.1,0,.4-.3.8-.7,1.2-1.1h.1c.4-.5.8-.9,1.1-1.3h0c.4-.5.7-.9,1.1-1.4,0,0,0,0,0-.1.3-.5.7-.9,1-1.4,0,0,0,0,0-.1.3-.5.6-1,.9-1.5,0,0,0,0,0-.1.3-.5.6-1.1.8-1.6,0,0,0,0,0-.1.3-.6.5-1.1.7-1.7h0c.2-.7.5-1.3.7-2h0c.2-.7.4-1.4.6-2.1h0c.2-.8.3-1.5.5-2.2h0c.1-.8.3-1.5.4-2.3h0c.1-.8.2-1.6.3-2.4h0c0-.8.1-1.6.2-2.5h0c0-.9,0-1.7,0-2.6,0-28.1-19.7-62.3-44.1-76.4h0s0,0,0,0l3.8-2.1h.2c0-.1,1.8-1.1,1.8-1.1l.5-.3,5.2-2.9.3-.2,2-1.1c1.7,1,3.4,2.1,5.1,3.3,4.7,3.3,9.2,7.4,13.3,11.9,4,4.4,7.7,9.3,10.9,14.5,9.1,14.6,14.9,31.6,14.8,46.7Z"
      style="fill:#c0c2c4; " />
    <path
      d="m40.8,21.6c3.5,3.6,3.5,9.3,0,12.9l-4.9,4.8c-.5.4-5-.4-8.5-4-3.5-3.6-4.7-8.5-4.2-9l4.9-4.8c3.6-3.5,9.3-3.5,12.9,0h0Z"
      style="fill:#566a63; " />
    <polygon points="23.3 57.4 20.9 58.8 20.3 57.8 20.3 57.8 20 57.3 20 57.1 21.1 56.5 21.6 56.2 21.9 56 23.3 57.4"
      style="fill:#62251a; " />
    <polygon
      points="25 110.8 24.5 111.1 24.5 111.1 24.4 111.2 24.3 111.2 24.1 111.4 20.3 104.8 19.8 104 19.8 104 20.6 103.6 21.2 104.3 23.4 108 25 110.8"
      style="fill:#62251a; " />
    <path
      d="m1.7,67.5h-.2c0,0-1.2-.8-1.2-.8v-28.7c0-.2,0-.3,0-.3,0,0,0,.6.2,1.6.1,1,.2,2.4.4,4.1.1,1.7.3,3.6.4,5.7,0,.9.1,1.8.1,2.8,0,.1,0,.3,0,.4,0,.5,0,1.1,0,1.6,0,.5,0,1.1,0,1.6,0,1.6,0,3.2.1,4.7,0,.5,0,1,0,1.5,0,2,0,4.2,0,5.8Z"
      style="fill:#390000; " />
    <path d="m2.8,72c-.7,1-1.6,1-2.5.5v-6.2c.4.3.8.6,1.2,1.1,1.2,1.3,2,3.2,1.3,4.6Z" style="fill:#f04943; " />
    <path
      d="m21.4,12.7c0,1.1-.5,2.3-1.5,3.3-.5.6-1.2,1.1-2,1.6-1.4.8-3.1,1.4-5,1.7,0,0,0,0-.1,0-.4,0-.7.1-1.1.2-1.4.2-2.8.2-4.2,0-.2,0-.3,0-.5,0-.2,0-.4,0-.6,0-.6,0-1.2-.2-1.8-.4,0,0-.1,0-.2,0-.2,0-.4-.1-.6-.2-1-.3-1.9-.7-2.7-1.2-.3-.2-.6-.4-.8-.5,0,0-.2-.1-.3-.2v-7.5h0c0,0,.1,0,.2.1,0,0,0,0,0,0,0,0,.2.1.2.2.2.1.4.2.5.3.6.4,1.3.7,2,.9,0,0,.1,0,.2,0,0,0,.1,0,.2,0,.1,0,.3,0,.4.1.4.1.8.2,1.2.3.1,0,.2,0,.3,0,0,0,.1,0,.2,0,0,0,.1,0,.2,0,0,0,0,0,0,0,.1,0,.3,0,.4,0,.5,0,1,.1,1.4.2,0,0,.2,0,.2,0,.3,0,.7,0,1,0,0,0,0,0,.1,0,.7,0,1.4,0,2.1,0,.1,0,.2,0,.3,0,0,0,.1,0,.2,0,0,0,.2,0,.3,0,0,0,.2,0,.2,0,.1,0,.2,0,.3,0,0,0,.2,0,.3,0,.1,0,.2,0,.3,0,.3,0,.7-.1,1-.2.2,0,.4,0,.6-.1.2,0,.4-.1.6-.2.3-.1.7-.2,1-.3,0,0,.2,0,.3-.1,0,0,0,0,0,0,0,0,.2,0,.2-.1.1,0,.2,0,.3-.1.3-.1.6-.3.8-.4.7-.4,1.3-.9,1.8-1.4,0,0,.1-.1.1-.2,1-1,1.5-2.2,1.5-3.4,0,1.3,0,6.6,0,7.6Z"
      style="fill:#566a63; " />
    <path
      d="m21.4,5.1c0,1.2-.5,2.3-1.5,3.4,0,0,0,.1-.1.2-.5.5-1.1,1-1.8,1.4-.3.2-.5.3-.8.4-.1,0-.2.1-.3.1,0,0-.2,0-.2.1,0,0,0,0,0,0,0,0,0,0-.1,0,0,0,0,0-.1,0,0,0,0,0,0,0-.3.1-.6.2-1,.3-.2,0-.4.1-.6.2-.2,0-.4.1-.6.1-.3,0-.7.1-1,.2-.1,0-.2,0-.3,0,0,0-.2,0-.3,0-.1,0-.2,0-.3,0,0,0-.2,0-.2,0,0,0-.2,0-.3,0,0,0-.1,0-.2,0-.1,0-.2,0-.3,0-.7,0-1.4,0-2.1,0,0,0,0,0-.1,0-.3,0-.7,0-1,0,0,0-.2,0-.2,0-.5,0-1-.1-1.4-.2-.1,0-.3,0-.4,0,0,0,0,0,0,0,0,0-.1,0-.2,0,0,0-.1,0-.2,0-.1,0-.2,0-.3,0-.4,0-.8-.2-1.2-.3-.1,0-.3,0-.4-.1,0,0-.1,0-.2,0,0,0-.1,0-.2,0-.7-.3-1.3-.6-2-.9-.2-.1-.4-.2-.5-.3,0,0-.2-.1-.2-.2,0,0,0,0,0,0,0,0-.1,0-.2-.1l1.4-.7h0c.2.2.4.3.7.4,4.1,2.4,10.6,2.4,14.7,0,4.1-2.4,4.1-6.2,0-8.5,0,0,0,0-.1,0l.7-.4h0c.1,0,.3.2.4.2,2.3,1.3,3.5,3.1,3.4,4.8Z"
      style="fill:#728981; " />
    <path d="m16.9,9c-4.1,2.4-10.7,2.4-14.7,0-.2-.1-.5-.3-.7-.4L16.8.4s0,0,.1,0c4.1,2.4,4,6.2,0,8.5Z"
      style="fill:#566a63; " />
    <path
      d="m45,94.9c0,.9,0,1.7,0,2.6h0c0,.8,0,1.7-.2,2.5h0c0,.8-.2,1.6-.3,2.4h0c-.1.8-.2,1.5-.4,2.3h0c-.1.8-.3,1.5-.5,2.2h0c-.2.8-.4,1.4-.6,2.1h0c-.2.7-.4,1.3-.7,1.9h0c-.2.7-.5,1.3-.7,1.8,0,0,0,0,0,.1-.3.6-.5,1.1-.8,1.6,0,0,0,0,0,.1-.3.5-.6,1-.9,1.5,0,0,0,0,0,.1-.3.5-.6,1-1,1.4,0,0,0,0,0,.1-.3.4-.7.9-1.1,1.3h0c-.4.5-.7.9-1.1,1.3h-.1c-.4.5-.8.8-1.2,1.2,0,0,0,0-.1,0-.4.3-.8.7-1.3,1,0,0,0,0-.1,0-.4.3-.9.6-1.3.8-8,4.7-19.2,4.1-31.5-3h0v-7.6c4.2,2.4,8.2,3.9,11.9,4.6.3,0,.7.1,1,.2.3,0,.6,0,1,.1.2,0,.3,0,.5,0,.3,0,.6,0,.9,0,.2,0,.3,0,.5,0,.2,0,.3,0,.5,0,1.1,0,2.2,0,3.2-.1.4,0,.8-.1,1.2-.2.1,0,.3,0,.4,0,.6-.1,1.2-.3,1.7-.4.2,0,.4-.1.6-.2,0,0,0,0,0,0,.2,0,.3-.1.5-.2,0,0,0,0,0,0,.1,0,.2,0,.3-.1,0,0,0,0,0,0,.2,0,.3-.1.5-.2,0,0,.1,0,.2,0,0,0,0,0,.1,0,0,0,0,0,.1,0,0,0,0,0,.1,0h.1c.1-.1.3-.2.4-.3,0,0,0,0,.1,0,0,0,.1,0,.2,0,0,0,0,0,0,0h0c0,0,.1,0,.2,0,0,0,.1,0,.2-.1,0,0,0,0,0,0,0,0,0,0,0,0,0,0,.1,0,.2-.1,0,0,0,0,0,0,0,0,0,0,.1,0,0,0,.2,0,.2-.1.1,0,.2-.1.3-.2.1,0,.2-.1.3-.2.2-.1.3-.2.4-.3,0,0,0,0,.1-.1,0,0,0,0,0,0,0,0,0,0,0,0,0,0,.2-.1.3-.2,0,0,0,0,0,0,0,0,0,0,0,0,0,0,.2-.2.3-.3,0,0,.2-.2.3-.2,0,0,0,0,0,0,0,0,.1-.1.2-.2,0,0,.2-.2.3-.2h0c.1-.1.3-.3.4-.4,0,0,0,0,.1-.1.1-.1.3-.3.4-.4,0,0,0,0,.1-.1,0,0,.2-.2.2-.3,0-.1.2-.2.3-.3,0-.1.2-.2.3-.3,0,0,.1-.2.2-.2.2-.2.3-.4.5-.7,0,0,0-.1.1-.2.1-.2.2-.3.3-.5.2-.2.3-.5.4-.7.1-.2.3-.4.4-.7.1-.3.3-.5.4-.8.1-.2.2-.4.3-.7h0s0,0,0-.1c.1-.2.2-.5.3-.7,0-.1.1-.2.2-.4,0,0,0-.1,0-.2,0,0,0-.1,0-.2,0,0,0,0,0-.1,0,0,0,0,0-.1,0-.2.1-.3.2-.5,0,0,0-.2,0-.2,0,0,0-.1,0-.2,0,0,0-.1,0-.2,0-.1,0-.2.1-.4,0-.2.1-.5.2-.7,0,0,0-.2,0-.3,0-.1,0-.3.1-.4,0-.1,0-.3.1-.4,0-.3.2-.7.2-1.1,0-.3.1-.5.2-.8,0-.2,0-.4.1-.6,0,0,0-.2,0-.3,0,0,0-.2,0-.3,0-.1,0-.3,0-.4,0-.1,0-.3,0-.4,0-.3,0-.6.1-1,0,0,0,0,0-.1,0,0,0-.1,0-.2,0,0,0,0,0-.1,0-.2,0-.3,0-.5,0,0,0,0,0-.1,0,0,0-.1,0-.2,0-.2,0-.3,0-.5,0-.2,0-.5,0-.7,0-.2,0-.4,0-.6,0-.4,0-.7,0-1.1,0-.4,0-.7,0-1.1v-.2c0-.4,0-.7,0-1.1,0-.3,0-.6,0-.9,0-.2,0-.3,0-.5,0-.2,0-.3,0-.5,0-.3,0-.5,0-.8,0-.5,0-1-.1-1.4s0-1-.2-1.5c0-.8-.2-1.6-.3-2.4,0-.2,0-.5-.1-.7,0-.2,0-.5-.1-.7-.3-1.6-.7-3.3-1.1-4.9,0-.3-.2-.7-.3-1,0-.3-.2-.7-.3-1-.2-.7-.4-1.3-.6-2-.1-.3-.2-.7-.3-1-.2-.7-.5-1.3-.7-2-.1-.3-.2-.6-.3-.9-.1-.3-.2-.6-.3-.9-.1-.3-.2-.6-.3-.9,0-.3-.2-.5-.3-.8-.4-.9-.7-1.8-1.1-2.7-.1-.3-.2-.5-.4-.8-.3-.6-.5-1.2-.8-1.8,0-.2-.2-.4-.3-.6-.3-.7-.7-1.3-1-1.9-.2-.4-.4-.7-.6-1.1-.2-.3-.3-.6-.5-.9-.2-.4-.5-.8-.7-1.3-.8-1.5-1.7-2.9-2.7-4.3-.5-.7-.9-1.4-1.4-2.1-.2-.3-.5-.7-.7-1-1-1.4-2-2.7-3-4s-1.1-1.3-1.6-1.9c-.5-.6-1.1-1.2-1.6-1.9-4.7-5.2-10-9.6-15.5-12.8h0s0,0-.1,0v-7.5h.1s0,0,0,0c24.4,14.1,44.2,48.3,44.1,76.4Z"
      style="fill:#d4d5d7; " />
  </g>
</svg>