<svg  xmlns="http://www.w3.org/2000/svg" viewBox="0 0 142.7 113.8">
  <g >
    <path
      d="m142.6,31.1l-6.8,3.9-1.1.6-1.8,1-1.3.7c.1-.4.2-.7.3-1.2,0-.4.2-.9.3-1.5.9-5.6-5.7-10.4-8.7-12.3-3.1-1.8-9.4-4-7.4-6.3,0,0,.1-.2.2-.2l.5.3,25.7,14.9Z"
      style="fill:#ece1c5; fill-rule:evenodd; " />
    <path d="m142.6,31.1l-6.8,3.9-1.1.6c.1-.8.2-1.7.2-2.7-.2-5.6-8.7-10.6-14.1-12.9-5.4-2.2-3.9-3.9-3.9-3.9l25.7,14.9Z"
      style="fill:#a7c623; fill-rule:evenodd; " />
    <path
      d="m121.6,24.9s.4-1.9-.6-2.3c-1-.4-1.7-.1-2.2-.4-.5-.2-.6-.9-.6-.9,0,0,0,1.6,1.3,1.9,1.4.2,1.6.3,1.9.9.3.6.2.9.2.9h0Z"
      style="fill:#2bbfdb; fill-rule:evenodd; " />
    <path
      d="m129.3,29.4s1.7,1.7,1.4,3.6c-.3,1.9-1,2.4-1.2,3.5-.1,1.1.8,1.8.8,1.8,0,0-1.1-1.3,0-2.5,1.1-1.2,1.5-2.7,1.2-4.1-.3-1.4-2.2-2.4-2.2-2.4h0Z"
      style="fill:#2bbfdb; fill-rule:evenodd; " />
    <line x1="131.7" y1="37.4" x2="131.7" y2="37.4" style="fill:none; " />
    <line x1="142.7" y1="31.1" x2="142.6" y2="31.1" style="fill:none; " />
    <polygon points="134.7 35.7 131.7 37.4 131.7 44.9 134.7 43.2 134.7 35.7"
      style="fill:#d4cab1; fill-rule:evenodd; " />
    <polygon points="142.6 31.1 134.7 35.7 134.7 38.6 142.6 34 142.6 31.1" style="fill:#a7c623; fill-rule:evenodd; " />
    <polygon points="142.6 34 92.6 63.2 92.8 82.9 142.6 54 142.6 34" style="fill:#af9179; fill-rule:evenodd; " />
    <path
      d="m80.5,89.1c-.3-.5-1.1-1.5-2.5-2.4-1.9-1.2-3.6-1.2-3.6-1.2,0,0,2.4-.9,4.3.6,1.4,1,1.8,2.3,2,2.9l2.1-1.2c0,0,0-.2-.1-.2-.4-.9-1.7-2.1-1.9-2.3.2.1,2,1,2.7,2.1l1.6-.9c-1-.5-1.9-1.4-3.1-2.4-1.8-1.6-4.7-1.4-4.7-1.4,0,0,2-1,4.5,0,2.5.9,2.2,1.8,4.2,2.9.1,0,.2.1.3.2l5.4-3.2-.7-.4c-4.9-2.6-10.2-2.8-14.9-2.1-5.7.9-8.5,1.1-11,0-2.5-1-3.5-1.8-4.5-2.1-.1,0-.3,0-.5-.1h0l-.3.2c.2,0,.4.2.6.3,0,0,0,0,.1,0,.2.1.4.2.7.4h0s0,0,.1,0c0,0,0,0,.1,0,0,0,0,0,0,0,.7.4,1.5.9,2.2,1.3,0,0,0,0,0,0h0c.2.1.4.3.6.4.1,0,.2.2.3.3,0,0,.2.1.3.2s0,0,0,0c0,0,.1.1.2.2,0,0,0,0,0,0,.1.1.2.3.3.4,0,0,0,.1,0,.2,0,0,0,.1,0,.2,0,.2,0,.3-.3.4-1.7,1.1-2,.3-4.8,1-2.8.8-.9,2.6-2.3,3.6-1.3,1.1-2,.9-6.2.3-4.2-.5-7,0-9.8,1.3-2.8,1.2-2.1,3.6-1,5.2,1.1,1.6.5,3-2.9,3.3-3.4.4-5.4,1.4-7.7,2.5-2.3,1.1-1.6,2.4-2.2,3.5-.4.7-2.4.7-3.9.6-.1,0-.2,0-.3,0h0c0,0-.1,0-.2,0-.3,0-.5,0-.6,0,.9.2,1.7.1,3.1.6,2.4.8,2.2,1.9,4.7,3.7,2.1,1.5,5.4,2.9,7.5,4.9m6.1-18.8c-.1,1-1,2.2-1.1,2.3,0-.2.8-1.8,0-2.5-.8-.8-2.1-1.9-1.8-2.7s1.4-.9,1.4-.9c0,0-1.1.2-.7,1.1.4.9,2.3,1.5,2.1,2.6Zm18.2-8.5c-1.1.6.1,1.7-1.4,2.5-1.5.8-3,.9-3,.9,0,0,1.5-.5,1.9-1.3.4-.7-.8-2,1.4-2.9,2.1-.8,5.6,1.5,5.8,1.6-.2,0-3.7-1.5-4.8-.9Zm11.1-2.4c-2.3.3-2.1,1.2-4.7,1.4-2.4.2-3.2-1.4-3.3-1.6,0,0,.6.7,2.5.7,2.1,0,1.6-.3,4.3-1,2.3-.6,3.8.7,4.2,1.1-.3-.2-1.1-.8-2.9-.6Z"
      style="fill:#1dc2e2; " />
    <path
      d="m76.9,84.2c-.3-.2-1.1-.8-2.9-.6-2.3.3-2.1,1.2-4.7,1.4-2.4.2-3.2-1.4-3.3-1.6,0,0,.6.7,2.5.7,2.1,0,1.6-.3,4.3-1,2.3-.6,3.8.7,4.2,1.1Z"
      style="fill:#fff; fill-rule:evenodd; " />
    <path
      d="m86.3,85.8l-1.2.7c-1-.5-1.9-1.4-3.1-2.4-1.8-1.6-4.7-1.4-4.7-1.4,0,0,2-1,4.5,0,2.5.9,2.2,1.8,4.2,2.9.1,0,.2.1.3.2Z"
      style="fill:#fff; fill-rule:evenodd; " />
    <path d="m83.5,87.4l-.7.4c0,0,0-.2-.1-.2-.4-.9-1.7-2.1-1.9-2.3.2.1,2,1,2.7,2.1Z"
      style="fill:#fff; fill-rule:evenodd; " />
    <path d="m80.7,89h-.1c-.3-.4-1.1-1.4-2.5-2.3-1.9-1.2-3.6-1.2-3.6-1.2,0,0,2.4-.9,4.3.6,1.4,1,1.8,2.3,2,2.9Z"
      style="fill:#fff; fill-rule:evenodd; " />
    <path d="m80.7,89.4s0-.1-.2-.3h.1c0,.2,0,.3,0,.3Z" style="fill:#9df0ff; fill-rule:evenodd; " />
    <path
      d="m67.7,86.9c-.2,0-3.7-1.5-4.8-.9-1.1.6.1,1.7-1.4,2.5-1.5.8-3,.9-3,.9,0,0,1.5-.5,1.9-1.3.4-.7-.8-2,1.4-2.9,2.1-.8,5.6,1.5,5.8,1.6Z"
      style="fill:#9df0ff; fill-rule:evenodd; " />
    <path
      d="m44.7,94.5c-.1,1-1,2.2-1.1,2.3,0-.2.8-1.8,0-2.5-.8-.8-2.1-1.9-1.8-2.7s1.4-.9,1.4-.9c0,0-1.1.2-.7,1.1.4.9,2.3,1.5,2.1,2.6Z"
      style="fill:#9df0ff; fill-rule:evenodd; " />
    <path
      d="m65.5,82.3c0,.2,0,.3-.3.4-1.7,1.1-2,.3-4.8,1-2.8.8-.9,2.6-2.3,3.6-1.3,1.1-2,.9-6.2.3-4.2-.5-7,0-9.8,1.3-2.8,1.2-2.1,3.6-1,5.2,1.1,1.6.5,3-2.9,3.3-3.4.4-5.4,1.4-7.7,2.5-2.3,1.1-1.6,2.4-2.2,3.5-.5,1-4.6.6-5.1.5,0,0,0,0,0,0-.3,0-.5-.1-.9-.3,0,0-.1,0-.2,0,0,0,0,0-.1,0-.1,0-.2-.1-.3-.2-.1,0-.2-.1-.4-.2,0,0-.1,0-.2-.1,0,0,0,0-.1,0,0,0,0,0,0,0,0,0,0,0,0,0,0,0,0,0-.1,0s0,0,0,0c0,0-.1-.1-.2-.2,0,0,0-.1-.1-.2,0,0,0,0,0,0,0,0,0-.1-.1-.2,0,0,0-.1-.1-.2,0,0,0,0,0,0,0,0,0-.2,0-.3,0,0,0-.1,0-.2,0-.2,0-.4-.1-.5,0,0,0,0,0,0,0,0,0-.1,0-.2,0-.1,0-.2,0-.3,0-.2,0-.3-.2-.5,0,0,0,0,0-.1,0-.1-.1-.2-.2-.3-.1-.1-.3-.3-.5-.4-1.6-.9-3-.9-6-2-3-1-5.5-3.9-5.5-3.9,0,0,0,0,0,0,0,0,0,0,0,0,.3-.1.6-.2.9-.4.1,0,.3-.1.4-.2.1,0,.3-.2.4-.3.2-.2.4-.3.6-.5,0,0,0,0,.1-.1,0,0,.1-.1.2-.2.1-.1.2-.2.3-.3,0,0,.2-.2.3-.3.1-.1.3-.3.4-.5.4-.5.8-.9,1.3-1.2,0,0,.2-.1.2-.2.3-.2.6-.4.9-.5,0,0,.2,0,.3-.1s.2,0,.3-.1c.2,0,.4-.1.6-.2,0,0,.1,0,.2,0,.1,0,.2,0,.3,0,0,0,0,0,.1,0,.2,0,.4,0,.6,0h0c.1,0,.3,0,.4,0,.2,0,.4,0,.5,0,.2,0,.3,0,.5,0,0,0,0,0,0,0,.2,0,.3,0,.5.1.2,0,.3,0,.5.2.2,0,.4.2.7.3,0,0,.1,0,.2,0,.1,0,.2.1.4.2.2,0,.4.1.5.2.2,0,.3.1.5.2.2,0,.3.1.5.1.2,0,.3,0,.5.1.2,0,.5,0,.7.1.1,0,.2,0,.3,0,.1,0,.3,0,.4,0s.3,0,.5,0c0,0,.1,0,.2,0,.1,0,.3,0,.4,0,.2,0,.4,0,.5-.1.1,0,.3,0,.4-.1,0,0,.1,0,.2,0,.1,0,.2,0,.3-.1.2,0,.4-.2.7-.3.1,0,.3-.1.4-.2,0,0,0,0,0,0,0,0,.2,0,.3-.1.1,0,.3-.2.4-.2,0,0,0,0,0,0,.2-.1.5-.3.7-.5.1-.1.3-.2.4-.3.1-.1.3-.2.4-.4.1-.1.3-.2.4-.4.1-.1.3-.3.4-.4h0c.3-.4.6-.7.9-1.1,0,0,.2-.2.2-.3,0-.1.2-.2.3-.4,0-.1.2-.2.3-.4.5-.6,1-1.2,1.5-1.8,0,0,.2-.2.2-.3h0c0,0,.2-.2.2-.3,0,0,0,0,.1-.1.2-.2.4-.4.5-.6.2-.2.4-.4.6-.6,0,0,0,0,0,0,.2-.2.4-.3.6-.5.1,0,.2-.2.3-.3.1,0,.2-.2.3-.3.1,0,.2-.2.3-.2.1,0,.3-.2.4-.3.2-.1.5-.3.7-.4,0,0,0,0,0,0,0,0,0,0,0,0,0,0,.1,0,.2,0,0,0,0,0,0,0,.3-.1.5-.3.8-.4.1,0,.3-.1.4-.2.1,0,.3-.1.5-.2.1,0,.3-.1.5-.2.2,0,.5-.2.7-.2.2,0,.5-.1.8-.2h0c.2,0,.3,0,.5-.1.2,0,.4,0,.6-.1.2,0,.3,0,.5,0,0,0,0,0,0,0h0s0,0,0,0c.8-.1,1.5-.2,2.1-.2,0,0,.1,0,.2,0,0,0,.1,0,.2,0h0c.3,0,.5,0,.8,0,.2,0,.4,0,.6,0,0,0,.2,0,.3,0,.2,0,.3,0,.5,0h0c0,0,0,0,.1,0,.2,0,.4,0,.6.1.2,0,.4,0,.6.1.1,0,.3,0,.4.1.4,0,.8.2,1.1.3.2,0,.5.1.7.2.2,0,.5.1.7.2.2,0,.3,0,.5.1.2,0,.4,0,.5.1.1,0,.3,0,.4,0,.4,0,.8.1,1.3.2.1,0,.2,0,.4,0,.4,0,.7,0,1.1,0,.9,0,1.5-.2,2-.4,0,0,.2,0,.5.2.4.2.9.5,1.5.8,0,0,0,0,.1,0,0,0,0,0,.1,0,0,0,0,0,0,0,.7.4,1.5.9,2.2,1.3,0,0,0,0,0,0h0c.2.1.4.3.6.4.1,0,.2.2.3.3,0,0,.2.1.3.2s0,0,0,0c0,0,.1.1.2.2,0,0,0,0,0,0,.1.1.2.3.3.4,0,0,0,.1,0,.2,0,0,0,.1,0,.2Z"
      style="fill:#7eb80b; fill-rule:evenodd; " />
    <path
      d="m65.5,82.3c0,.2,0,.3-.3.4-1.7,1.1-2,.3-4.8,1-2.8.8-.9,2.6-2.3,3.6-1.3,1.1-2,.9-6.2.3-4.2-.5-7,0-9.8,1.3-2.8,1.2-2.1,3.6-1,5.2,1.1,1.6.5,3-2.9,3.3-3.4.4-5.4,1.4-7.7,2.5-2.3,1.1-1.6,2.4-2.2,3.5-.5,1-4.6.6-5.1.5,0,0,0,0,0,0-.3,0-.5-.1-.9-.3,0,0-.1,0-.2,0,0,0,0,0-.1,0-.1,0-.2-.1-.3-.2-.1,0-.2-.1-.4-.2,0,0-.1,0-.2-.1,0,0,0,0-.1,0,0,0,0,0,0,0,0,0,0,0,0,0,0,0,0,0-.1,0s0,0,0,0c0,0-.1-.1-.2-.2,0,0,0-.1-.1-.2,0,0,0,0,0,0,0,0,2.5,1.1,5,.4,2.5-.7,1.5-2.7,4.5-4.6,3.1-1.8,7.1-1.1,8.4-2.1,1.3-1,.4-2.2-.2-4.1-.2-.5,0-1.2.4-1.8h0c1-1.6,3.5-3.2,6.4-3.7h0c.1,0,.2,0,.4,0,4.3-.7,8.8.7,11,0,2.2-.7-1-2.7,1.8-3.7,2.9-1,3.4-.3,4.4-.9,1-.6-1.4-3-1.4-3h0s0,0,.1,0c0,0,0,0,.1,0,0,0,0,0,0,0,.7.4,1.5.9,2.2,1.3,0,0,0,0,0,0h0c.2.1.4.3.6.4.1,0,.2.2.3.3,0,0,.2.1.3.2s0,0,0,0c0,0,.1.1.2.2,0,0,0,0,0,0,.1.1.2.3.3.4,0,0,0,.1,0,.2,0,0,0,.1,0,.2Z"
      style="fill:#d9c97b; fill-rule:evenodd; " />
    <path
      d="m132.3,34.8c-.2,1.1-.4,1.9-.6,2.7l-1,.6h0s-.1,0-.1,0l-36.3,21h0s-.7.4-.7.4h0s-1.3.8-1.3.8h0c0,0,0,0,0,0-5.2-3.2-11-3.5-16.1-2.7-5.7.9-8.5,1.1-11,0-2.5-1-3.5-1.8-4.5-2.1-.3-.1-.8-.2-1.3-.2,2.1-.6,1.4-1.8,4.8-4.6,4.1-3.5,6.1-3.1,12.7-3.8,6.6-.7,7.6-2.8,6.8-4.4-.8-1.6-3.3-3,1.1-5.4,4.4-2.4,11.8-1.9,22.1-3.3,10.3-1.4,13.2-6.7,11.3-10-1.8-3.3-6.2-3.6-6-6.1.1-1.3,1.4-2.2,2.5-2.8l1.8,1.1c0,0-.1.2-.2.3-2,2.3,4.4,4.5,7.4,6.3,3.1,1.8,9.6,6.6,8.7,12.3Z"
      style="fill:#11aecd; fill-rule:evenodd; " />
    <path
      d="m102.1,7.7l12.4,7.2c-1.2.6-2.4,1.5-2.5,2.8-.2,2.6,4.2,2.8,6,6.1,1.8,3.3-1,8.7-11.3,10-10.3,1.4-17.6.9-22.1,3.3-4.4,2.4-1.9,3.8-1.1,5.4.8,1.6-.2,3.7-6.8,4.4-6.6.7-8.6.3-12.7,3.8-4.1,3.5-2.2,4.4-6.8,4.9-4.7.5-6.6-2.9-14.6-1.4-8,1.5-10,7.7-13.7,10.6-3.6,2.9-6,3-9.6,1.4-3.6-1.6-6.3-.5-8.2,1.7-1.4,1.6-2.7,2.6-3.8,2.9L0,66.7,102.1,7.7h0Z"
      style="fill:#ece1c5; fill-rule:evenodd; " />
    <path
      d="m102.1,7.7l11.2,6.5h0s-2.9.8-2.4,3.9c.5,3,4.3,4.3,5.1,6.9.9,2.6,1,4.8-5.6,6.4-6.5,1.5-17.8,1.6-24.1,3.1-6.4,1.5-7,4.5-7,6.6,0,2.2,2.2,3.4-3.5,3.6-5.7.2-10.2,1.9-13.6,4.1-3.4,2.2-2,4.3-4.7,4.7-2.7.4-5.7-1.5-12.2-1.5s-12.1,3.8-14.4,6c-2.3,2.2-1.6,4.3-5.2,6-3.6,1.7-5.2-.3-9.6-.3-4.4,0-5.1,2-7,3.9-1.9,1.8-3.6,2.3-3.6,2.3h0L0,66.7,102.1,7.7h0Z"
      style="fill:#a7c623; fill-rule:evenodd; " />
    <path
      d="m62.3,56.4h0v22.5m-55-8l-1.5-.9h-.2c0-.1,0-.1,0-.1h0s-.2-.1-.2-.1h-.2c0-.1,0-.1,0-.1m55.3-14.2c-.3-.1-.8-.2-1.3-.2,0,0,0,0-.1,0,0,0-.2,0-.2,0-.1,0-.2,0-.3,0,0,0,0,0-.1,0,0,0-.2,0-.3,0,0,0,0,0-.1,0,0,0-.2,0-.3,0-.1,0-.3,0-.5,0-.4,0-.7,0-1,0s-.4,0-.5,0h0c0,0-.2,0-.3,0-.1,0-.3,0-.4,0,0,0,0,0-.1,0-.1,0-.3,0-.4,0-.1,0-.3,0-.4,0-.1,0-.3,0-.5-.1-.6-.1-1.1-.3-1.7-.5,0,0,0,0,0,0-.2,0-.4-.1-.6-.2,0,0,0,0,0,0h0c-.1,0-.3,0-.5-.1,0,0,0,0-.1,0,0,0-.1,0-.2,0-.2,0-.3,0-.5-.1,0,0-.1,0-.2,0,0,0-.2,0-.3,0,0,0-.1,0-.2,0-.2,0-.4,0-.5,0,0,0,0,0,0,0-.1,0-.2,0-.4,0,0,0-.1,0-.2,0,0,0,0,0-.1,0,0,0-.1,0-.2,0,0,0,0,0,0,0,0,0,0,0-.1,0,0,0-.1,0-.2,0,0,0-.1,0-.2,0s0,0,0,0c-.1,0-.3,0-.5,0,0,0-.2,0-.2,0-1.1,0-2.4.1-4,.4-.5,0-1,.2-1.4.3-.1,0-.2,0-.4.1,0,0-.2,0-.2,0-.1,0-.3,0-.4.2-.2,0-.5.2-.7.3,0,0-.2,0-.2.1-.1,0-.3.1-.4.2,0,0,0,0,0,0,0,0-.2,0-.3.1,0,0-.1,0-.2,0,0,0,0,0-.1,0,0,0,0,0,0,0h0s0,0,0,0c-.1,0-.2.1-.4.2,0,0,0,0,0,0,0,0,0,0,0,0-.8.5-1.6,1.1-2.3,1.7-.1.1-.2.2-.4.3,0,0-.1.1-.2.2l-.2.2s0,0-.1.1c0,0,0,0-.1.1-.6.6-1.1,1.2-1.6,1.8,0,0,0,0,0,0,0,0-.1.2-.2.2,0,0,0,0,0,0,0,0-.2.2-.2.3-.1.2-.3.4-.5.6,0,0-.1.2-.2.3,0,0,0,.1-.1.1-.3.3-.5.6-.8.9-.1.1-.2.2-.3.3-.4.4-.8.9-1.3,1.2-.2.1-.3.2-.5.4-.1,0-.2.2-.3.2,0,0,0,0-.1.1,0,0,0,0,0,0,0,0-.1,0-.2.1-.1,0-.3.2-.4.3-.1,0-.2.2-.4.2,0,0,0,0-.1,0h0s0,0-.1,0c0,0,0,0,0,0,0,0,0,0,0,0,0,0,0,0,0,0,0,0-.2,0-.2.1-.1,0-.2.1-.3.1,0,0,0,0,0,0,0,0,0,0,0,0,0,0-.2,0-.2,0-.1,0-.3.1-.4.1,0,0,0,0,0,0-.1,0-.3,0-.4.1,0,0-.1,0-.2,0,0,0,0,0,0,0h0s0,0-.1,0c-.1,0-.2,0-.3,0-.1,0-.2,0-.4,0h0c0,0-.1,0-.2,0,0,0-.2,0-.2,0-.5,0-.9,0-1.4-.2-.3,0-.6-.1-.9-.2,0,0,0,0-.1,0-.2,0-.3-.1-.5-.2-.1,0-.2,0-.4-.1-.2,0-.3-.1-.5-.2,0,0-.1,0-.2,0-.5-.2-1-.4-1.4-.5,0,0-.1,0-.2,0,0,0-.1,0-.2,0h0c0,0-.2,0-.3,0,0,0-.1,0-.1,0h0s0,0,0,0c-.1,0-.2,0-.3,0,0,0-.1,0-.2,0-.3,0-.7,0-1,0,0,0,0,0,0,0,0,0-.2,0-.3,0,0,0,0,0,0,0,0,0,0,0,0,0,0,0,0,0,0,0,0,0-.2,0-.3,0h0s0,0,0,0c0,0-.2,0-.3,0-.2,0-.3,0-.4.1-.1,0-.2,0-.3.1,0,0-.2,0-.3.1-.2.1-.5.3-.7.4,0,0-.1,0-.2.1,0,0,0,0,0,0h0s0,0-.1,0c-.1.1-.3.2-.4.3-.1.1-.3.3-.4.4,0,0-.2.2-.3.3,0,0,0,0,0,0,0,0-.1.1-.2.2,0,0,0,0,0,0h0c0,.1,0,.1,0,.2,0,0,0,0,0,0,0,0,0,0-.1.1,0,0,0,0,0,0,0,0,0,0,0,0,0,0,0,0,0,0-.1.1-.2.2-.3.3h0s0,0,0,0c0,0,0,0,0,0,0,0,0,0,0,0,0,0,0,0,0,0t0,0s0,0,0,0h0s0,0,0,0c0,0,0,0-.1,0,0,0,0,0,0,0h0s0,0,0,0c0,0-.2.1-.3.2,0,0-.1,0-.2.1h0s0,0-.1,0c0,0,0,0,0,0-.3.2-.6.4-.9.6,0,0-.1,0-.2.1,0,0-.1,0-.2,0,0,0-.1,0-.2,0t0,0h0v22.5s0,0,0,0c0,0,0,0,0,0,.3-.1.6-.2.9-.4.1,0,.3-.1.4-.2.1,0,.3-.2.4-.3.2-.2.4-.3.6-.5,0,0,0,0,.1-.1,0,0,.1-.1.2-.2.1-.1.2-.2.3-.3,0,0,.2-.2.3-.3.1-.1.3-.3.4-.5.4-.5.8-.9,1.3-1.2,0,0,.2-.1.2-.2.3-.2.6-.4.9-.5,0,0,.2,0,.3-.1s.2,0,.3-.1c.2,0,.4-.1.6-.2,0,0,.2,0,.2,0,.1,0,.2,0,.3,0,0,0,0,0,.1,0,.2,0,.4,0,.6,0h0c.1,0,.3,0,.4,0,.2,0,.4,0,.5,0,.2,0,.3,0,.5,0,0,0,0,0,0,0,.2,0,.3,0,.5.1.2,0,.3,0,.5.2.2,0,.4.2.7.3,0,0,.1,0,.2,0,.1,0,.2.1.4.2.2,0,.4.1.5.2.2,0,.3.1.5.2.2,0,.3.1.5.1.2,0,.3,0,.5.1.2,0,.5,0,.7.1.1,0,.2,0,.3,0,.1,0,.3,0,.4,0s.3,0,.5,0c0,0,.1,0,.2,0,.1,0,.3,0,.4,0,.2,0,.3,0,.5-.1.1,0,.3,0,.4-.1,0,0,.1,0,.2,0,.1,0,.2,0,.3-.1.2,0,.4-.2.7-.3.1,0,.3-.1.4-.2,0,0,0,0,0,0,0,0,.2,0,.3-.1.1,0,.3-.2.4-.2,0,0,0,0,0,0,.2-.1.5-.3.7-.5.1-.1.3-.2.4-.3.1-.1.3-.2.4-.4.1-.1.2-.2.4-.4.1-.1.3-.3.4-.4h0c.3-.4.6-.7.9-1.1,0,0,.2-.2.2-.3,0-.1.2-.2.3-.4,0-.1.2-.2.3-.4.5-.6,1-1.2,1.5-1.8,0,0,.2-.2.2-.3h0c0,0,.2-.2.2-.3s0,0,.1-.1c.2-.2.4-.4.5-.6.2-.2.4-.4.6-.6,0,0,0,0,0,0,.2-.2.4-.3.6-.5.1,0,.2-.2.3-.3.1,0,.2-.2.3-.3.1,0,.2-.2.3-.2.1,0,.3-.2.4-.3.2-.1.5-.3.7-.4,0,0,0,0,0,0,0,0,0,0,0,0,0,0,.1,0,.2,0,0,0,0,0,0,0,.3-.1.5-.3.8-.4.1,0,.3-.1.4-.2.1,0,.3-.1.5-.2.2,0,.3-.1.5-.2.2,0,.5-.2.7-.2.2,0,.5-.1.8-.2h0c.2,0,.3,0,.5-.1.2,0,.4,0,.6-.1.2,0,.3,0,.5,0,0,0,0,0,0,0h0s0,0,0,0c.8-.1,1.5-.2,2.1-.2,0,0,.1,0,.2,0,0,0,.1,0,.2,0h0c.3,0,.5,0,.8,0,.2,0,.4,0,.6,0,0,0,.2,0,.3,0,.2,0,.3,0,.5,0h0c0,0,0,0,.1,0,.2,0,.4,0,.6.1.2,0,.4,0,.6.1.1,0,.3,0,.4.1.4,0,.8.2,1.1.3.2,0,.5.1.7.2.2,0,.5.1.7.2.2,0,.3,0,.5.1.2,0,.4,0,.5.1.1,0,.3,0,.4,0,.4,0,.8.1,1.3.2.1,0,.2,0,.4,0,.4,0,.7,0,1.1,0,.9,0,1.5-.2,2-.4.3,0,.6,0,.8,0h0c.2,0,.4,0,.5.1.5.2,1.1.5,1.8.9v-22.5c-.8-.4-1.3-.7-1.8-.9Z"
      style="fill:#af9179; " />
    <path
      d="m48.6,76.5c-1.6-.2-3.6-.2-6.1.2-5.8,1.1-8.5,4.7-10.9,7.6v-22.5c2.4-3,5.1-6.5,10.9-7.6,2.6-.5,4.5-.5,6.1-.2v22.5h0Z"
      style="fill:#836145; fill-rule:evenodd; " />
    <path
      d="m19.5,88.8c0,0-.1,0-.2,0-3.6-1.6-6.3-.5-8.2,1.7-.5.5-.9,1-1.4,1.4v-22.5c.4-.4.9-.9,1.4-1.4,1.9-2.2,4.6-3.3,8.2-1.7,0,0,.1,0,.2,0v22.5h0Z"
      style="fill:#836145; fill-rule:evenodd; " />
    <path
      d="m7.3,70.9c1.1-.4,2.4-1.3,3.8-2.9.5-.5,1-1,1.5-1.4,0,0-.2,2.7-.5,3.9-.2,1.2,0,3.8,0,3.8,0,0-.2-.9-.3-1.2-.1-.3-.2-.3-.2-.3,0,0-.3,1.2-.2,2.2,0,1,0,1.9-.1,2.7,0,.8,0,1.8,0,1.8,0,0-.4-.7-.4-1.5,0-.9-.4-1.6-.4-1.6,0,0-.6,2.9-.6,4.4,0,1.5-.1,3.5-.4,4.6-.3,1-.4,2.6-.4,2.6,0,0-.2-.9-.2-1.5,0-.7-.3-1.7-.3-1.7,0,0,.1,1-.2,1.5-.4.5-.8,2.8-.8,2.8v-18.2h0Zm7-5.1c1.4-.4,3.1-.3,4.9.5,2.9,1.3,5,1.5,7.6,0h0s0,2-.4,2.9c-.3.9-.8,3.7-.8,5.5,0,1.8-.6,5.1-.6,5.1,0,0-.3-1.4-.3-3.5,0-2.1,0-3.4,0-4-.1-.6-.4-.7-.4-.7,0,0,0,1-.4,1.7-.4.7-.4,3.6-.4,3.6,0,0-.4-1.3-.6-1.5-.2-.2-.2-.2-.2-.2,0,0,0,1.2-.4,2.5-.4,1.3-.7,6.5-.7,6.5,0,0-.6-1.7-.6-3.1,0-1.4-.4-1.5-.5-2.2-.2-.7-.5-1.8-.8-2.8-.3-1-.3-1.9-.5-2.5-.2-.6-.3-.5-.3-.7,0-.1-.4,1.2-.6,2-.2.9-.2,1.3-.2,1.3,0,0-.2-.4-.2-1.6,0-1.2-.3-1.6-.5-2.3-.3-.7-.2-2.1-.5-2.9-.3-.9-.5-.9-.5-.9,0,0-.2.8-.5,1.3-.4.5-.3,1.1-.3,1.1,0,0-.4-1.1-.4-2.4,0-1.2-.1-1.9-.3-2.3-.2-.4-.5-.5-.5-.5h0Zm13.4,0c.4-.2.7-.5,1.1-.8,3.6-2.9,5.7-9,13.7-10.6,3.7-.7,6.1-.4,8.1.2,0,0-.4,1.2-.4,2.3,0,1.2-.8,3.6-.8,3.7,0,0-.3-.9-.4-1.8,0-.9-.3-1.1-.3-1.1,0,0,0,1.5-.5,2.4-.4.9-.5,2.2-.8,2.9-.3.7-.3,1.3-.3,1.3,0,0-.2-.7-.2-1.7,0-1-.7-1.2-.7-1.2s0,.9-.6,2.7c-.5,1.8,0,2.8-.2,3.6-.2.8-.5,2.9-.6,4-.2,1.2-.7,4.5-.7,4.5,0,0-.3-1.5-.3-3,0-1.5-.2-5.6-.5-6.6-.3-1,0-2.4-.3-2.8-.2-.4-.5.5-.6,1.2,0,.7-.2,1.4-.2,1.4,0,0-.3-1.4-.2-2.9,0-1.5-.1-1.8-.2-2.9,0-1.1,0-2.6-.5-2.9-.5-.3-1.3,2.6-1.3,2.6,0,0-.3-1-.2-2.3,0-1.3-.8-2.3-1.4-1.9-.6.4-.7.9-.7.9,0,0-.2,2.2-.6,3.5-.4,1.2-.6,3-.6,3,0,0-.2-1.2-.3-2,0-.8-.6-1-.6-1,0,0-.4,3.2-1,4.7-.6,1.5-.6,4-.6,4,0,0-.1-.2-.3-1.1-.2-.9-.6-1.8-.6-1.8,0,0-.3,3.3-.4,4.5-.1,1.2-.3,2.2-.5,3.7-.2,1.5-.7,3.1-.7,4.5s-.4,2.7-.4,2.6-.8-3.6-.8-5.3-.6-3.7-.7-5.3c0-1.6-.1-1.8-.3-2.2-.1-.3-.3-.4-.3-.4,0,0-.2.5-.4,1.2-.1.7-.3,1.3-.3,1.3,0,0-.3-1.5-.4-2.6,0-1-.4-2.6-.4-2.6h0Zm23.5-11.1c2,.6,3.7,1.3,6,1,.9,0,1.5-.2,2-.3v18.6s-.7-3.6-1-5.6c-.3-2-.3-4-.5-4.7-.2-.7-.2-1.7-.2-1.7,0,0-.4,1.2-.6,2.4-.2,1.3-.8,3.6-.8,3.6,0,0-.4-2.4-.5-4-.1-1.6-.6-2.4-.8-3.4-.2-.9-.3-2.3-.6-2.5-.4-.1-1.1,2-1.1,2,0,0-.7-2-.8-3.3,0-1.3-1-2.3-1.1-2.3h0Z"
      style="fill:#629105; fill-rule:evenodd; " />
    <path
      d="m91.9,60.2v20c-.1,0-.1,2.4-.1,2.4-.3-.2-.6-.3-.8-.5-4.9-2.6-10.2-2.8-14.9-2.1-5.7.9-8.5,1.1-11,0-2.5-1-3.5-1.8-4.5-2.1-.1,0-.3,0-.5-.1h0c-.2,0-.5,0-.8,0v-22.5c.5,0,1,0,1.3.2,1,.4,2,1.1,4.5,2.1,2.5,1,5.3.8,11,0,1.5-.2,3.1-.4,4.7-.4s.5,0,.8,0c.3,0,.5,0,.8,0h.1c.2,0,.4,0,.7,0,.1,0,.3,0,.4,0,0,0,0,0,0,0,.1,0,.2,0,.3,0,.3,0,.7,0,1,.2,0,0,.2,0,.2,0,.2,0,.5,0,.7.1.5.1,1,.2,1.5.4.1,0,.3,0,.4.1.2,0,.4.1.6.2.2,0,.4.2.6.2.1,0,.3.1.4.2,0,0,0,0,.1,0,0,0,0,0,.1,0,0,0,.1,0,.2.1,0,0,0,0,.1,0,.2.1.5.2.7.3,0,0,.1,0,.2.1,0,0,0,0,0,0,0,0,.1,0,.2.1h0s0,0,0,0c.2.1.4.2.6.3Z"
      style="fill:#099db9; fill-rule:evenodd; " />
    <polygon points="0 66.7 7.3 70.9 7.3 93.4 0 89.2 0 66.7 0 66.7" style="fill:#bfa083; fill-rule:evenodd; " />
    <path
      d="m63.7,55.3c0,0,2,.2,5.6,1.3,3.5,1.1,6.2-1,9.2-.9,3.1,0,4.8.7,4.8.7,0,0-3.8-2.7-7.7-1.7-3.9,1-2.4,1.1-5.9.5-3.4-.7-6,.2-6,.2h0Z"
      style="fill:#74d4e4; fill-rule:evenodd; " />
    <path d="m94.3,59h0s-.7.4-.7.4h0c-3.2-1.9-7.1-2.7-7.1-2.7,0,0,2.4,0,6.6,1.7.5.2.9.4,1.3.6Z"
      style="fill:#74d4e4; fill-rule:evenodd; " />
    <path
      d="m85.5,45c0,0,2.5-.5,2.5-2,0-1.6-1.4-1.8-1-3,.4-1.2,1.7-1.7,1.7-1.7,0,0-3.1.2-3.5,1.7-.3,1.6,1.2,1.7,1.3,3.1,0,1.4-.9,1.9-.9,1.9h0Z"
      style="fill:#2bbfdb; fill-rule:evenodd; " />
    <path
      d="m7.3,89.1s-.5-2.7-.4-3.6c.1-.9.2-1.4,0-2.3-.1-.9-.2-1.5-.4-2.2-.2-.7-.3-2.2-.4-2.8-.2-.6-.3-.7-.3-.7,0,0-.4,1.5-.8,2.2-.4.7-1.1,3.2-1.1,3.2,0,0-.3-3.2-.2-4.9.1-1.7,0-3.5,0-4.2-.1-.7-.4-.9-.4-.9,0,0-.5.9-.8,1.6-.3.7-.3,1.4-.3,1.4,0,0-.8-2-.7-3.4,0-1.4,0-2.1-.2-3.3C1,67.9,0,66.7,0,66.7l7.3,4.2v18.2h0Z"
      style="fill:#71a804; fill-rule:evenodd; " />
    <path
      d="m45.5,109s0,0,0,0c-.3.2-.7.3-1.2.4-.3,0-.7,0-1.1,0-.2,0-.5,0-.8-.1,0,0-.1,0-.2,0-.2,0-.5-.1-.8-.2,0,0-.2,0-.3,0-.3,0-.7-.2-1-.3-.1,0-.2,0-.3-.1-1.6-.6-4.1-1.7-3.3-3.7,0,0,0,0,0-.1,0,0,0-.1,0-.2,0,0,0-.1.1-.2.1-.2.3-.5.6-.7s.2-.2.3-.3c.2-.2.5-.5.9-1,.1-.1.2-.3.3-.4.7-.9,1.6-1.8,2.3-2.1,1.2-.5,2.2.9,2.3,1.4,0,.5.2,1,1,1.8.4.4.8,1.2,1.1,2.2.3.8.5,1.6.6,2.4.1.6,0,1.1-.5,1.4Z"
      style="fill:#aba58b; fill-rule:evenodd; " />
    <path
      d="m45.5,109c-.3.2-.7.3-1.2.4-.3,0-.7,0-1.1,0-.2,0-.5,0-.8-.1,0,0-.1,0-.2,0-.2,0-.5-.1-.8-.2,0,0-.2,0-.3,0-.3,0-.7-.2-1-.3-.1,0-.2,0-.3-.1-1.6-.6-4.1-1.7-3.3-3.7,0,0,0,0,0-.1,0,0,0-.1,0-.2,0,0,0-.1.1-.2.1-.2.3-.5.6-.7s.2-.2.3-.3c.2-.2.5-.5.9-1,.1-.1.2-.3.3-.4,0,0,.6,3.4,2.6,5.6,0,0,0,0,0,0,1.9,2,3.9,1.6,4.1,1.5Z"
      style="fill:#9d997c; fill-rule:evenodd; " />
    <path
      d="m44.2,109.4c-.3,0-.7,0-1.1,0-.2,0-.5,0-.8-.1,0,0-.1,0-.2,0-.2,0-.5-.1-.8-.2,0,0-.2,0-.3,0-.3,0-.7-.2-1-.3-.1,0-.2,0-.3-.1-1.6-.6-4.1-1.7-3.3-3.7,0,0,0,0,0-.1,0,0,0-.1,0-.2,0,0,0-.1.1-.2.1-.2.3-.5.6-.7,0,0,.2,2.1,2.1,3.9.3.3.6.5,1,.7,1.7,1.1,3.7,1.2,3.9,1.2Z"
      style="fill:#8b876e; fill-rule:evenodd; " />
    <path d="m41.1,101.1c-.9.5-.6,1.7.2,1.7.9,0,1.1-1,.9-1.5-.2-.6-1.1-.2-1.1-.2h0Z"
      style="fill:#b9b399; fill-rule:evenodd; " />
    <path d="m43.2,103.8s-.4-1-1-.8c-.6.2-.3,1,.3,2.1.6,1.1.3,1.8.7,2,.5.1.5-1.1.4-2-.1-.8-.4-1.4-.4-1.4h0Z"
      style="fill:#b9b399; fill-rule:evenodd; " />
    <polygon points="12.2 93.4 17 96.2 21.9 93.4 17 90.6 12.2 93.4 12.2 93.4"
      style="fill:#5d9d08; fill-rule:evenodd; " />
    <path d="m17.6,93.4c0,.2-.3.4-.6.4s-.6-.2-.6-.4v-3.9h1.2v3.9h0Z" style="fill:#a06442; fill-rule:evenodd; " />
    <polygon points="20.7 84.9 23.1 87.1 17 90.6 17 87.1 20.7 84.9 20.7 84.9"
      style="fill:#478000; fill-rule:evenodd; " />
    <polygon points="10.9 87.1 13.4 84.9 17 87.1 17 90.6 10.9 87.1 10.9 87.1"
      style="fill:#559409; fill-rule:evenodd; " />
    <polygon points="14.6 82.8 12.2 84.9 17 87.8 17 84.2 14.6 82.8 14.6 82.8"
      style="fill:#69ad15; fill-rule:evenodd; " />
    <polygon points="19.5 82.8 21.9 84.9 17 87.8 17 84.2 19.5 82.8 19.5 82.8"
      style="fill:#559409; fill-rule:evenodd; " />
    <polygon points="15.8 80.7 13.4 82.8 17 84.9 17 81.4 15.8 80.7 15.8 80.7"
      style="fill:#79c71a; fill-rule:evenodd; " />
    <polygon points="20.7 82.8 18.2 80.7 17 81.4 17 84.9 20.7 82.8 20.7 82.8"
      style="fill:#69ad15; fill-rule:evenodd; " />
    <polygon points="16.4 78.6 14.6 80.7 17 82.1 17 79 16.4 78.6 16.4 78.6" style="fill:#8bde25; fill-rule:evenodd; " />
    <polygon points="17.6 78.6 19.5 80.7 17 82.1 17 79 17.6 78.6 17.6 78.6" style="fill:#79c71a; fill-rule:evenodd; " />
    <polygon points="17 77.2 15.8 78.6 17 79.3 17 77.2 17 77.2" style="fill:#a0f23d; fill-rule:evenodd; " />
    <polygon points="17 77.2 18.2 78.6 17 79.3 17 77.2 17 77.2" style="fill:#8bde25; fill-rule:evenodd; " />
    <polygon points="26.8 93.4 31.6 96.2 36.5 93.4 31.6 90.6 26.8 93.4 26.8 93.4"
      style="fill:#5d9d08; fill-rule:evenodd; " />
    <path d="m32.2,93.4c0,.2-.3.4-.6.4s-.6-.2-.6-.4v-3.9h1.2v3.9h0Z" style="fill:#a06442; fill-rule:evenodd; " />
    <polygon points="35.3 84.9 37.7 87.1 31.6 90.6 31.6 87.1 35.3 84.9 35.3 84.9"
      style="fill:#478000; fill-rule:evenodd; " />
    <polygon points="25.5 87.1 28 84.9 31.6 87.1 31.6 90.6 25.5 87.1 25.5 87.1"
      style="fill:#559409; fill-rule:evenodd; " />
    <polygon points="29.2 82.8 26.8 84.9 31.6 87.8 31.6 84.2 29.2 82.8 29.2 82.8"
      style="fill:#69ad15; fill-rule:evenodd; " />
    <polygon points="34 82.8 36.5 84.9 31.6 87.8 31.6 84.2 34 82.8 34 82.8" style="fill:#559409; fill-rule:evenodd; " />
    <polygon points="30.4 80.7 28 82.8 31.6 84.9 31.6 81.4 30.4 80.7 30.4 80.7"
      style="fill:#79c71a; fill-rule:evenodd; " />
    <polygon points="35.3 82.8 32.8 80.7 31.6 81.4 31.6 84.9 35.3 82.8 35.3 82.8"
      style="fill:#69ad15; fill-rule:evenodd; " />
    <polygon points="31 78.6 29.2 80.7 31.6 82.1 31.6 79 31 78.6 31 78.6" style="fill:#8bde25; fill-rule:evenodd; " />
    <polygon points="32.2 78.6 34 80.7 31.6 82.1 31.6 79 32.2 78.6 32.2 78.6"
      style="fill:#79c71a; fill-rule:evenodd; " />
    <polygon points="31.6 77.2 30.4 78.6 31.6 79.3 31.6 77.2 31.6 77.2" style="fill:#a0f23d; fill-rule:evenodd; " />
    <polygon points="31.6 77.2 32.8 78.6 31.6 79.3 31.6 77.2 31.6 77.2" style="fill:#8bde25; fill-rule:evenodd; " />
    <polygon points="41.3 82.1 46.2 84.9 51.1 82.1 46.2 79.3 41.3 82.1 41.3 82.1"
      style="fill:#5d9d08; fill-rule:evenodd; " />
    <path d="m46.8,82.1c0,.2-.3.4-.6.4s-.6-.2-.6-.4v-3.9h1.2v3.9h0Z" style="fill:#a06442; fill-rule:evenodd; " />
    <polygon points="49.9 73.7 52.3 75.8 46.2 79.3 46.2 75.8 49.9 73.7 49.9 73.7"
      style="fill:#478000; fill-rule:evenodd; " />
    <polygon points="40.1 75.8 42.6 73.7 46.2 75.8 46.2 79.3 40.1 75.8 40.1 75.8"
      style="fill:#559409; fill-rule:evenodd; " />
    <polygon points="43.8 71.6 41.3 73.7 46.2 76.5 46.2 73 43.8 71.6 43.8 71.6"
      style="fill:#69ad15; fill-rule:evenodd; " />
    <polygon points="48.6 71.6 51.1 73.7 46.2 76.5 46.2 73 48.6 71.6 48.6 71.6"
      style="fill:#559409; fill-rule:evenodd; " />
    <polygon points="45 69.5 42.6 71.6 46.2 73.7 46.2 70.2 45 69.5 45 69.5" style="fill:#79c71a; fill-rule:evenodd; " />
    <polygon points="49.9 71.6 47.4 69.5 46.2 70.2 46.2 73.7 49.9 71.6 49.9 71.6"
      style="fill:#69ad15; fill-rule:evenodd; " />
    <polygon points="45.6 67.4 43.8 69.5 46.2 70.9 46.2 67.7 45.6 67.4 45.6 67.4"
      style="fill:#8bde25; fill-rule:evenodd; " />
    <polygon points="46.8 67.4 48.6 69.5 46.2 70.9 46.2 67.7 46.8 67.4 46.8 67.4"
      style="fill:#79c71a; fill-rule:evenodd; " />
    <polygon points="46.2 66 45 67.4 46.2 68.1 46.2 66 46.2 66" style="fill:#a0f23d; fill-rule:evenodd; " />
    <polygon points="46.2 66 47.4 67.4 46.2 68.1 46.2 66 46.2 66" style="fill:#8bde25; fill-rule:evenodd; " />
    <polygon points="92.4 16.1 97.3 19 102.1 16.1 97.3 13.3 92.4 16.1 92.4 16.1"
      style="fill:#5d9d08; fill-rule:evenodd; " />
    <path d="m97.9,16.1c0,.2-.3.4-.6.4s-.6-.2-.6-.4v-3.9h1.2v3.9h0Z" style="fill:#a06442; fill-rule:evenodd; " />
    <polygon points="100.9 7.7 103.4 9.8 97.3 13.3 97.3 9.8 100.9 7.7 100.9 7.7"
      style="fill:#478000; fill-rule:evenodd; " />
    <polygon points="91.2 9.8 93.6 7.7 97.3 9.8 97.3 13.3 91.2 9.8 91.2 9.8"
      style="fill:#559409; fill-rule:evenodd; " />
    <polygon points="94.8 5.6 92.4 7.7 97.3 10.5 97.3 7 94.8 5.6 94.8 5.6" style="fill:#69ad15; fill-rule:evenodd; " />
    <polygon points="99.7 5.6 102.1 7.7 97.3 10.5 97.3 7 99.7 5.6 99.7 5.6" style="fill:#559409; fill-rule:evenodd; " />
    <polygon points="96.1 3.5 93.6 5.6 97.3 7.7 97.3 4.2 96.1 3.5 96.1 3.5" style="fill:#79c71a; fill-rule:evenodd; " />
    <polygon points="100.9 5.6 98.5 3.5 97.3 4.2 97.3 7.7 100.9 5.6 100.9 5.6"
      style="fill:#69ad15; fill-rule:evenodd; " />
    <polygon points="96.7 1.4 94.8 3.5 97.3 4.9 97.3 1.8 96.7 1.4 96.7 1.4" style="fill:#8bde25; fill-rule:evenodd; " />
    <polygon points="97.9 1.4 99.7 3.5 97.3 4.9 97.3 1.8 97.9 1.4 97.9 1.4" style="fill:#79c71a; fill-rule:evenodd; " />
    <polygon points="97.3 0 96.1 1.4 97.3 2.1 97.3 0 97.3 0" style="fill:#a0f23d; fill-rule:evenodd; " />
    <polygon points="97.3 0 98.5 1.4 97.3 2.1 97.3 0 97.3 0" style="fill:#8bde25; fill-rule:evenodd; " />
    <polygon points="99.7 28.8 104.6 31.6 109.4 28.8 104.6 26 99.7 28.8 99.7 28.8"
      style="fill:#5d9d08; fill-rule:evenodd; " />
    <path d="m105.2,28.8c0,.2-.3.4-.6.4s-.6-.2-.6-.4v-3.9h1.2v3.9h0Z" style="fill:#a06442; fill-rule:evenodd; " />
    <polygon points="108.2 20.4 110.7 22.5 104.6 26 104.6 22.5 108.2 20.4 108.2 20.4"
      style="fill:#478000; fill-rule:evenodd; " />
    <polygon points="98.5 22.5 100.9 20.4 104.6 22.5 104.6 26 98.5 22.5 98.5 22.5"
      style="fill:#559409; fill-rule:evenodd; " />
    <polygon points="102.1 18.3 99.7 20.4 104.6 23.2 104.6 19.7 102.1 18.3 102.1 18.3"
      style="fill:#69ad15; fill-rule:evenodd; " />
    <polygon points="107 18.3 109.4 20.4 104.6 23.2 104.6 19.7 107 18.3 107 18.3"
      style="fill:#559409; fill-rule:evenodd; " />
    <polygon points="103.4 16.1 100.9 18.3 104.6 20.4 104.6 16.8 103.4 16.1 103.4 16.1"
      style="fill:#79c71a; fill-rule:evenodd; " />
    <polygon points="108.2 18.3 105.8 16.1 104.6 16.8 104.6 20.4 108.2 18.3 108.2 18.3"
      style="fill:#69ad15; fill-rule:evenodd; " />
    <polygon points="104 14 102.1 16.1 104.6 17.6 104.6 14.4 104 14 104 14" style="fill:#8bde25; fill-rule:evenodd; " />
    <polygon points="105.2 14 107 16.1 104.6 17.6 104.6 14.4 105.2 14 105.2 14"
      style="fill:#79c71a; fill-rule:evenodd; " />
    <polygon points="104.6 12.6 103.4 14 104.6 14.7 104.6 12.6 104.6 12.6" style="fill:#a0f23d; fill-rule:evenodd; " />
    <polygon points="104.6 12.6 105.8 14 104.6 14.7 104.6 12.6 104.6 12.6" style="fill:#8bde25; fill-rule:evenodd; " />
    <polygon points="73 27.4 77.8 30.2 82.7 27.4 77.8 24.6 73 27.4 73 27.4" style="fill:#5d9d08; fill-rule:evenodd; " />
    <path d="m78.4,27.4c0,.2-.3.4-.6.4s-.6-.2-.6-.4v-3.9h1.2v3.9h0Z" style="fill:#a06442; fill-rule:evenodd; " />
    <polygon points="81.5 19 83.9 21.1 77.8 24.6 77.8 21.1 81.5 19 81.5 19" style="fill:#478000; fill-rule:evenodd; " />
    <polygon points="71.7 21.1 74.2 19 77.8 21.1 77.8 24.6 71.7 21.1 71.7 21.1"
      style="fill:#559409; fill-rule:evenodd; " />
    <polygon points="75.4 16.8 73 19 77.8 21.8 77.8 18.3 75.4 16.8 75.4 16.8"
      style="fill:#69ad15; fill-rule:evenodd; " />
    <polygon points="80.3 16.8 82.7 19 77.8 21.8 77.8 18.3 80.3 16.8 80.3 16.8"
      style="fill:#559409; fill-rule:evenodd; " />
    <polygon points="76.6 14.7 74.2 16.8 77.8 19 77.8 15.4 76.6 14.7 76.6 14.7"
      style="fill:#79c71a; fill-rule:evenodd; " />
    <polygon points="81.5 16.8 79 14.7 77.8 15.4 77.8 19 81.5 16.8 81.5 16.8"
      style="fill:#69ad15; fill-rule:evenodd; " />
    <polygon points="77.2 12.6 75.4 14.7 77.8 16.1 77.8 13 77.2 12.6 77.2 12.6"
      style="fill:#8bde25; fill-rule:evenodd; " />
    <polygon points="78.4 12.6 80.3 14.7 77.8 16.1 77.8 13 78.4 12.6 78.4 12.6"
      style="fill:#79c71a; fill-rule:evenodd; " />
    <polygon points="77.8 11.2 76.6 12.6 77.8 13.3 77.8 11.2 77.8 11.2" style="fill:#a0f23d; fill-rule:evenodd; " />
    <polygon points="77.8 11.2 79 12.6 77.8 13.3 77.8 11.2 77.8 11.2" style="fill:#8bde25; fill-rule:evenodd; " />
    <polygon points="65.7 40 70.5 42.8 75.4 40 70.5 37.2 65.7 40 65.7 40" style="fill:#5d9d08; fill-rule:evenodd; " />
    <path d="m71.1,40c0,.2-.3.4-.6.4s-.6-.2-.6-.4v-3.9h1.2v3.9h0Z" style="fill:#a06442; fill-rule:evenodd; " />
    <polygon points="74.2 31.6 76.6 33.7 70.5 37.2 70.5 33.7 74.2 31.6 74.2 31.6"
      style="fill:#478000; fill-rule:evenodd; " />
    <polygon points="64.4 33.7 66.9 31.6 70.5 33.7 70.5 37.2 64.4 33.7 64.4 33.7"
      style="fill:#559409; fill-rule:evenodd; " />
    <polygon points="68.1 29.5 65.7 31.6 70.5 34.4 70.5 30.9 68.1 29.5 68.1 29.5"
      style="fill:#69ad15; fill-rule:evenodd; " />
    <polygon points="73 29.5 75.4 31.6 70.5 34.4 70.5 30.9 73 29.5 73 29.5" style="fill:#559409; fill-rule:evenodd; " />
    <polygon points="69.3 27.4 66.9 29.5 70.5 31.6 70.5 28.1 69.3 27.4 69.3 27.4"
      style="fill:#79c71a; fill-rule:evenodd; " />
    <polygon points="74.2 29.5 71.7 27.4 70.5 28.1 70.5 31.6 74.2 29.5 74.2 29.5"
      style="fill:#69ad15; fill-rule:evenodd; " />
    <polygon points="69.9 25.3 68.1 27.4 70.5 28.8 70.5 25.6 69.9 25.3 69.9 25.3"
      style="fill:#8bde25; fill-rule:evenodd; " />
    <polygon points="71.1 25.3 73 27.4 70.5 28.8 70.5 25.6 71.1 25.3 71.1 25.3"
      style="fill:#79c71a; fill-rule:evenodd; " />
    <polygon points="70.5 23.9 69.3 25.3 70.5 26 70.5 23.9 70.5 23.9" style="fill:#a0f23d; fill-rule:evenodd; " />
    <polygon points="70.5 23.9 71.7 25.3 70.5 26 70.5 23.9 70.5 23.9" style="fill:#8bde25; fill-rule:evenodd; " />
    <polygon points="43.8 44.2 48.6 47 53.5 44.2 48.6 41.4 43.8 44.2 43.8 44.2"
      style="fill:#5d9d08; fill-rule:evenodd; " />
    <path d="m49.2,44.2c0,.2-.3.4-.6.4s-.6-.2-.6-.4v-3.9h1.2v3.9h0Z" style="fill:#a06442; fill-rule:evenodd; " />
    <polygon points="52.3 35.8 54.7 37.9 48.6 41.4 48.6 37.9 52.3 35.8 52.3 35.8"
      style="fill:#478000; fill-rule:evenodd; " />
    <polygon points="42.6 37.9 45 35.8 48.6 37.9 48.6 41.4 42.6 37.9 42.6 37.9"
      style="fill:#559409; fill-rule:evenodd; " />
    <polygon points="46.2 33.7 43.8 35.8 48.6 38.6 48.6 35.1 46.2 33.7 46.2 33.7"
      style="fill:#69ad15; fill-rule:evenodd; " />
    <polygon points="51.1 33.7 53.5 35.8 48.6 38.6 48.6 35.1 51.1 33.7 51.1 33.7"
      style="fill:#559409; fill-rule:evenodd; " />
    <polygon points="47.4 31.6 45 33.7 48.6 35.8 48.6 32.3 47.4 31.6 47.4 31.6"
      style="fill:#79c71a; fill-rule:evenodd; " />
    <polygon points="52.3 33.7 49.9 31.6 48.6 32.3 48.6 35.8 52.3 33.7 52.3 33.7"
      style="fill:#69ad15; fill-rule:evenodd; " />
    <polygon points="48 29.5 46.2 31.6 48.6 33 48.6 29.8 48 29.5 48 29.5" style="fill:#8bde25; fill-rule:evenodd; " />
    <polygon points="49.2 29.5 51.1 31.6 48.6 33 48.6 29.8 49.2 29.5 49.2 29.5"
      style="fill:#79c71a; fill-rule:evenodd; " />
    <polygon points="48.6 28.1 47.4 29.5 48.6 30.2 48.6 28.1 48.6 28.1" style="fill:#a0f23d; fill-rule:evenodd; " />
    <polygon points="48.6 28.1 49.9 29.5 48.6 30.2 48.6 28.1 48.6 28.1" style="fill:#8bde25; fill-rule:evenodd; " />
    <polygon points="17 56.9 21.9 59.7 26.8 56.9 21.9 54.1 17 56.9 17 56.9" style="fill:#5d9d08; fill-rule:evenodd; " />
    <path d="m22.5,56.9c0,.2-.3.4-.6.4s-.6-.2-.6-.4v-3.9h1.2v3.9h0Z" style="fill:#a06442; fill-rule:evenodd; " />
    <polygon points="25.5 48.4 28 50.5 21.9 54.1 21.9 50.5 25.5 48.4 25.5 48.4"
      style="fill:#478000; fill-rule:evenodd; " />
    <polygon points="15.8 50.5 18.2 48.4 21.9 50.5 21.9 54.1 15.8 50.5 15.8 50.5"
      style="fill:#559409; fill-rule:evenodd; " />
    <polygon points="19.5 46.3 17 48.4 21.9 51.2 21.9 47.7 19.5 46.3 19.5 46.3"
      style="fill:#69ad15; fill-rule:evenodd; " />
    <polygon points="24.3 46.3 26.8 48.4 21.9 51.2 21.9 47.7 24.3 46.3 24.3 46.3"
      style="fill:#559409; fill-rule:evenodd; " />
    <polygon points="20.7 44.2 18.2 46.3 21.9 48.4 21.9 44.9 20.7 44.2 20.7 44.2"
      style="fill:#79c71a; fill-rule:evenodd; " />
    <polygon points="25.5 46.3 23.1 44.2 21.9 44.9 21.9 48.4 25.5 46.3 25.5 46.3"
      style="fill:#69ad15; fill-rule:evenodd; " />
    <polygon points="21.3 42.1 19.5 44.2 21.9 45.6 21.9 42.5 21.3 42.1 21.3 42.1"
      style="fill:#8bde25; fill-rule:evenodd; " />
    <polygon points="22.5 42.1 24.3 44.2 21.9 45.6 21.9 42.5 22.5 42.1 22.5 42.1"
      style="fill:#79c71a; fill-rule:evenodd; " />
    <polygon points="21.9 40.7 20.7 42.1 21.9 42.8 21.9 40.7 21.9 40.7" style="fill:#a0f23d; fill-rule:evenodd; " />
    <polygon points="21.9 40.7 23.1 42.1 21.9 42.8 21.9 40.7 21.9 40.7" style="fill:#8bde25; fill-rule:evenodd; " />
    <polyline points="43.9 110.2 44.5 109.9 45.6 109.3 47.1 108.4 47.8 108 49.5 107"
      style="fill:none; fill-rule:evenodd; " />
    <polygon points="91.8 83.5 39.1 113.8 38.6 113.3 91.8 82.5 91.8 83.5" style="fill:#2297ad; " />
    <path
      d="m91.9,60.2h0s0,3.4,0,3.4c-.4,2-.4,5.5-.2,9.1.2,5.5-.7,8.3-.7,8.3,0,0-.3-.9-.4-3.2-.1-2.3-.2-8,0-12.5.2-4.6-.6-6.1-1.6-5.7-1,.3-.6,5.1-.6,8.6s-.6,6.6-.6,6.6c0,0-.5-3.9-.4-8.1,0-4.2.5-8-.9-8-1.4,0-1.1,2.8-1.2,5.3,0,2.5-.5,7.2-.5,7.2,0,0-.4-1.7-.4-4.8,0-3.2.3-8.5-.9-8.3-1.2.2-1.2,3.9-1.1,7.7s-.4,8.8-.4,8.8c0,0-.8-3.8-.5-7.8.3-4,.3-7.9-.5-8.1s-1.7.2-1.7,2.2-.2,4-.2,4c0,0,0,0-.2-1.2-.2-1.2.2-5.2-.7-5.2-.9,0-1.8.8-1.4,5.7.3,4.9-.4,8.4-.4,8.4,0,0-.6-4.5-.3-8.3.3-3.9-.3-5.5-1.1-5.3-.8.1-1.3.8-1.4,3.4,0,2.6-.4,3.5-.4,3.5,0,0-.2-1-.4-2.9-.1-1.9,0-4.2-1.8-3.8-1.8.3-1.9,7.4-1.8,10.7,0,3.3-.6,7.8-.6,7.8,0,0-.6-5.6-.5-8.4.2-2.8.7-8.4.2-9.6-.6-1.2-1.5,0-1.7,1.9-.2,2-.6,3-.6,3,0,0-.2-1.1-.4-2.8-.2-1.7-.2-3.8-1.2-3.4-1.1.4-.6,2.3-.8,7.5-.1,5.2-.8,7.5-.8,7.5,0,0-.6-2.6-.8-6-.2-3.4,0-10.6-1.1-10.3-1.2.3-1.6,13.1-1.6,13.1v-14.6c.5,0,1,0,1.3.2,1,.4,2,1.1,4.5,2.1,2.5,1,5.3.8,11,0,5-.7,10.7-.5,15.9,2.6Z"
      style="fill:#83e0f2; fill-rule:evenodd; " />
    <polygon points="131.7 44.9 91.9 68.1 92.1 60.3 131.7 37.4 131.7 44.9" style="fill:#2297ad; " />
    <polygon points="92.5 60.1 91.8 60.1 91.8 83.5 92.8 82.9 92.5 60.1" style="fill:#2297ad; " />
    <polyline points="142.6 46.4 92.8 75.3 92.8 82.9 142.6 54" style="fill:#836145; fill-rule:evenodd; " />
    <polygon points="142.6 31.1 134.7 35.7 134.7 43.2 142.6 38.6 142.6 31.1 142.6 31.1"
      style="fill:#629105; fill-rule:evenodd; " />
  </g>
</svg>