<svg xmlns="http://www.w3.org/2000/svg" viewBox="0 0 150.2 112.8">
  <g>
    <polygon points="62.3 79.5 43.3 74.8 43.3 66.8 53.1 61.1 62.3 79.5" style="fill:#fff; " />
    <path
      d="m52.4,78.1c-.1.3-.4.7-1,1.1-.5.3-.8.4-1.2.5-.7.2-1.3.3-2.2,1-1.4,1.1-.1,3-1.1,4.4-1,1.4-3.1,1.4-3.1,1.4,0,0,2.2-.3,2.5-1.8.2-1.5-.9-1.8-.5-3.6.4-1.8,2.1-2,4.3-2.4,2.2-.3,2.6-1.3,2.6-1.3,0,0,0,.3-.1.7Z"
      style="fill:#9df0ff; fill-rule:evenodd; " />
    <path
      d="m87.6,58.9c-4.8,1.5-21.4-1.3-21.8,3,0,0,0-3.4-.7-4.8s-2.7-2.7-3.4-4.8c-.7-2.1-.8-7.5-6.5-12.1-.7-.5-1.3-1-2-1.4h0c0,0,1.4-.9,1.4-.9h0l.7-.4,36.4-21h.1c0,0,1-.6,1-.6-1,3.2,9.6,2.1,9.9,4.3.4,2.7,16,13.7,16.4,16.1"
      style="fill:#11aecd; fill-rule:evenodd; " />
    <path
      d="m66,61.3v.6h0c0,.2,0,.4,0,.6,0,.1,0,.2,0,.3h0c0,0,0,.2,0,.2h0c0,.1,0,.1,0,.2,0,0,0,0,0,.1h0c0,.1,0,.1,0,.1h0s0,0,0,0c0,0,0,0,0,0,0,0,0,0,0,0h0c0,0,0,.1,0,.2,0,0,0,.1,0,.2,0,0,0,.1,0,.2h0c0,0,0,.1,0,.2,0,.2,0,.4-.1.5,0,.1,0,.3-.1.4,0,.2-.1.4-.2.6,0,.1,0,.3-.1.4,0,.1,0,.2-.1.4,0,.2-.2.4-.2.6,0,.1,0,.2-.1.3,0,0,0,0,0,0,0,.2-.2.3-.3.5h0c0,.1-.1.2-.2.3,0,0,0,0,0,.1,0,0-.1.2-.2.3,0,0,0,.1,0,.2,0,0-.1.2-.2.3,0,.1-.2.3-.3.4-.1.2-.2.3-.4.5h0c-.2.3-.4.5-.6.8-.2.2-.3.4-.5.6-.2.2-.3.3-.5.5,0,0,0,0,0,0,0,0,0,0,0-.1-.1-.5-.3-1.1-.5-1.6-.8-2.3-2.2-5.1-5.3-7.6-.8-.6-1.5-1.2-2.3-1.6v-22.4c.1,0,.1,0,.1,0,.2.1.4.3.6.4.2.2.5.3.7.5.3.2.6.4.8.6,5.7,4.6,5.8,10.1,6.5,12.1.3,1,1,1.9,1.7,2.7.7.8,1.3,1.4,1.7,2.1,0,.1.2.3.2.5,0,0,0,0,0,0,0,0,0,0,0,0,0,0,0,0,0,0,0,0,0,.2,0,.3,0,.3.1.6.2,1,0,0,0,.2,0,.2,0,0,0,0,0,0,0,0,0,.2,0,.3,0,0,0,.2,0,.2,0,.1,0,.2,0,.3,0,0,0,.1,0,.2,0,.3,0,.6,0,.8,0,0,0,0,0,0Z"
      style="fill:#099db9; fill-rule:evenodd; " />
    <path
      d="m66,61.9c0,.2,0,.3,0,.5,0,.6-.1,1.1-.2,1.7,0,0,.2-5.7-.7-6.3-.9-.6-.9,1.4-.8,4.2.1,2.8-.5,6.7-.5,6.7,0,0-.2-2.4-.2-5.7s.4-7.6-.7-7.7c-1.2,0-1.1,2.3-1.2,6.6,0,4.3-.5,7.9-.5,7.9,0,0-.5-4.2-.3-10.9.2-6.7.3-9.8-.7-10.6-1.1-.8-.9,3.3-.9,6.7s-.5,9-.5,9c0,0-.5-10.8-.4-15.1.1-4.3-.6-6.4-1.4-6.3-.8.1-.8,1.6-.8,4.8,0,3.2-.7,4.6-.7,4.6,0,0-.3-1.5-.4-3.9-.1-2.4.8-7.8-.6-7.7-.5,0-.8.6-1,1.6v-3.3s0,0,0,0c.7.5,1.5,1,2.2,1.6,5.7,4.6,5.8,10.1,6.5,12.1.7,2.1,2.6,3.4,3.4,4.8s.7,4.7.7,4.8Z"
      style="fill:#83e0f2; fill-rule:evenodd; " />
    <path
      d="m150.2,36.3l-13,7.5-14.6,8.4-30.8,17.8-19.1,11-12.6,7.2-9.9-5.7-2.2-1.3s.5-.6,2-1.6c.6-.4,1.3-.9,2.2-1.5,1.1-.7,2.6-1.6,4.3-2.6.7-.4,1.4-.8,2-1.2.2-.1.4-.3.6-.4.1,0,.2-.2.3-.2.1,0,.3-.2.4-.3.2-.1.3-.2.5-.4,0,0,0,0,.1,0,.1,0,.2-.2.3-.3.2-.1.3-.3.4-.4h0c0,0,0,0,0-.1.2-.2.3-.3.5-.5.2-.2.4-.4.5-.6.2-.3.4-.5.6-.8h0c.1-.2.2-.3.4-.5,0-.1.2-.3.3-.4,0,0,.1-.2.2-.3,0,0,0-.1,0-.2,0,0,.1-.2.2-.3,0,0,0-.1,0-.1,0-.1.1-.2.2-.3,0-.2.2-.4.3-.5,0,0,0,0,0,0h0c0-.1.1-.2.1-.3,0-.2.2-.4.2-.6,0-.1,0-.2.1-.4,0-.1.1-.3.1-.4,0-.2.1-.4.2-.6,0-.1,0-.3.1-.4,0-.2,0-.4.1-.5,0,0,0,0,0-.1,0-.1,0-.3,0-.4,0,0,0-.1,0-.2h0s0,0,0-.1c0,0,0,0,0,0,0,0,0,0,0-.1,0,0,0-.1,0-.2h0c0-.1,0-.2,0-.3h0s0,0,0,0c0,0,0-.2,0-.2,0-.2,0-.3,0-.5h0c0-.1,0-.2,0-.3,0,0,0,0,0-.1s0-.1,0-.2c0,0,0-.1,0-.2,0-.3,0-.5,0-.7,0-.1,0-.2,0-.4,0-.1,0-.2,0-.4,0-.2,0-.4,0-.7,0-.2,0-.4.1-.6,0,0,0,0,0,0,0-.2,0-.4.1-.5,0,0,0,0,0-.1,0-.1,0-.3.1-.4,0,0,0,0,0-.1,0-.1.1-.3.2-.4,0,0,0-.2.1-.3,0,0,0-.1.1-.2,0,0,0-.1.1-.2,0,0,.1-.2.2-.3,0,0,.1-.1.2-.2,0,0,.1-.1.2-.2,0,0,.1-.1.2-.2,0,0,.2-.1.2-.2.3-.2.7-.5,1.2-.7.5-.2,1-.4,1.6-.6.5-.2,1.1-.3,1.5-.4.3,0,.6-.1.9-.2.7,0,1.4-.1,2-.1.7,0,1.4,0,2.1,0,.4,0,.7,0,1.1,0,.5,0,1,0,1.6,0,1.2,0,2.5,0,4.1-.3,6.4-.9,10.5-7.6,10.1-10.6-.2-1.5-.9-3.1-1.2-4.5-.3-1.4-.2-2.7.8-3.7,2.2-2.1,4.4-3,4-5.4-.5-2.4-6.9-4-7.3-6.8-.3-2.2,1.1-2.9,2.1-6l1.3-.7,2.8-1.6,6.8-3.9,9.4,5.4.4.2.8.5,2.4,1.4h0s3.7,2.1,3.7,2.1l.6.4h0l1.2.7,9.4,5.4,3.4,1.9,15,8.7Z"
      style="fill:#ece1c5; fill-rule:evenodd; " />
    <path
      d="m150.2,36.3l-90,51.9-9.9-5.7c.4-.5,1.4-1.4,3.4-2.9,3.6-2.8,9-4,12.5-9.5,3.6-5.5,1.2-11.4,4.9-13.4,3.7-1.9,9-.4,15.7-1.8s9.5-7.3,9.8-11c.3-3.7-1.6-5.9-1.1-7.4.5-1.5,1-1.7,2.8-2.9,1.8-1.2,4.6-5.1,1.7-7.8-2.9-2.6-6.3-2.1-6.5-4.5-.1-2,2-3.7,2.6-7.3l1.1-.6,6.8-3.9,17.3,10,29,16.7Z"
      style="fill:#a7c623; fill-rule:evenodd; " />
    <polygon points="60.3 88.2 60.3 110.7 55 107.7 48.2 103.7 48.2 81.2 50.4 82.5 60.3 88.2"
      style="fill:#bfa083; fill-rule:evenodd; " />
    <polygon points="150.2 36.3 60.3 88.2 60.3 110.7 150.2 58.8 150.2 36.3 150.2 36.3"
      style="fill:#836145; fill-rule:evenodd; " />
    <path
      d="m65.9,50.9s0-.8-.8-1.7c-.7-.8-1.4-1-3-2.4-1.7-1.5-1.8-3.7-5-7.1-.7-.7-1.5-1.3-2.4-1.8h0s0,0,0,0l.7-.4h0c3.3,1.5,5,3.1,5.9,5.5,1.1,2.6,1.1,2.3,2.8,3.9,1.6,1.7,1.7,4.1,1.7,4.1Z"
      style="fill:#74d4e4; fill-rule:evenodd; " />
    <path
      d="m63.4,40.1s-1.6,2.2.6,4.2c2.2,2,2.8,1.9,3.7,3.4.9,1.5,1.1,3.1,1.1,3.1,0,0,.7-4.2-1.2-6-1.9-1.8-3.1-2-3.9-2.9-.7-.9-.4-1.9-.4-1.9h0Z"
      style="fill:#74d4e4; fill-rule:evenodd; " />
    <path
      d="m70.4,46.5s.8.4.8,1.7-.4,3.2,1,4c1.4.8,2.6.3,2.6.3,0,0-2-.3-2.1-1.4,0-1.1.6-2.8-.3-3.8-.9-1-2.1-.9-2.1-.9h0Z"
      style="fill:#2bbfdb; fill-rule:evenodd; " />
    <path d="m92.2,40.9s.6,1.8-.3,3.6c-.8,1.8-2.7,3.2-2.7,3.2,0,0,2.7-1.1,3.8-3,1.1-1.8-.8-3.8-.8-3.8h0Z"
      style="fill:#2bbfdb; fill-rule:evenodd; " />
    <path
      d="m91.8,38.7s-1.6-2.1-.5-4c1.1-1.9,2.8-2,3.6-2.9.8-1,.6-1.7.5-1.8,0-.1.3,1.3-3.1,2.6-3.4,1.3-2.7,4.4-1.9,5.1.8.8,1.4,1,1.4,1h0Z"
      style="fill:#2bbfdb; fill-rule:evenodd; " />
    <path
      d="m90.1,21s-2.3,1.5-.9,3c1.4,1.5,3.5,1.7,4.5,2.8,1,1.1.9,2,.9,2,0,0-.7-1.8-2.5-2.2-1.8-.3-4.1-.7-4.5-2.4-.3-1.7,2.5-3.3,2.5-3.3h0Z"
      style="fill:#2bbfdb; fill-rule:evenodd; " />
    <path
      d="m62.9,49.8s-.3,2.2.5,3.4c.8,1.2,1.1.7,2,1.5.9.9,1,2,1,2,0,0,.3-2.3-1-3.3-1.3-1-1.5-1-2-2-.6-.9-.5-1.7-.5-1.7h0Z"
      style="fill:#74d4e4; fill-rule:evenodd; " />
    <path
      d="m50.4,82.5s-1.3,3.4-.7,5.7c.6,2.2,0,2.4.4,3.8.3,1.4.6,2.7.6,2.7,0,0-.6-2.9.2-4.3.8-1.4.7-2.8,1-2.7.4,0,0,3.1,1.2,6.1,1.2,3,2,13.6,2,13.6,0,0,.9-4.7,1.4-5.9.5-1.1,2-6.2,2.3-7.5.3-1.3.5-1.3.5-1.3,0,0,.2,1.7.3,3.3,0,1.7.5,3,.5,3v-10.8l-9.9-5.7h0Z"
      style="fill:#71a804; fill-rule:evenodd; " />
    <polygon points="150.2 36.3 60.3 88.2 60.3 95.7 150.2 43.8 150.2 36.3 150.2 36.3"
      style="fill:#629105; fill-rule:evenodd; " />
    <polygon points="150.2 43.8 60.3 95.7 60.3 103.2 150.2 51.3 150.2 43.8 150.2 43.8"
      style="fill:#af9179; fill-rule:evenodd; " />
    <polygon points="116.2 24.6 121.1 27.4 125.9 24.6 121.1 21.8 116.2 24.6 116.2 24.6"
      style="fill:#5d9d08; fill-rule:evenodd; " />
    <path d="m121.7,24.6c0,.2-.3.4-.6.4s-.6-.2-.6-.4v-3.9h1.2v3.9h0Z" style="fill:#a06442; fill-rule:evenodd; " />
    <polygon points="124.7 16.1 127.2 18.3 121.1 21.8 121.1 18.3 124.7 16.1 124.7 16.1"
      style="fill:#478000; fill-rule:evenodd; " />
    <polygon points="115 18.3 117.4 16.1 121.1 18.3 121.1 21.8 115 18.3 115 18.3"
      style="fill:#559409; fill-rule:evenodd; " />
    <polygon points="118.7 14 116.2 16.1 121.1 19 121.1 15.4 118.7 14 118.7 14"
      style="fill:#69ad15; fill-rule:evenodd; " />
    <polygon points="123.5 14 125.9 16.1 121.1 19 121.1 15.4 123.5 14 123.5 14"
      style="fill:#559409; fill-rule:evenodd; " />
    <polygon points="119.9 11.9 117.4 14 121.1 16.1 121.1 12.6 119.9 11.9 119.9 11.9"
      style="fill:#79c71a; fill-rule:evenodd; " />
    <polygon points="124.7 14 122.3 11.9 121.1 12.6 121.1 16.1 124.7 14 124.7 14"
      style="fill:#69ad15; fill-rule:evenodd; " />
    <polygon points="120.5 9.8 118.7 11.9 121.1 13.3 121.1 10.2 120.5 9.8 120.5 9.8"
      style="fill:#8bde25; fill-rule:evenodd; " />
    <polygon points="121.7 9.8 123.5 11.9 121.1 13.3 121.1 10.2 121.7 9.8 121.7 9.8"
      style="fill:#79c71a; fill-rule:evenodd; " />
    <polygon points="121.1 8.4 119.9 9.8 121.1 10.5 121.1 8.4 121.1 8.4" style="fill:#a0f23d; fill-rule:evenodd; " />
    <polygon points="121.1 8.4 122.3 9.8 121.1 10.5 121.1 8.4 121.1 8.4" style="fill:#8bde25; fill-rule:evenodd; " />
    <polygon points="133.2 37.2 138.1 40 143 37.2 138.1 34.4 133.2 37.2 133.2 37.2"
      style="fill:#5d9d08; fill-rule:evenodd; " />
    <path d="m138.7,37.2c0,.2-.3.4-.6.4s-.6-.2-.6-.4v-3.9h1.2v3.9h0Z" style="fill:#a06442; fill-rule:evenodd; " />
    <polygon points="141.8 28.8 144.2 30.9 138.1 34.4 138.1 30.9 141.8 28.8 141.8 28.8"
      style="fill:#478000; fill-rule:evenodd; " />
    <polygon points="132 30.9 134.5 28.8 138.1 30.9 138.1 34.4 132 30.9 132 30.9"
      style="fill:#559409; fill-rule:evenodd; " />
    <polygon points="135.7 26.7 133.2 28.8 138.1 31.6 138.1 28.1 135.7 26.7 135.7 26.7"
      style="fill:#69ad15; fill-rule:evenodd; " />
    <polygon points="140.5 26.7 143 28.8 138.1 31.6 138.1 28.1 140.5 26.7 140.5 26.7"
      style="fill:#559409; fill-rule:evenodd; " />
    <polygon points="136.9 24.6 134.5 26.7 138.1 28.8 138.1 25.3 136.9 24.6 136.9 24.6"
      style="fill:#79c71a; fill-rule:evenodd; " />
    <polygon points="141.8 26.7 139.3 24.6 138.1 25.3 138.1 28.8 141.8 26.7 141.8 26.7"
      style="fill:#69ad15; fill-rule:evenodd; " />
    <polygon points="137.5 22.5 135.7 24.6 138.1 26 138.1 22.8 137.5 22.5 137.5 22.5"
      style="fill:#8bde25; fill-rule:evenodd; " />
    <polygon points="138.7 22.5 140.5 24.6 138.1 26 138.1 22.8 138.7 22.5 138.7 22.5"
      style="fill:#79c71a; fill-rule:evenodd; " />
    <polygon points="138.1 21.1 136.9 22.5 138.1 23.2 138.1 21.1 138.1 21.1"
      style="fill:#a0f23d; fill-rule:evenodd; " />
    <polygon points="138.1 21.1 139.3 22.5 138.1 23.2 138.1 21.1 138.1 21.1"
      style="fill:#8bde25; fill-rule:evenodd; " />
    <polygon points="118.7 45.6 123.5 48.4 128.4 45.6 123.5 42.8 118.7 45.6 118.7 45.6"
      style="fill:#5d9d08; fill-rule:evenodd; " />
    <path d="m124.1,45.6c0,.2-.3.4-.6.4s-.6-.2-.6-.4v-3.9h1.2v3.9h0Z" style="fill:#a06442; fill-rule:evenodd; " />
    <polygon points="127.2 37.2 129.6 39.3 123.5 42.8 123.5 39.3 127.2 37.2 127.2 37.2"
      style="fill:#478000; fill-rule:evenodd; " />
    <polygon points="117.4 39.3 119.9 37.2 123.5 39.3 123.5 42.8 117.4 39.3 117.4 39.3"
      style="fill:#559409; fill-rule:evenodd; " />
    <polygon points="121.1 35.1 118.7 37.2 123.5 40 123.5 36.5 121.1 35.1 121.1 35.1"
      style="fill:#69ad15; fill-rule:evenodd; " />
    <polygon points="125.9 35.1 128.4 37.2 123.5 40 123.5 36.5 125.9 35.1 125.9 35.1"
      style="fill:#559409; fill-rule:evenodd; " />
    <polygon points="122.3 33 119.9 35.1 123.5 37.2 123.5 33.7 122.3 33 122.3 33"
      style="fill:#79c71a; fill-rule:evenodd; " />
    <polygon points="127.2 35.1 124.7 33 123.5 33.7 123.5 37.2 127.2 35.1 127.2 35.1"
      style="fill:#69ad15; fill-rule:evenodd; " />
    <polygon points="122.9 30.9 121.1 33 123.5 34.4 123.5 31.2 122.9 30.9 122.9 30.9"
      style="fill:#8bde25; fill-rule:evenodd; " />
    <polygon points="124.1 30.9 125.9 33 123.5 34.4 123.5 31.2 124.1 30.9 124.1 30.9"
      style="fill:#79c71a; fill-rule:evenodd; " />
    <polygon points="123.5 29.8 122.3 31.2 123.5 31.9 123.5 29.8 123.5 29.8"
      style="fill:#a0f23d; fill-rule:evenodd; " />
    <polygon points="123.5 29.8 124.7 31.2 123.5 31.9 123.5 29.8 123.5 29.8"
      style="fill:#8bde25; fill-rule:evenodd; " />
    <polygon points="102.8 30.9 105.3 28.8 108.9 30.9 108.9 34.4 102.8 30.9 102.8 30.9"
      style="fill:#559409; fill-rule:evenodd; " />
    <polygon points="106.5 26.7 104.1 28.8 108.9 31.6 108.9 28.1 106.5 26.7 106.5 26.7"
      style="fill:#69ad15; fill-rule:evenodd; " />
    <polygon points="107.7 24.6 105.3 26.7 108.9 28.8 108.9 25.3 107.7 24.6 107.7 24.6"
      style="fill:#79c71a; fill-rule:evenodd; " />
    <polygon points="108.3 22.5 106.5 24.6 108.9 26 108.9 22.8 108.3 22.5 108.3 22.5"
      style="fill:#8bde25; fill-rule:evenodd; " />
    <polygon points="104.1 37.2 108.9 40 113.8 37.2 108.9 34.4 104.1 37.2 104.1 37.2"
      style="fill:#5d9d08; fill-rule:evenodd; " />
    <path d="m109.5,37.2c0,.2-.3.4-.6.4s-.6-.2-.6-.4v-3.9h1.2v3.9h0Z" style="fill:#a06442; fill-rule:evenodd; " />
    <polygon points="112.6 28.8 115 30.9 108.9 34.4 108.9 30.9 112.6 28.8 112.6 28.8"
      style="fill:#478000; fill-rule:evenodd; " />
    <polygon points="111.4 26.7 113.8 28.8 108.9 31.6 108.9 28.1 111.4 26.7 111.4 26.7"
      style="fill:#559409; fill-rule:evenodd; " />
    <polygon points="112.6 26.7 110.1 24.6 108.9 25.3 108.9 28.8 112.6 26.7 112.6 26.7"
      style="fill:#69ad15; fill-rule:evenodd; " />
    <polygon points="109.5 22.5 111.4 24.6 108.9 26 108.9 22.8 109.5 22.5 109.5 22.5"
      style="fill:#79c71a; fill-rule:evenodd; " />
    <polygon points="108.9 21.1 107.7 22.5 108.9 23.2 108.9 21.1 108.9 21.1"
      style="fill:#a0f23d; fill-rule:evenodd; " />
    <polygon points="108.9 21.1 110.1 22.5 108.9 23.2 108.9 21.1 108.9 21.1"
      style="fill:#8bde25; fill-rule:evenodd; " />
    <polygon points="98.4 53.6 103.3 56.4 108.1 53.6 103.3 50.8 98.4 53.6 98.4 53.6"
      style="fill:#5d9d08; fill-rule:evenodd; " />
    <path d="m103.9,53.6c0,.2-.3.4-.6.4s-.6-.2-.6-.4v-3.9h1.2v3.9h0Z" style="fill:#a06442; fill-rule:evenodd; " />
    <polygon points="106.9 45.2 109.3 47.3 103.3 50.8 103.3 47.3 106.9 45.2 106.9 45.2"
      style="fill:#478000; fill-rule:evenodd; " />
    <polygon points="97.2 47.3 99.6 45.2 103.3 47.3 103.3 50.8 97.2 47.3 97.2 47.3"
      style="fill:#559409; fill-rule:evenodd; " />
    <polygon points="100.8 43.1 98.4 45.2 103.3 48 103.3 44.5 100.8 43.1 100.8 43.1"
      style="fill:#69ad15; fill-rule:evenodd; " />
    <polygon points="105.7 43.1 108.1 45.2 103.3 48 103.3 44.5 105.7 43.1 105.7 43.1"
      style="fill:#559409; fill-rule:evenodd; " />
    <polygon points="102 41 99.6 43.1 103.3 45.2 103.3 41.7 102 41 102 41" style="fill:#79c71a; fill-rule:evenodd; " />
    <polygon points="106.9 43.1 104.5 41 103.3 41.7 103.3 45.2 106.9 43.1 106.9 43.1"
      style="fill:#69ad15; fill-rule:evenodd; " />
    <polygon points="102.6 38.8 100.8 41 103.3 42.4 103.3 39.2 102.6 38.8 102.6 38.8"
      style="fill:#8bde25; fill-rule:evenodd; " />
    <polygon points="103.9 38.8 105.7 41 103.3 42.4 103.3 39.2 103.9 38.8 103.9 38.8"
      style="fill:#79c71a; fill-rule:evenodd; " />
    <polygon points="103.3 37.4 102 38.8 103.3 39.6 103.3 37.4 103.3 37.4" style="fill:#a0f23d; fill-rule:evenodd; " />
    <polygon points="103.3 37.4 104.5 38.8 103.3 39.6 103.3 37.4 103.3 37.4"
      style="fill:#8bde25; fill-rule:evenodd; " />
    <polygon points="82.2 70 87 72.8 91.9 70 87 67.2 82.2 70 82.2 70" style="fill:#5d9d08; fill-rule:evenodd; " />
    <path d="m87.6,70c0,.2-.3.4-.6.4s-.6-.2-.6-.4v-3.9h1.2v3.9h0Z" style="fill:#a06442; fill-rule:evenodd; " />
    <polygon points="90.7 61.6 93.1 63.7 87 67.2 87 63.7 90.7 61.6 90.7 61.6"
      style="fill:#478000; fill-rule:evenodd; " />
    <polygon points="80.9 63.7 83.4 61.6 87 63.7 87 67.2 80.9 63.7 80.9 63.7"
      style="fill:#559409; fill-rule:evenodd; " />
    <polygon points="84.6 59.6 82.2 61.7 87 64.5 87 61 84.6 59.6 84.6 59.6" style="fill:#69ad15; fill-rule:evenodd; " />
    <polygon points="89.4 59.6 91.9 61.7 87 64.5 87 61 89.4 59.6 89.4 59.6" style="fill:#559409; fill-rule:evenodd; " />
    <polygon points="85.8 57.5 83.4 59.6 87 61.7 87 58.2 85.8 57.5 85.8 57.5"
      style="fill:#79c71a; fill-rule:evenodd; " />
    <polygon points="90.7 59.6 88.2 57.5 87 58.2 87 61.7 90.7 59.6 90.7 59.6"
      style="fill:#69ad15; fill-rule:evenodd; " />
    <polygon points="86.4 55.3 84.6 57.5 87 58.9 87 55.7 86.4 55.3 86.4 55.3"
      style="fill:#8bde25; fill-rule:evenodd; " />
    <polygon points="87.6 55.3 89.4 57.5 87 58.9 87 55.7 87.6 55.3 87.6 55.3"
      style="fill:#79c71a; fill-rule:evenodd; " />
    <polygon points="87 53.9 85.8 55.3 87 56.1 87 53.9 87 53.9" style="fill:#a0f23d; fill-rule:evenodd; " />
    <polygon points="87 53.9 88.2 55.3 87 56.1 87 53.9 87 53.9" style="fill:#8bde25; fill-rule:evenodd; " />
    <polygon points="70.8 60.9 75.7 63.7 80.6 60.9 75.7 58.1 70.8 60.9 70.8 60.9"
      style="fill:#5d9d08; fill-rule:evenodd; " />
    <path d="m76.3,60.9c0,.2-.3.4-.6.4s-.6-.2-.6-.4v-3.9h1.2v3.9h0Z" style="fill:#a06442; fill-rule:evenodd; " />
    <polygon points="79.4 52.5 81.8 54.6 75.7 58.1 75.7 54.6 79.4 52.5 79.4 52.5"
      style="fill:#478000; fill-rule:evenodd; " />
    <polygon points="69.6 54.6 72.1 52.5 75.7 54.6 75.7 58.1 69.6 54.6 69.6 54.6"
      style="fill:#559409; fill-rule:evenodd; " />
    <polygon points="73.3 50.4 70.8 52.5 75.7 55.3 75.7 51.8 73.3 50.4 73.3 50.4"
      style="fill:#69ad15; fill-rule:evenodd; " />
    <polygon points="78.1 50.4 80.6 52.5 75.7 55.3 75.7 51.8 78.1 50.4 78.1 50.4"
      style="fill:#559409; fill-rule:evenodd; " />
    <polygon points="74.5 48.3 72.1 50.4 75.7 52.5 75.7 49 74.5 48.3 74.5 48.3"
      style="fill:#79c71a; fill-rule:evenodd; " />
    <polygon points="79.4 50.4 76.9 48.3 75.7 49 75.7 52.5 79.4 50.4 79.4 50.4"
      style="fill:#69ad15; fill-rule:evenodd; " />
    <polygon points="75.1 46.2 73.3 48.3 75.7 49.7 75.7 46.5 75.1 46.2 75.1 46.2"
      style="fill:#8bde25; fill-rule:evenodd; " />
    <polygon points="76.3 46.2 78.1 48.3 75.7 49.7 75.7 46.5 76.3 46.2 76.3 46.2"
      style="fill:#79c71a; fill-rule:evenodd; " />
    <polygon points="75.7 44.8 74.5 46.2 75.7 46.9 75.7 44.8 75.7 44.8" style="fill:#a0f23d; fill-rule:evenodd; " />
    <polygon points="75.7 44.8 76.9 46.2 75.7 46.9 75.7 44.8 75.7 44.8" style="fill:#8bde25; fill-rule:evenodd; " />
    <polygon points="61.1 77.5 65.9 80.3 70.8 77.5 65.9 74.7 61.1 77.5 61.1 77.5"
      style="fill:#5d9d08; fill-rule:evenodd; " />
    <path d="m66.5,77.5c0,.2-.3.4-.6.4s-.6-.2-.6-.4v-3.9h1.2v3.9h0Z" style="fill:#a06442; fill-rule:evenodd; " />
    <polygon points="69.6 69 72 71.2 65.9 74.7 65.9 71.2 69.6 69 69.6 69" style="fill:#478000; fill-rule:evenodd; " />
    <polygon
      points="65.9 73.6 65.9 74.7 65.3 74.3 63.6 73.3 61.4 72 61.3 72 59.9 71.2 60.8 70.3 61.8 69.5 62.3 69 63.4 69.7 65.7 71 65.9 71.2 65.9 71.9 65.9 73.6"
      style="fill:#559409; fill-rule:evenodd; " />
    <polygon points="63.5 66.9 61.1 69 65.9 71.9 65.9 68.3 63.5 66.9 63.5 66.9"
      style="fill:#69ad15; fill-rule:evenodd; " />
    <polygon points="68.4 66.9 70.8 69 65.9 71.9 65.9 68.3 68.4 66.9 68.4 66.9"
      style="fill:#559409; fill-rule:evenodd; " />
    <polygon points="64.7 64.8 62.3 66.9 65.9 69 65.9 65.5 64.7 64.8 64.7 64.8"
      style="fill:#79c71a; fill-rule:evenodd; " />
    <polygon points="69.6 66.9 67.1 64.8 65.9 65.5 65.9 69 69.6 66.9 69.6 66.9"
      style="fill:#69ad15; fill-rule:evenodd; " />
    <polygon points="65.4 63 63.5 65.1 66 66.5 66 63.4 65.4 63 65.4 63" style="fill:#8bde25; fill-rule:evenodd; " />
    <polygon points="66.6 63 68.4 65.1 66 66.5 66 63.4 66.6 63 66.6 63" style="fill:#79c71a; fill-rule:evenodd; " />
    <polygon points="66 61.6 64.8 63 66 63.7 66 61.6 66 61.6" style="fill:#a0f23d; fill-rule:evenodd; " />
    <polygon points="66 61.6 67.2 63 66 63.7 66 61.6 66 61.6" style="fill:#8bde25; fill-rule:evenodd; " />
    <path d="m28.7,84.3s0,0,0,0c0,0,0,0,0,0,0,0,0,0,0,0,0,0,0,0,0,0,0,0,.1,0,.2,0h0" style="fill:none; " />
    <path
      d="m61.3,72l-1.4-.8.9-.8c-.8-2.3-2.2-5.1-5.3-7.6-.8-.6-1.5-1.2-2.3-1.6l-.8.5-4.7,2.7c1.8.9,4,.5,4.3.5-.2.1-1.3.7-3.3.7s-1.6-.2-2.2-.5l-1.6.9c0,0,0,.1,0,.2.7,1.3,1.3,1.5,4.4,2,2.8.5,4,2.7,4.2,2.9,0-.1-.4-.5-1.3-1-1-.6-1.5-.8-4.1-.9-2.4-.1-3.4-1.7-3.9-2.7l-2.1,1.2c0,.3,0,.4,0,.4,0,0,0-.1-.2-.3L0,91.8c.4.4.8.8,1.1,1.2,1.9,2.6,2.8,7,9.3,9.7,6.5,2.7,12.8-.9,17.8.2s5.3,3.2,9.6,3.7c1.6.2,3.3-.1,4.9-.6,0,0-7.1-4.7-5.9-6.4,1.2-1.7,6.8-1.3,8.3-2.4,1.5-1.1.7-2.2-.3-2.8-1.1-.6-1.1-1.8.6-1.9.4,0,.7,0,1,0,.1,0,.2,0,.4,0,.2,0,.3,0,.4,0,.3,0,.5-.1.6-.2,0,0,.1,0,.2,0,0,0,0,0,0,0v-10.7s.5-.6,2-1.6c-.7.2-1.3.3-2.2,1-1.4,1.1-.1,3-1.1,4.4-1,1.4-3.1,1.4-3.1,1.4,0,0,2.2-.3,2.5-1.8.2-1.5-.9-1.8-.5-3.6.4-1.8,2.1-2,4.3-2.4.3,0,.6-.1.9-.2,0,0,.1,0,.2,0,0,0,.2,0,.2,0,.2,0,.3-.1.5-.2,0,0,.1,0,.2-.1.2-.1.4-.3.5-.4,0,0,0,0,0,0,0,0,0-.1,0-.1h0c0,0,0,.3-.1.7,1.1-.7,2.6-1.6,4.3-2.6.7-.4,1.4-.8,2-1.2.2-.1.4-.3.6-.4.1,0,.2-.2.3-.2.1,0,.3-.2.4-.3.2-.1.3-.3.5-.4,0,0,0,0,.1,0,.1,0,.2-.2.3-.3.2-.1.3-.3.4-.4h0c0,0,0-.1,0-.2Zm-29.1,25.2s0,0,0,0c0,0,0,0,0,0,0,0,0,0,0,0t0,0s0,0,0,0c0,0,0,0,0,0,0,0,0,0,0,0h0s0,0,0,0c0,0,0,0,0,0t0,0s0,0,0,0c0,0,0,0,0,0t0,0s0,0,0,0c0,0,0,0,0,0,0,0,0,0-.1,0h0s0,0,0,0c0,0,0,0,0,0,0,0,0,0,0,0,0,0,0,0-.1,0,0,0,0,0,0,0s0,0,0,0h0c0,0-.1,0-.2,0-.3,0-.7,0-1.1-.2-1.3-.3-1.6-.9-1.6-.9,0,0,0-.1,0-.2h0s0,0-.1,0h0s0,0-.1,0c-.5,0-1,0-1.4-.2-.1,0-.2,0-.4-.1,0,0,0,0,0,0-.1,0-.3-.1-.4-.2,0,0,0,0,0,0-.2-.1-.4-.3-.6-.4,0,0,0,0-.1-.1,0,0,0,0,0,0,0,0,0,0,0,0,0,0,0,0,0,0,0,0,0,0,0,0,0,0-.1-.2-.2-.3,0,0,0-.2,0-.2,0,0,0,0,0-.1,0,0,0,0,0-.1,0,0,0-.2,0-.2,0,0,0-.1,0-.2,0,0,0,0,0,0h0s0,0,0,0c0,0,0,0,0-.1,0,0,0,0,0,0,0,0,0-.1,0-.2,0,0,0,0,0,0,0,0,0,0,0-.1,0,0,0,0,0,0,0,0,0-.1.1-.2,0,0,0,0,0,0,0,0,0,0,0,0,0,0,0,0,0,0,0,0,0,0,0,0,0,0,0,0,0,0h0s0,0,0,0c0-.1.2-.2.3-.3,0,0,0,0,0,0,0,0,0,0,0,0,0,0,.1-.1.2-.1,0,0,0,0,0,0,.4-.2,1-.4,1.6-.2,1.4.3,2,1.5,2.2,2.1,1.4,0,2.2,1.6,2.3,2.6,0,.1,0,.2,0,.3,0,0,0,0,0,.1Zm21.2-20.3c0-.2.4-2.3-.7-4-1.1-1.8-2.1-2.2-2.1-2.2,0,0,2.6,0,3.3,2.3.7,2.1-.4,3.8-.5,3.9Zm3.2-2.4s-.1-3-2.2-5.5c-2-2.5-4.1-2.8-4.1-2.8,0,0,3.5,0,5.4,2.2,1.8,2.2.9,6.1.9,6.1Z"
      style="fill:#1dc2e2; " />
    <path d="m53.4,76.9c0-.2.4-2.3-.7-4-1.1-1.8-2.1-2.2-2.1-2.2,0,0,2.6,0,3.3,2.3.7,2.1-.4,3.8-.5,3.9Z"
      style="fill:#9df0ff; fill-rule:evenodd; " />
    <path
      d="m48.1,91.8v11.8s-1.1.6-2.8,1.3c0,0,0,0,0,0-.1,0-.3.1-.4.2-.3.1-.6.2-.9.3,0,0,0,0-.1,0,0,0-.2,0-.3,0,0,0,0,0,0,0,0,0,0,0-.1,0-.2,0-.3.1-.5.2h0s-7.1-4.7-5.9-6.4c1.2-1.7,6.8-1.3,8.3-2.4,1.5-1.1.7-2.2-.3-2.8-1.1-.6-1.1-1.8.6-1.9,1.7,0,2.7-.6,2.7-.6Z"
      style="fill:#7eb80b; fill-rule:evenodd; " />
    <path
      d="m46.5,93.7c-.4.5,2.4,2.7,0,4.5-2.4,1.8-6.2.9-6.9,2.1-.7,1.2,5.8,4.6,5.8,4.6,0,0,0,0,0,0-.1,0-.3.1-.4.2-.3.1-.6.2-.9.3,0,0,0,0-.1,0,0,0-.2,0-.3,0,0,0,0,0,0,0,0,0,0,0-.1,0-.2,0-.3.1-.5.2h0s-7.1-4.7-5.9-6.4c1.2-1.7,6.8-1.3,8.3-2.4,1.5-1.1.7-2.2-.3-2.8-1.1-.6-1.1-1.8.6-1.9,1.7,0,2.7-.6,2.7-.6v1.2c-.7.3-1.3.2-1.6.7Z"
      style="fill:#d9c97b; fill-rule:evenodd; " />
    <path
      d="m26.9,80.2c0,.3-.1.6-.3.8,0,0,0,0,0,0,0,0,0,.1-.1.2,0,.1-.2.3-.3.4h0c0,0-.1,0-.2.1,0,0,0,0,0,0,0,0-.2.1-.3.2,0,0,0,0,0,0,0,0-.1,0-.2,0,0,0,0,0,0,0,0,0,0,0,0,0,0,0,0,0,0,0,0,0,0,0,0,0,0,0-.2,0-.3,0,0,0,0,0,0,0,0,0,0,0,0,0h-.1s0,0,0,0c0,0,0,0-.1,0s0,0,0,0c0,0,0,0-.1,0-.1,0-.2,0-.3,0-.9,0-1.9-.2-2.9-.8-3.1-1.5-1.6-3.8-1.6-3.8h0c0,0,.1-.2.3-.4,0-.1.2-.2.4-.4,0,0,0,0,0,0h0c0,0,0,0,0-.1,0,0,0,0,0,0h0s0,0,0,0h0s0,0,0,0c0,0,.1-.1.2-.2.2-.2.4-.3.7-.5,0,0,.2,0,.3-.1.3-.1.6-.3.9-.4,2.2-.7,4.6,2.8,4.3,4.7Z"
      style="fill:#aba58b; fill-rule:evenodd; " />
    <path
      d="m26.6,81s0,0,0,0c0,0,0,.1-.1.2,0,.1-.2.3-.3.4h0c0,0-.1,0-.2.1,0,0,0,0,0,0,0,0-.2.1-.3.2,0,0,0,0,0,0,0,0-.1,0-.2,0,0,0,0,0,0,0,0,0,0,0,0,0,0,0,0,0,0,0,0,0,0,0,0,0,0,0-.2,0-.3,0,0,0,0,0,0,0,0,0,0,0,0,0h-.1s0,0,0,0c0,0,0,0-.1,0s0,0,0,0c0,0,0,0-.1,0-.1,0-.2,0-.3,0-.9,0-1.9-.2-2.9-.8-3.1-1.5-1.6-3.8-1.6-3.8,0,0,0,0,0,0h0c0,0,.1-.2.3-.4,0-.1.2-.2.4-.4,0,0,0,0,0,0h0c0,0,0,0,0-.1,0,0,0,0,0,0h0s0,0,0,0c0,0,0,0,0,0,0,0,.1-.1.2-.2.2-.2.4-.3.7-.5,0,0,.2,0,.3-.1,0,0-1.3,1.4.7,3.3s3.4,2,3.9,1.9c.1,0,.3,0,.4,0Z"
      style="fill:#9d997c; fill-rule:evenodd; " />
    <path
      d="m26.1,81.6c0,0-.1,0-.2.1,0,0,0,0,0,0,0,0-.2.1-.3.2,0,0,0,0,0,0,0,0-.1,0-.2,0,0,0,0,0,0,0,0,0,0,0,0,0,0,0,0,0,0,0,0,0,0,0,0,0,0,0-.2,0-.3,0,0,0,0,0,0,0,0,0,0,0,0,0h-.1s0,0,0,0c0,0,0,0-.1,0s0,0,0,0c0,0,0,0-.1,0-.1,0-.2,0-.3,0-.9,0-1.9-.2-2.9-.8-3.1-1.5-1.6-3.8-1.6-3.8,0,0,0,0,0,0h0c0,0,.1-.2.3-.4,0,0,.1-.1.2-.2,0,0,.2-.2.3-.2h0c0,0,0,0,0-.1,0,0,0,0,0,0,0,0,0,0,0,0h0c-.1.2-1,1.6.6,3.3,1.7,1.8,5,1.5,5.1,1.5Z"
      style="fill:#8b876e; fill-rule:evenodd; " />
    <path d="m22.5,76.3c-.6.3-.9,1.1-.1,1.3.8.2,1.1-.3,1-.9-.1-.6-.8-.4-.8-.4h0Z"
      style="fill:#b9b399; fill-rule:evenodd; " />
    <path d="m24.7,77.3s-.7-.3-.8.4c-.2.6.7.6.8,1.3.1.7.1,1.2.6,1.2.4,0,.8-1,.4-1.9-.4-.8-1-1-1-1h0Z"
      style="fill:#b9b399; fill-rule:evenodd; " />
    <path
      d="m29.4,96.2c-.2.1-.4.2-.6.2-.1,0-.2,0-.4,0h0s0,0-.1,0h0s0,0-.1,0c-.5,0-1,0-1.4-.2-.1,0-.2,0-.4-.1,0,0,0,0,0,0-.1,0-.3-.1-.4-.2,0,0,0,0,0,0-.2-.1-.4-.3-.6-.4,0,0,0,0-.1-.1h0c0,0,0-.1,0-.1,0,0,0,0,0-.1,0,0-.1-.2-.2-.3,0,0,0-.2,0-.2,0,0,0,0,0-.1,0,0,0,0,0-.1,0,0,0-.2,0-.2,0,0,0-.1,0-.2,0,0,0,0,0,0h0s0,0,0,0c0,0,0-.1,0-.2,0,0,0,0,0,0,0,0,0-.1,0-.2,0,0,0,0,0,0h0s0,0,0-.1c0,0,0,0,0,0,0,0,0-.1.1-.2,0,0,0,0,0,0,0,0,0,0,0,0,0,0,0,0,.1-.1h0s0,0,0,0c0-.1.2-.2.3-.3,0,0,0,0,0,0,0,0,0,0,0,0,0,0,.1-.1.2-.1,0,0,0,0,0,0,.4-.2,1-.4,1.6-.2,1.4.3,2,1.5,2.2,2.1,0,.3.1.5.1.5.1.5.1,1.2-.6,1.6Z"
      style="fill:#aba58b; fill-rule:evenodd; " />
    <path
      d="m28.3,96.5s0,0-.1,0c-.5,0-1,0-1.4-.2-.1,0-.2,0-.4-.1,0,0,0,0,0,0-.1,0-.3-.1-.4-.2,0,0,0,0,0,0-.2-.1-.4-.3-.6-.4,0,0,0,0-.1-.1h0c0,0,0-.1,0-.1,0,0,0,0,0-.1,0,0-.1-.2-.2-.3,0,0,0-.2,0-.2,0,0,0,0,0-.1,0,0,0,0,0-.1,0,0,0-.2,0-.2,0,0,0-.1,0-.2,0,0,0,0,0,0h0s0,0,0,0h0s0,0,0,0c0,0,0,0,0-.1h0c0,0,0-.1,0-.2,0,0,0,0,0,0,0,0,0,0,0-.1,0,0,0,0,0,0,0,0,0-.1.1-.2,0,0,0,0,0,0,0,0,0,0,.1-.1h0s0,0,0,0c0-.1.2-.2.3-.3,0,0,0,0,0,0,0,0,0,0,0,0,0,0,.1-.1.2-.1,0,0,0,0,0,0,0,0-.2,1.6.6,2.9.8,1.2,1.5,1.3,1.6,1.3Z"
      style="fill:#9d997c; fill-rule:evenodd; " />
    <path
      d="m26.8,96.4c-.1,0-.2,0-.4-.1,0,0,0,0,0,0-.1,0-.3-.1-.4-.2,0,0,0,0,0,0-.2-.1-.4-.3-.6-.4,0,0,0,0-.1-.1h0c0,0,0-.1,0-.1,0,0,0,0,0-.1,0,0-.1-.2-.2-.3,0,0,0-.2,0-.2,0,0,0,0,0-.1,0,0,0,0,0-.1,0,0,0-.2,0-.2,0,0,0-.1,0-.2,0,0,0,0,0,0t0,0h0s0,0,0,0c0,0,0,0,0-.1h0c0,0,0-.1,0-.2,0,0,0,0,0,0,0,0,0,0,0-.1,0,0,0,0,0,0,0,0,0-.1.1-.2h0s0,0,0,0c0,0,0,0,0,0,0,0,0,0,.1-.1h0c0,.2,0,1.3.3,2.2.4,1,1.1,1.3,1.1,1.3Z"
      style="fill:#8b876e; fill-rule:evenodd; " />
    <path d="m27.1,92.4c-.4.2-.4,1.1.2,1.2.6,0,.9-.3.7-.8-.2-.6-1-.4-1-.4h0Z"
      style="fill:#b9b399; fill-rule:evenodd; " />
    <path d="m27.7,93.9c-.3.2-.2.7.3.5.5-.2.5-.4.3-.6-.2-.2-.6,0-.6,0h0Z" style="fill:#b9b399; fill-rule:evenodd; " />
    <path
      d="m31.9,97.6s0,0-.1,0c0,0,0,0,0,0,0,0,0,0,0,0,0,0,0,0-.1,0,0,0,0,0,0,0s0,0,0,0c0,0-.1,0-.2,0-.3,0-.7,0-1.1-.2-1.3-.3-1.6-.9-1.6-.9,0,0,0-.1,0-.2,0,0,0,0,0,0,0,0,0,0,0,0h0s0,0,0,0c0,0,0,0,0,0t0,0s0,0,0,0,0,0,0,0h0s0,0,0,0c0,0,0,0,0,0,0,0,0-.1,0-.2,0,0,0,0,0,0,0,0,0-.1,0-.2h0c0,0,0-.1,0-.2,0,0,0,0,0-.1,0,0,0-.1,0-.2,0,0,0,0,0-.1,0,0,0,0,0-.1,0,0,0,0,0,0,0,0,0-.1.1-.2,0,0,0,0,0,0,0,0,0,0,0-.1h0c.2-.2.5-.4.9-.5,0,0,.2,0,.3,0,1.4,0,2.2,1.6,2.3,2.6,0,.4,0,.7-.3.9Z"
      style="fill:#aba58b; fill-rule:evenodd; " />
    <path
      d="m32.1,97.5c0,0,0,0-.1.1,0,0,0,0-.1,0h0s0,0,0,0c0,0,0,0,0,0,0,0,0,0-.1,0,0,0,0,0,0,0s0,0,0,0c0,0-.1,0-.2,0-.3,0-.7,0-1.1-.2-1.3-.3-1.6-.9-1.6-.9,0,0,0-.1,0-.2,0,0,0,0,0,0,0,0,0,0,0,0h0s0,0,0,0c0,0,0,0,0,0t0,0s0,0,0,0h0s0,0,0,0h0s0,0,0,0c0,0,0,0,0,0,0,0,0-.1,0-.2,0,0,0,0,0,0,0,0,0-.1,0-.2h0c0,0,0-.1,0-.2,0,0,0,0,0-.1,0,0,0-.1,0-.2,0,0,0,0,0-.1,0,0,0,0,0-.1,0,0,0,0,0,0,0,0,0-.1.1-.2,0,0,0,0,0,0,0,0,0,0,0-.1,0,0,0,.8.8,1.6.1.2.3.3.5.5,1.4,1,2.1.8,2.1.8Z"
      style="fill:#9d997c; fill-rule:evenodd; " />
    <path
      d="m31.8,97.7s0,0,0,0c0,0-.1,0-.2,0,0,0,0,0,0,0,0,0-.2,0-.3,0-.3,0-.7,0-1.1-.2-1.3-.3-1.6-.9-1.6-.9,0,0,0-.1,0-.2h0s0,0,0,0h0s0,0,0,0c0,0,0,0,0,0t0,0s0,0,0,0h0s0,0,0,0c0,0,0,0,0,0,0,0,0,0,0,0,0,0,0-.1,0-.2,0,0,0,0,0,0,0,0,0-.1,0-.2,0,0,.1.3.5.7s.6.5,1.1.7c1.2.5,1.8.5,1.9.5Z"
      style="fill:#8b876e; fill-rule:evenodd; " />
    <path d="m30.5,94.7c-.3.1-.5.6,0,.9.5.3.9.2.7-.4-.1-.6-.7-.5-.7-.5h0Z" style="fill:#b9b399; fill-rule:evenodd; " />
    <polygon points="96 16.1 100.8 19 105.7 16.1 100.8 13.3 96 16.1 96 16.1"
      style="fill:#5d9d08; fill-rule:evenodd; " />
    <path d="m101.4,16.1c0,.2-.3.4-.6.4s-.6-.2-.6-.4v-3.9h1.2v3.9h0Z" style="fill:#a06442; fill-rule:evenodd; " />
    <polygon points="104.5 7.7 106.9 9.8 100.8 13.3 100.8 9.8 104.5 7.7 104.5 7.7"
      style="fill:#478000; fill-rule:evenodd; " />
    <polygon points="94.7 9.8 97.2 7.7 100.8 9.8 100.8 13.3 94.7 9.8 94.7 9.8"
      style="fill:#559409; fill-rule:evenodd; " />
    <polygon points="98.4 5.6 96 7.7 100.8 10.5 100.8 7 98.4 5.6 98.4 5.6" style="fill:#69ad15; fill-rule:evenodd; " />
    <polygon points="103.3 5.6 105.7 7.7 100.8 10.5 100.8 7 103.3 5.6 103.3 5.6"
      style="fill:#559409; fill-rule:evenodd; " />
    <polygon points="99.6 3.5 97.2 5.6 100.8 7.7 100.8 4.2 99.6 3.5 99.6 3.5"
      style="fill:#79c71a; fill-rule:evenodd; " />
    <polygon points="104.5 5.6 102 3.5 100.8 4.2 100.8 7.7 104.5 5.6 104.5 5.6"
      style="fill:#69ad15; fill-rule:evenodd; " />
    <polygon points="100.2 1.4 98.4 3.5 100.8 4.9 100.8 1.8 100.2 1.4 100.2 1.4"
      style="fill:#8bde25; fill-rule:evenodd; " />
    <polygon points="101.4 1.4 103.3 3.5 100.8 4.9 100.8 1.8 101.4 1.4 101.4 1.4"
      style="fill:#79c71a; fill-rule:evenodd; " />
    <polygon points="100.8 0 99.6 1.4 100.8 2.1 100.8 0 100.8 0" style="fill:#a0f23d; fill-rule:evenodd; " />
    <polygon points="100.8 0 102 1.4 100.8 2.1 100.8 0 100.8 0" style="fill:#8bde25; fill-rule:evenodd; " />
    <line x1="44.1" y1="66.3" x2="44.9" y2="65.9" style="fill:#1dc2e2; " />
    <path d="m89.6,112.8c1.4,0,1.4-2.2,0-2.2s-1.4,2.2,0,2.2h0Z" style="fill:#fff; " />
  </g>
</svg>